<svg id="svg" version="1.1" xmlns="http://www.w3.org/2000/svg" xmlns:xlink="http://www.w3.org/1999/xlink" width="400" height="400" viewBox="0, 0, 400,400"><g id="svgg"><path id="path0" d="M83.984 6.521 C 82.793 7.151,81.951 7.993,81.321 9.184 L 80.400 10.926 80.400 30.400 L 80.400 49.874 81.321 51.616 C 83.203 55.174,83.347 55.200,101.446 55.200 L 117.166 55.200 117.283 71.300 C 117.421 90.343,117.549 90.838,122.631 92.017 C 125.679 92.724,294.991 92.498,296.698 91.785 C 300.922 90.020,300.888 90.186,300.823 71.357 L 300.766 55.226 317.115 55.113 L 333.463 55.000 334.932 53.879 C 337.743 51.735,337.646 52.575,337.646 30.400 C 337.646 9.188,337.651 9.257,335.726 7.514 C 333.474 5.476,341.682 5.600,208.876 5.600 L 85.726 5.600 83.984 6.521 M324.400 30.602 L 324.400 42.004 209.100 41.902 L 93.800 41.800 93.694 30.500 L 93.588 19.200 208.994 19.200 L 324.400 19.200 324.400 30.602 M287.600 67.000 L 287.600 78.800 209.000 78.800 L 130.400 78.800 130.400 67.000 L 130.400 55.200 209.000 55.200 L 287.600 55.200 287.600 67.000 M133.214 104.897 C 132.242 105.394,131.076 106.308,130.623 106.929 L 129.800 108.059 129.697 198.698 C 129.582 300.941,129.289 291.374,132.597 293.504 L 134.000 294.407 134.000 342.593 L 134.000 390.779 132.807 391.396 C 128.677 393.532,130.413 399.988,135.120 399.997 C 140.163 400.007,141.972 393.661,137.574 391.387 L 136.397 390.778 136.498 342.752 L 136.600 294.726 138.145 294.194 C 140.170 293.498,141.908 291.794,142.400 290.023 C 142.655 289.106,142.796 258.180,142.798 203.100 L 142.800 117.600 209.200 117.600 L 275.600 117.600 275.600 203.646 L 275.600 289.691 276.476 291.249 C 277.458 292.997,278.799 294.019,280.592 294.386 L 281.800 294.633 281.905 310.516 C 281.999 324.805,281.945 326.400,281.374 326.400 C 281.024 326.400,280.212 326.926,279.569 327.569 C 276.861 330.278,278.932 335.200,282.780 335.200 C 288.267 335.200,289.920 329.041,285.101 326.549 L 284.000 325.979 284.000 310.200 L 284.000 294.421 285.179 293.811 C 285.828 293.475,286.863 292.540,287.479 291.732 L 288.600 290.262 288.703 199.865 C 288.820 97.754,289.126 107.496,285.735 105.200 L 284.259 104.200 209.620 104.097 L 134.982 103.994 133.214 104.897 M169.189 135.214 C 168.412 135.677,167.332 136.705,166.789 137.499 L 165.800 138.941 165.800 214.600 L 165.800 290.259 166.800 291.745 C 167.410 292.651,168.541 293.575,169.700 294.113 L 171.600 294.995 171.600 334.287 L 171.600 373.579 170.424 374.187 C 164.914 377.037,169.440 384.812,175.057 382.146 C 178.317 380.599,178.399 375.854,175.193 374.196 L 174.000 373.579 174.000 333.990 C 174.000 300.014,174.081 294.400,174.569 294.400 C 174.882 294.400,175.699 293.929,176.384 293.352 C 178.993 291.157,178.800 297.465,178.800 214.479 L 178.800 138.918 177.900 137.596 C 175.832 134.558,172.030 133.518,169.189 135.214 M205.989 135.214 C 205.212 135.677,204.132 136.705,203.589 137.499 L 202.600 138.941 202.600 214.600 L 202.600 290.259 203.600 291.724 C 204.150 292.530,205.365 293.597,206.300 294.094 L 208.000 294.999 208.000 326.808 L 208.000 358.618 206.621 359.361 C 203.277 361.161,203.356 365.619,206.762 367.381 C 210.228 369.173,214.489 366.147,213.744 362.422 C 213.513 361.263,211.229 358.800,210.386 358.800 C 210.141 358.800,210.000 347.109,210.000 326.831 L 210.000 294.862 211.334 294.422 C 212.713 293.967,214.368 292.451,215.151 290.926 C 215.478 290.289,215.600 269.563,215.600 214.485 L 215.600 138.918 214.700 137.596 C 212.632 134.558,208.830 133.518,205.989 135.214 M243.393 134.935 C 241.273 135.898,239.694 138.097,239.412 140.478 C 239.274 141.645,239.215 175.823,239.281 216.429 L 239.400 290.259 240.400 291.735 C 240.950 292.547,242.165 293.585,243.100 294.042 L 244.800 294.871 244.797 318.736 L 244.794 342.600 243.254 343.479 C 238.491 346.198,241.664 353.175,247.049 351.824 C 251.098 350.807,251.596 344.643,247.747 343.180 L 246.800 342.820 246.800 318.841 L 246.800 294.862 248.134 294.422 C 249.513 293.967,251.168 292.451,251.951 290.926 C 252.278 290.289,252.400 269.563,252.400 214.485 L 252.400 138.918 251.500 137.596 C 249.609 134.817,246.151 133.683,243.393 134.935 M284.126 328.460 C 286.562 329.742,285.841 333.200,283.138 333.200 C 279.610 333.200,279.600 328.913,283.126 328.032 C 283.196 328.014,283.646 328.207,284.126 328.460 M247.474 345.670 C 248.706 346.827,248.647 348.148,247.317 349.194 C 245.468 350.649,243.200 349.521,243.200 347.146 C 243.200 345.018,245.818 344.113,247.474 345.670 M210.824 361.624 C 211.906 362.706,211.699 364.298,210.348 365.303 C 207.866 367.147,205.011 363.789,207.200 361.600 C 208.231 360.569,209.779 360.579,210.824 361.624 M174.588 376.387 C 175.469 377.361,175.509 379.063,174.669 379.902 C 173.717 380.854,171.614 380.705,170.738 379.622 C 168.781 377.206,172.500 374.080,174.588 376.387 M137.018 393.782 C 139.245 396.009,136.291 399.199,133.689 397.377 C 131.829 396.074,132.986 392.800,135.307 392.800 C 135.708 392.800,136.478 393.242,137.018 393.782 " stroke="none" fill="#04343c" fill-rule="evenodd"></path><path id="path1" d="M129.396 200.400 C 129.396 248.910,129.443 268.755,129.500 244.500 C 129.557 220.245,129.557 180.555,129.500 156.300 C 129.443 132.045,129.396 151.890,129.396 200.400 M210.191 326.800 C 210.191 344.290,210.240 351.445,210.300 342.700 C 210.360 333.955,210.360 319.645,210.300 310.900 C 210.240 302.155,210.191 309.310,210.191 326.800 M206.454 363.238 C 206.421 363.871,206.751 364.573,207.300 365.038 C 208.193 365.794,208.195 365.794,207.536 365.000 C 207.172 364.560,206.791 363.750,206.691 363.200 L 206.509 362.200 206.454 363.238 " stroke="none" fill="#67888d" fill-rule="evenodd"></path><path id="path2" d="M101.126 41.900 C 105.155 41.965,111.635 41.965,115.526 41.899 C 119.417 41.834,116.120 41.780,108.200 41.781 C 100.280 41.781,97.097 41.834,101.126 41.900 M175.332 41.900 C 202.795 41.957,247.615 41.957,274.932 41.900 C 302.249 41.843,279.780 41.797,225.000 41.797 C 170.220 41.797,147.869 41.843,175.332 41.900 M300.981 69.600 C 300.981 77.630,301.034 80.915,301.099 76.900 C 301.165 72.885,301.165 66.315,301.099 62.300 C 301.034 58.285,300.981 61.570,300.981 69.600 M275.396 202.800 C 275.396 249.770,275.443 268.985,275.500 245.500 C 275.557 222.015,275.557 183.585,275.500 160.100 C 275.443 136.615,275.396 155.830,275.396 202.800 M215.796 214.800 C 215.796 255.390,215.843 271.995,215.900 251.700 C 215.957 231.405,215.957 198.195,215.900 177.900 C 215.843 157.605,215.796 174.210,215.796 214.800 " stroke="none" fill="#3a636b" fill-rule="evenodd"></path><path id="path3" d="M337.783 30.400 C 337.783 39.530,337.835 43.265,337.900 38.700 C 337.964 34.135,337.964 26.665,337.900 22.100 C 337.835 17.535,337.783 21.270,337.783 30.400 M130.577 67.000 C 130.577 73.600,130.632 76.356,130.699 73.125 C 130.766 69.893,130.766 64.493,130.699 61.125 C 130.632 57.756,130.577 60.400,130.577 67.000 M178.996 214.600 C 178.996 255.300,179.043 271.891,179.100 251.468 C 179.157 231.046,179.157 197.746,179.100 177.468 C 179.043 157.191,178.996 173.900,178.996 214.600 M252.596 214.800 C 252.596 255.610,252.643 272.305,252.700 251.900 C 252.757 231.495,252.757 198.105,252.700 177.700 C 252.643 157.295,252.596 173.990,252.596 214.800 M284.183 294.501 C 284.077 294.776,284.038 302.021,284.096 310.601 L 284.201 326.200 284.400 310.100 C 284.510 301.245,284.549 294.000,284.487 294.000 C 284.426 294.000,284.288 294.225,284.183 294.501 M244.400 318.720 L 244.600 343.000 244.703 319.023 C 244.760 305.836,244.670 294.910,244.503 294.743 C 244.336 294.576,244.290 305.366,244.400 318.720 " stroke="none" fill="#1c5454" fill-rule="evenodd"></path><path id="path4" d="M93.776 30.400 C 93.776 36.670,93.832 39.235,93.899 36.100 C 93.967 32.965,93.967 27.835,93.899 24.700 C 93.832 21.565,93.776 24.130,93.776 30.400 M207.791 326.800 C 207.791 344.290,207.840 351.445,207.900 342.700 C 207.960 333.955,207.960 319.645,207.900 310.900 C 207.840 302.155,207.791 309.310,207.791 326.800 " stroke="none" fill="#4c747a" fill-rule="evenodd"></path></g></svg>