<svg id="svg" version="1.1" xmlns="http://www.w3.org/2000/svg" xmlns:xlink="http://www.w3.org/1999/xlink" width="400" height="224.93506493506493" viewBox="0, 0, 400,224.93506493506493"><g id="svgg"><path id="path0" d="M9.899 18.238 C 9.899 18.376,9.707 18.417,9.449 18.335 C 9.201 18.257,8.998 18.275,8.998 18.376 C 8.997 18.477,8.688 18.889,8.312 19.291 C 7.935 19.693,7.694 20.022,7.778 20.022 C 7.861 20.022,7.814 20.161,7.673 20.331 C 7.332 20.742,7.330 40.045,7.671 40.045 C 7.797 40.045,7.838 40.146,7.762 40.270 C 7.685 40.394,7.741 40.495,7.885 40.495 C 8.029 40.495,8.088 40.649,8.015 40.838 C 7.923 41.078,8.138 41.299,8.722 41.569 C 9.184 41.783,9.587 42.008,9.617 42.070 C 9.648 42.132,13.217 42.151,17.548 42.113 L 25.422 42.043 25.422 49.784 C 25.422 54.989,25.506 57.776,25.679 58.290 C 25.952 59.105,26.545 59.919,26.731 59.733 C 26.792 59.672,26.994 59.747,27.179 59.901 C 27.658 60.298,111.003 60.438,112.439 60.044 C 112.970 59.898,113.505 59.591,113.628 59.361 C 113.751 59.131,114.011 58.943,114.205 58.943 C 114.427 58.943,114.511 58.817,114.429 58.605 C 114.358 58.420,114.389 58.268,114.498 58.268 C 114.817 58.268,115.042 56.460,114.759 56.176 C 114.461 55.878,114.411 42.800,114.706 42.335 C 114.858 42.096,116.414 42.052,122.689 42.110 C 126.976 42.150,130.484 42.116,130.484 42.036 C 130.484 41.955,130.783 41.784,131.149 41.657 C 132.464 41.198,132.508 40.824,132.508 30.126 C 132.508 20.004,132.404 18.898,131.447 18.898 C 131.281 18.898,131.084 18.740,131.010 18.547 C 130.936 18.355,130.737 18.250,130.567 18.315 C 130.398 18.380,130.259 18.336,130.259 18.216 C 130.259 18.076,108.749 17.998,70.079 17.998 C 27.576 17.998,9.899 18.068,9.899 18.238 M126.097 30.146 L 126.097 35.658 70.022 35.709 L 13.948 35.760 13.948 30.291 C 13.948 27.283,14.016 24.754,14.099 24.671 C 14.181 24.589,39.415 24.547,70.173 24.578 L 126.097 24.634 126.097 30.146 M108.211 47.919 L 108.211 53.768 70.079 53.768 L 31.946 53.768 31.946 47.919 L 31.946 42.070 70.079 42.070 L 108.211 42.070 108.211 47.919 M141.282 62.539 L 141.282 63.667 142.182 63.667 C 142.693 63.667,143.082 63.775,143.082 63.918 C 143.082 64.068,143.352 64.128,143.757 64.069 C 144.128 64.015,144.432 64.054,144.432 64.156 C 144.432 64.258,144.710 64.342,145.051 64.342 L 145.669 64.342 145.610 79.753 C 145.551 94.958,145.545 95.163,145.104 95.163 C 144.858 95.163,144.657 95.269,144.657 95.398 C 144.657 95.545,144.361 95.578,143.870 95.486 C 143.353 95.389,143.082 95.424,143.082 95.588 C 143.082 95.726,142.837 95.838,142.538 95.838 C 141.470 95.838,141.282 96.044,141.282 97.214 L 141.282 98.316 155.054 98.258 L 168.825 98.200 169.268 95.276 C 169.512 93.667,169.803 92.289,169.915 92.213 C 170.027 92.137,170.088 91.833,170.050 91.538 C 170.011 91.243,170.062 90.870,170.162 90.709 C 170.262 90.549,170.282 90.257,170.207 90.062 C 170.132 89.867,170.181 89.574,170.316 89.411 C 170.839 88.781,170.477 87.857,169.676 87.780 C 168.904 87.706,167.563 88.166,167.736 88.446 C 167.791 88.535,167.582 88.883,167.270 89.219 C 166.959 89.555,166.704 89.967,166.704 90.134 C 166.704 90.302,166.544 90.439,166.348 90.439 C 166.152 90.439,166.031 90.556,166.079 90.700 C 166.127 90.843,165.933 91.212,165.648 91.520 C 165.363 91.828,165.129 92.213,165.129 92.376 C 165.129 92.539,164.931 92.779,164.688 92.909 C 164.445 93.039,164.299 93.282,164.363 93.450 C 164.428 93.618,164.316 93.818,164.116 93.895 C 163.915 93.972,163.807 94.126,163.876 94.238 C 163.945 94.350,163.851 94.499,163.666 94.570 C 163.481 94.641,163.330 94.854,163.330 95.044 C 163.330 95.344,162.596 95.388,157.611 95.388 C 154.466 95.388,151.732 95.450,151.535 95.525 C 151.211 95.650,151.183 94.228,151.236 79.946 L 151.294 64.229 152.025 64.303 C 152.427 64.343,152.756 64.285,152.756 64.173 C 152.756 64.061,153.060 64.015,153.431 64.069 C 153.817 64.126,154.106 64.066,154.106 63.930 C 154.106 63.800,154.536 63.662,155.062 63.624 L 156.018 63.555 156.018 62.542 L 156.018 61.530 148.650 61.470 L 141.282 61.411 141.282 62.539 M32.893 66.277 C 32.487 66.455,32.089 66.775,32.010 66.990 C 31.931 67.204,31.780 67.437,31.675 67.509 C 31.243 67.802,31.454 156.846,31.888 157.153 C 32.105 157.308,32.511 157.634,32.790 157.877 L 33.296 158.320 33.296 181.618 L 33.296 204.915 32.621 205.590 C 32.250 205.961,31.946 206.475,31.946 206.732 C 31.946 206.989,31.819 207.201,31.665 207.203 C 31.465 207.205,31.457 207.254,31.637 207.371 C 31.776 207.462,31.961 207.866,32.049 208.270 C 32.335 209.589,34.685 209.977,35.850 208.897 C 36.974 207.855,36.343 205.174,34.973 205.174 C 34.689 205.174,34.646 202.114,34.646 181.890 C 34.646 161.342,34.685 158.605,34.983 158.605 C 35.169 158.605,35.321 158.507,35.321 158.387 C 35.321 158.267,35.447 158.216,35.602 158.272 C 35.953 158.401,36.152 158.255,37.064 157.191 L 37.795 156.340 37.795 114.503 L 37.795 72.666 69.723 72.666 C 87.283 72.666,101.785 72.614,101.950 72.551 C 102.199 72.455,102.240 79.509,102.192 114.283 C 102.153 142.287,102.209 156.130,102.360 156.130 C 102.485 156.130,102.587 156.282,102.587 156.468 C 102.587 156.654,102.790 157.008,103.037 157.255 C 103.285 157.503,103.487 157.817,103.487 157.954 C 103.487 158.091,103.639 158.145,103.825 158.074 C 104.010 158.003,104.162 158.048,104.162 158.176 C 104.162 158.303,104.264 158.344,104.389 158.267 C 105.172 157.783,105.274 158.637,105.337 166.230 C 105.401 173.860,105.398 173.886,104.612 173.940 C 104.122 173.973,103.708 174.436,103.829 174.817 C 103.907 175.063,103.862 175.253,103.727 175.253 C 103.595 175.253,103.487 175.557,103.487 175.928 C 103.487 176.299,103.593 176.603,103.722 176.603 C 103.851 176.603,103.928 176.730,103.892 176.885 C 103.797 177.299,104.665 178.083,105.121 177.995 C 105.336 177.954,105.512 178.028,105.512 178.161 C 105.512 178.473,106.340 178.476,106.532 178.166 C 106.612 178.036,106.785 177.965,106.917 178.009 C 107.667 178.259,108.920 175.579,108.247 175.163 C 108.115 175.081,108.057 174.881,108.119 174.720 C 108.241 174.401,107.611 173.754,107.392 173.973 C 107.318 174.047,107.118 173.967,106.947 173.796 C 106.560 173.409,106.477 158.030,106.863 158.269 C 106.988 158.346,107.153 158.245,107.230 158.044 C 107.307 157.844,107.508 157.733,107.678 157.798 C 107.861 157.868,107.987 157.768,107.987 157.554 C 107.987 157.355,108.164 157.063,108.380 156.905 C 109.050 156.415,108.984 68.413,108.313 67.267 C 108.023 66.772,107.563 66.379,107.076 66.211 C 105.814 65.774,33.896 65.839,32.893 66.277 M355.793 70.868 C 354.088 71.054,352.159 71.689,351.994 72.118 C 351.924 72.300,351.620 72.542,351.318 72.657 C 350.784 72.860,350.347 73.469,349.818 74.747 C 349.677 75.087,349.465 75.366,349.346 75.366 C 349.227 75.366,349.187 75.458,349.257 75.571 C 349.327 75.685,349.264 75.817,349.118 75.866 C 348.778 75.979,348.579 80.090,348.914 80.090 C 349.040 80.090,349.084 80.242,349.013 80.427 C 348.942 80.613,348.976 80.765,349.089 80.765 C 349.202 80.765,349.480 81.195,349.706 81.721 C 350.168 82.795,350.896 83.690,351.309 83.690 C 351.460 83.690,351.641 83.841,351.712 84.027 C 351.784 84.213,352.048 84.364,352.299 84.364 C 352.550 84.364,352.756 84.458,352.756 84.573 C 352.756 84.688,353.161 84.961,353.656 85.179 C 354.151 85.397,354.556 85.664,354.556 85.771 C 354.556 85.878,354.657 85.903,354.781 85.827 C 354.904 85.750,355.006 85.792,355.006 85.919 C 355.006 86.046,355.157 86.092,355.343 86.021 C 355.529 85.949,355.681 85.993,355.681 86.118 C 355.681 86.242,356.187 86.526,356.805 86.749 C 357.424 86.971,357.930 87.251,357.930 87.371 C 357.930 87.491,357.992 87.528,358.067 87.453 C 358.142 87.378,358.416 87.514,358.675 87.756 C 358.935 87.998,359.253 88.159,359.382 88.113 C 359.512 88.068,359.897 88.319,360.238 88.672 C 360.580 89.025,360.951 89.314,361.063 89.314 C 361.961 89.314,362.251 93.569,361.396 94.194 C 361.160 94.367,361.007 94.579,361.055 94.667 C 361.103 94.754,360.912 94.943,360.631 95.087 C 360.349 95.230,360.052 95.457,359.969 95.590 C 359.567 96.240,355.496 96.296,355.282 95.654 C 355.238 95.522,355.056 95.469,354.879 95.537 C 354.701 95.605,354.556 95.549,354.556 95.412 C 354.556 95.275,354.477 95.188,354.381 95.219 C 354.100 95.310,352.683 93.776,352.199 92.857 C 351.954 92.393,351.665 92.013,351.556 92.013 C 351.447 92.013,351.416 91.862,351.487 91.676 C 351.559 91.490,351.522 91.339,351.406 91.339 C 351.290 91.339,351.253 91.187,351.325 91.001 C 351.396 90.816,351.347 90.664,351.215 90.664 C 351.084 90.664,350.910 90.309,350.829 89.876 L 350.681 89.089 349.356 89.089 L 348.031 89.089 348.031 93.454 L 348.031 97.819 349.213 97.912 C 349.862 97.963,350.504 97.923,350.639 97.823 C 350.774 97.723,350.957 97.714,351.045 97.802 C 351.133 97.890,351.283 97.838,351.377 97.685 C 351.508 97.473,351.858 97.517,352.883 97.876 C 354.676 98.505,354.851 98.541,356.860 98.694 C 358.817 98.843,361.833 98.423,362.229 97.946 C 362.367 97.779,362.570 97.698,362.680 97.766 C 362.790 97.834,362.880 97.771,362.880 97.627 C 362.880 97.483,363.031 97.423,363.217 97.494 C 363.403 97.565,363.557 97.500,363.560 97.350 C 363.562 97.199,363.886 96.917,364.279 96.724 C 365.015 96.361,365.894 95.070,366.147 93.982 C 366.225 93.642,366.396 93.363,366.525 93.363 C 366.667 93.363,366.707 93.094,366.625 92.688 C 366.549 92.308,366.586 92.013,366.710 92.013 C 366.830 92.013,366.929 91.406,366.929 90.664 C 366.929 89.897,366.830 89.314,366.700 89.314 C 366.568 89.314,366.530 89.076,366.612 88.751 C 366.696 88.416,366.657 88.189,366.514 88.189 C 366.382 88.189,366.208 87.835,366.127 87.402 C 366.046 86.969,365.914 86.614,365.834 86.614 C 365.754 86.614,365.560 86.322,365.401 85.964 C 365.243 85.606,364.712 85.048,364.222 84.723 C 363.731 84.399,363.330 84.022,363.330 83.887 C 363.330 83.752,363.178 83.700,362.992 83.771 C 362.807 83.842,362.655 83.796,362.655 83.669 C 362.655 83.542,362.553 83.501,362.430 83.577 C 362.306 83.654,362.205 83.609,362.205 83.478 C 362.205 83.347,362.099 83.240,361.969 83.240 C 361.839 83.240,361.314 83.037,360.802 82.790 C 360.290 82.542,359.738 82.340,359.575 82.340 C 359.413 82.340,359.280 82.242,359.280 82.122 C 359.280 82.002,359.128 81.962,358.943 82.033 C 358.757 82.105,358.605 82.064,358.605 81.944 C 358.605 81.824,358.008 81.507,357.278 81.241 C 356.548 80.975,355.894 80.609,355.824 80.427 C 355.752 80.241,355.547 80.155,355.352 80.230 C 355.131 80.315,355.006 80.235,355.006 80.009 C 355.006 79.815,354.795 79.543,354.538 79.406 C 354.281 79.268,353.967 78.859,353.841 78.498 C 353.715 78.136,353.520 77.840,353.409 77.840 C 353.017 77.840,353.218 76.815,353.872 75.478 C 354.236 74.736,354.542 74.229,354.552 74.353 C 354.562 74.477,354.712 74.391,354.885 74.162 C 355.059 73.933,355.300 73.807,355.421 73.882 C 355.543 73.957,355.685 73.891,355.736 73.736 C 355.874 73.322,358.783 73.350,359.041 73.767 C 359.148 73.940,359.396 74.019,359.595 73.943 C 359.793 73.867,359.955 73.903,359.955 74.023 C 359.955 74.143,360.157 74.241,360.405 74.241 C 360.652 74.241,360.855 74.347,360.855 74.477 C 360.855 74.607,361.212 75.081,361.648 75.530 C 362.085 75.979,362.500 76.581,362.572 76.868 C 362.645 77.155,362.786 77.390,362.888 77.390 C 362.989 77.390,363.247 77.787,363.461 78.271 C 363.835 79.120,363.895 79.155,365.052 79.228 C 366.489 79.317,366.417 79.713,365.883 74.634 L 365.510 71.091 364.791 71.091 C 363.926 71.091,362.655 71.506,362.655 71.788 C 362.655 72.107,361.816 72.025,361.689 71.694 C 361.624 71.525,360.860 71.276,359.921 71.116 C 357.580 70.720,357.304 70.703,355.793 70.868 M187.046 72.441 C 186.838 73.183,186.573 73.791,186.459 73.791 C 186.344 73.791,186.313 73.893,186.390 74.017 C 186.467 74.142,186.366 74.408,186.166 74.609 C 185.965 74.810,185.854 75.112,185.919 75.282 C 185.984 75.452,185.956 75.591,185.855 75.591 C 185.755 75.591,185.491 76.193,185.268 76.929 C 185.045 77.665,184.714 78.324,184.532 78.394 C 184.331 78.471,184.247 78.696,184.318 78.968 C 184.382 79.214,184.364 79.415,184.277 79.415 C 184.191 79.415,183.925 79.997,183.686 80.709 C 183.447 81.420,183.123 82.136,182.965 82.300 C 182.713 82.559,182.569 83.226,182.651 83.746 C 182.665 83.839,182.587 83.915,182.476 83.915 C 182.366 83.915,182.094 84.522,181.871 85.264 C 181.649 86.007,181.374 86.614,181.261 86.614 C 181.147 86.614,181.112 86.766,181.184 86.952 C 181.255 87.137,181.215 87.289,181.095 87.289 C 180.975 87.289,180.894 87.365,180.914 87.458 C 180.934 87.551,180.732 88.116,180.464 88.714 C 180.197 89.312,179.978 89.945,179.978 90.120 C 179.978 90.295,179.865 90.439,179.728 90.439 C 179.591 90.439,179.538 90.591,179.609 90.776 C 179.680 90.962,179.634 91.114,179.507 91.114 C 179.380 91.114,179.343 91.222,179.424 91.354 C 179.506 91.486,179.424 91.713,179.241 91.860 C 179.059 92.006,178.726 92.759,178.501 93.532 C 178.201 94.566,177.988 94.938,177.698 94.938 C 177.482 94.938,177.245 95.035,177.171 95.153 C 177.098 95.272,176.890 95.311,176.708 95.242 C 176.527 95.172,176.378 95.234,176.378 95.379 C 176.378 95.541,176.204 95.588,175.928 95.501 C 175.673 95.420,175.478 95.460,175.478 95.594 C 175.478 95.723,175.225 95.893,174.916 95.971 C 174.412 96.097,174.353 96.226,174.353 97.212 L 174.353 98.313 179.865 98.313 L 185.377 98.313 185.377 97.198 C 185.377 96.102,185.363 96.081,184.589 95.936 C 184.156 95.854,183.802 95.701,183.802 95.595 C 183.802 95.489,183.650 95.460,183.465 95.532 C 183.279 95.603,183.127 95.558,183.127 95.432 C 183.127 95.306,182.723 95.134,182.228 95.051 C 181.198 94.877,180.926 94.609,181.470 94.305 C 181.689 94.182,181.791 93.948,181.712 93.743 C 181.638 93.550,181.682 93.357,181.811 93.315 C 181.939 93.272,182.060 92.962,182.079 92.625 C 182.099 92.289,182.178 92.014,182.254 92.014 C 182.331 92.014,182.521 91.558,182.677 91.001 C 182.833 90.444,183.046 89.989,183.149 89.989 C 183.253 89.989,183.273 89.819,183.193 89.612 C 183.082 89.322,183.139 89.270,183.444 89.387 C 183.661 89.471,185.805 89.539,188.207 89.539 C 191.941 89.539,192.576 89.588,192.576 89.876 C 192.576 90.062,192.668 90.214,192.780 90.214 C 192.892 90.214,192.935 90.401,192.875 90.630 C 192.815 90.859,192.917 91.197,193.101 91.382 C 193.285 91.566,193.562 92.138,193.717 92.653 C 193.871 93.167,194.088 93.588,194.200 93.588 C 194.311 93.588,194.351 93.671,194.288 93.773 C 194.225 93.875,194.304 94.208,194.462 94.514 C 194.815 95.195,194.460 95.652,193.726 95.460 C 193.464 95.391,193.251 95.442,193.251 95.573 C 193.251 95.704,192.795 95.879,192.238 95.962 L 191.226 96.114 191.226 97.213 L 191.226 98.313 197.413 98.313 L 203.600 98.313 203.600 97.208 L 203.600 96.103 202.700 95.951 C 202.205 95.867,201.800 95.694,201.800 95.567 C 201.800 95.440,201.590 95.391,201.333 95.458 C 200.819 95.592,199.891 94.846,200.118 94.480 C 200.191 94.361,200.162 94.263,200.053 94.263 C 199.944 94.263,199.616 93.504,199.325 92.576 C 199.034 91.648,198.707 90.889,198.597 90.889 C 198.488 90.889,198.456 90.795,198.527 90.681 C 198.598 90.567,198.460 90.136,198.221 89.725 C 197.982 89.313,197.673 88.546,197.535 88.020 C 197.396 87.494,197.189 87.064,197.074 87.064 C 196.959 87.064,196.923 86.912,196.994 86.727 C 197.065 86.541,197.001 86.389,196.850 86.389 C 196.700 86.389,196.635 86.238,196.707 86.052 C 196.778 85.866,196.756 85.714,196.658 85.714 C 196.560 85.714,196.242 84.955,195.951 84.027 C 195.659 83.099,195.341 82.340,195.243 82.340 C 195.145 82.340,195.123 82.188,195.194 82.002 C 195.265 81.817,195.220 81.665,195.093 81.665 C 194.965 81.665,194.791 81.336,194.705 80.934 C 194.619 80.531,194.473 80.101,194.381 79.978 C 194.288 79.854,194.146 79.474,194.065 79.134 C 193.984 78.794,193.821 78.515,193.704 78.515 C 193.586 78.515,193.548 78.363,193.619 78.178 C 193.691 77.992,193.626 77.840,193.476 77.840 C 193.325 77.840,193.261 77.689,193.332 77.503 C 193.403 77.317,193.381 77.165,193.283 77.165 C 193.185 77.165,192.867 76.406,192.576 75.478 C 192.285 74.550,191.953 73.791,191.837 73.791 C 191.722 73.791,191.686 73.639,191.757 73.453 C 191.829 73.268,191.801 73.116,191.696 73.116 C 191.591 73.116,191.390 72.660,191.250 72.103 L 190.995 71.091 189.210 71.091 L 187.425 71.091 187.046 72.441 M207.424 72.190 L 207.424 73.290 208.436 73.442 C 208.993 73.525,209.449 73.700,209.449 73.831 C 209.449 73.961,209.635 74.019,209.864 73.960 C 210.381 73.824,210.649 74.245,211.011 75.759 C 211.166 76.409,211.381 76.940,211.489 76.940 C 211.596 76.940,211.626 77.092,211.555 77.278 C 211.484 77.463,211.517 77.615,211.629 77.615 C 211.742 77.615,212.022 78.375,212.254 79.303 C 212.485 80.231,212.757 80.990,212.858 80.990 C 212.960 80.990,213.028 81.167,213.010 81.384 C 212.942 82.197,213.055 82.812,213.251 82.691 C 213.362 82.622,213.575 83.072,213.724 83.691 C 213.872 84.310,214.080 84.869,214.186 84.935 C 214.292 85.000,214.322 85.202,214.252 85.384 C 214.182 85.566,214.234 85.714,214.367 85.714 C 214.500 85.714,214.551 85.866,214.480 86.052 C 214.408 86.237,214.469 86.389,214.614 86.389 C 214.776 86.389,214.823 86.564,214.736 86.839 C 214.648 87.115,214.695 87.289,214.857 87.289 C 215.002 87.289,215.063 87.441,214.992 87.627 C 214.921 87.812,214.944 87.964,215.044 87.964 C 215.144 87.964,215.360 88.521,215.523 89.201 C 215.686 89.882,215.880 90.439,215.953 90.439 C 216.026 90.439,216.108 90.761,216.136 91.153 C 216.163 91.546,216.315 91.949,216.473 92.049 C 216.694 92.189,216.682 92.234,216.423 92.242 C 216.133 92.251,216.136 92.291,216.442 92.527 C 216.638 92.678,217.138 94.041,217.552 95.557 L 218.305 98.313 219.855 98.313 C 221.480 98.313,222.218 97.957,221.964 97.295 C 221.894 97.112,221.923 96.963,222.030 96.963 C 222.185 96.963,222.475 96.268,222.593 95.613 C 222.754 94.723,223.535 92.463,223.682 92.463 C 223.789 92.463,223.813 92.261,223.735 92.013 C 223.647 91.738,223.694 91.564,223.856 91.564 C 224.001 91.564,224.062 91.412,223.991 91.226 C 223.919 91.040,223.944 90.889,224.046 90.889 C 224.147 90.889,224.414 90.205,224.640 89.370 C 224.865 88.535,225.209 87.728,225.404 87.577 C 225.710 87.341,225.713 87.302,225.422 87.293 C 225.126 87.284,225.126 87.256,225.415 87.073 C 225.597 86.958,225.674 86.791,225.586 86.703 C 225.498 86.615,225.516 86.433,225.625 86.297 C 225.735 86.162,226.041 85.322,226.305 84.430 C 226.569 83.538,226.890 82.743,227.019 82.663 C 227.147 82.584,227.196 82.372,227.127 82.193 C 227.058 82.013,227.090 81.921,227.199 81.988 C 227.307 82.055,227.464 82.491,227.547 82.956 C 227.747 84.073,228.172 85.264,228.371 85.264 C 228.458 85.264,228.477 85.463,228.414 85.706 C 228.350 85.949,228.437 86.287,228.607 86.457 C 228.777 86.627,229.104 87.491,229.334 88.377 C 229.563 89.264,229.837 89.989,229.942 89.989 C 230.046 89.989,230.074 90.141,230.003 90.326 C 229.931 90.512,229.974 90.664,230.097 90.664 C 230.220 90.664,230.372 90.942,230.435 91.282 C 230.692 92.668,231.561 95.388,231.747 95.388 C 231.856 95.388,231.946 95.499,231.946 95.635 C 231.946 95.770,232.106 96.433,232.302 97.106 L 232.658 98.332 234.271 98.266 C 235.779 98.204,235.882 98.168,235.865 97.694 C 235.855 97.416,235.931 97.188,236.034 97.188 C 236.137 97.188,236.220 97.002,236.220 96.775 C 236.220 96.549,236.291 96.293,236.376 96.207 C 236.462 96.121,236.566 95.826,236.608 95.551 C 236.649 95.276,236.776 95.019,236.889 94.980 C 237.002 94.941,237.039 94.764,236.971 94.586 C 236.903 94.409,236.970 94.263,237.120 94.263 C 237.271 94.263,237.338 94.118,237.270 93.940 C 237.201 93.763,237.246 93.584,237.368 93.543 C 237.490 93.503,237.622 93.218,237.662 92.910 C 237.702 92.603,237.849 92.068,237.988 91.722 C 238.128 91.377,238.304 90.845,238.380 90.541 C 238.457 90.237,238.606 89.989,238.712 89.989 C 238.819 89.989,238.848 89.837,238.777 89.651 C 238.705 89.466,238.770 89.314,238.920 89.314 C 239.070 89.314,239.135 89.162,239.064 88.976 C 238.993 88.791,239.012 88.639,239.107 88.639 C 239.300 88.639,239.705 87.562,239.932 86.445 C 240.014 86.043,240.185 85.714,240.312 85.714 C 240.439 85.714,240.485 85.562,240.414 85.377 C 240.342 85.191,240.379 85.039,240.495 85.039 C 240.611 85.039,240.648 84.888,240.576 84.702 C 240.505 84.516,240.570 84.364,240.720 84.364 C 240.870 84.364,240.935 84.213,240.864 84.027 C 240.792 83.841,240.817 83.690,240.918 83.690 C 241.110 83.690,241.845 81.618,241.845 81.077 C 241.845 80.905,241.957 80.765,242.094 80.765 C 242.231 80.765,242.285 80.613,242.213 80.427 C 242.142 80.242,242.179 80.090,242.295 80.090 C 242.411 80.090,242.447 79.938,242.376 79.753 C 242.305 79.567,242.369 79.415,242.520 79.415 C 242.670 79.415,242.735 79.263,242.663 79.078 C 242.592 78.892,242.612 78.740,242.707 78.740 C 242.912 78.740,243.420 77.407,243.420 76.868 C 243.420 76.660,243.518 76.490,243.637 76.490 C 243.757 76.490,243.797 76.339,243.726 76.153 C 243.655 75.967,243.719 75.816,243.870 75.816 C 244.020 75.816,244.084 75.664,244.013 75.478 C 243.942 75.292,243.988 75.141,244.115 75.141 C 244.242 75.141,244.291 75.051,244.223 74.941 C 244.070 74.693,244.643 74.189,244.846 74.393 C 244.928 74.474,244.994 74.426,244.994 74.285 C 244.994 74.145,245.146 74.088,245.332 74.159 C 245.517 74.231,245.669 74.170,245.669 74.025 C 245.669 73.863,245.844 73.816,246.119 73.903 C 246.374 73.984,246.569 73.944,246.569 73.810 C 246.569 73.681,246.797 73.517,247.075 73.447 C 247.515 73.337,247.582 73.174,247.582 72.206 L 247.582 71.091 242.351 71.091 L 237.120 71.091 237.120 72.206 C 237.120 73.302,237.134 73.323,237.908 73.468 C 238.341 73.549,238.695 73.713,238.695 73.831 C 238.695 73.949,238.898 73.982,239.145 73.903 C 239.411 73.819,239.595 73.863,239.595 74.010 C 239.595 74.148,239.722 74.245,239.876 74.226 C 240.427 74.159,241.194 74.529,241.086 74.809 C 241.026 74.966,240.852 75.509,240.700 76.017 C 240.548 76.525,240.328 76.940,240.210 76.940 C 240.093 76.940,240.055 77.092,240.126 77.278 C 240.198 77.463,240.179 77.615,240.084 77.615 C 239.920 77.615,239.759 78.083,239.008 80.740 C 238.819 81.407,238.516 82.101,238.335 82.282 C 238.149 82.468,238.064 82.798,238.140 83.038 C 238.221 83.291,238.168 83.465,238.011 83.465 C 237.866 83.465,237.805 83.616,237.877 83.802 C 237.948 83.988,237.927 84.139,237.831 84.139 C 237.734 84.139,237.526 84.646,237.367 85.264 C 237.209 85.883,236.990 86.389,236.882 86.389 C 236.773 86.389,236.743 86.541,236.814 86.727 C 236.885 86.912,236.821 87.064,236.670 87.064 C 236.520 87.064,236.456 87.216,236.527 87.402 C 236.598 87.587,236.579 87.739,236.485 87.739 C 236.391 87.739,236.190 88.202,236.039 88.767 C 235.623 90.323,235.120 90.050,234.560 87.964 C 234.311 87.036,234.031 86.245,233.939 86.206 C 233.847 86.167,233.827 85.990,233.895 85.812 C 233.963 85.635,233.900 85.489,233.755 85.489 C 233.593 85.489,233.546 85.315,233.633 85.039 C 233.712 84.792,233.680 84.589,233.564 84.589 C 233.447 84.589,233.167 83.881,232.943 83.015 C 232.718 82.148,232.451 81.440,232.348 81.440 C 232.246 81.440,232.222 81.201,232.295 80.910 C 232.379 80.577,232.297 80.248,232.074 80.026 C 231.880 79.831,231.602 79.158,231.457 78.531 C 231.312 77.904,231.113 77.390,231.015 77.390 C 230.916 77.390,230.894 77.238,230.965 77.053 C 231.036 76.867,230.992 76.715,230.866 76.715 C 230.741 76.715,230.691 76.513,230.756 76.265 C 230.821 76.018,230.764 75.816,230.629 75.816 C 230.495 75.816,230.444 75.664,230.515 75.478 C 230.586 75.292,230.522 75.141,230.371 75.141 C 230.221 75.141,230.154 74.995,230.222 74.818 C 230.290 74.640,230.232 74.457,230.094 74.411 C 229.590 74.243,230.178 73.790,230.722 73.927 C 231.042 74.007,231.271 73.966,231.271 73.829 C 231.271 73.699,231.727 73.525,232.283 73.442 L 233.296 73.290 233.296 72.190 L 233.296 71.091 227.672 71.091 L 222.047 71.091 222.047 72.191 C 222.047 73.270,222.062 73.294,222.835 73.438 C 223.268 73.520,223.622 73.675,223.622 73.783 C 223.622 73.891,223.933 74.048,224.313 74.132 C 224.771 74.232,224.964 74.387,224.885 74.592 C 224.820 74.762,224.859 74.958,224.972 75.028 C 225.085 75.098,225.120 75.304,225.050 75.485 C 224.981 75.667,225.026 75.816,225.150 75.816 C 225.609 75.816,225.895 77.882,225.581 78.917 C 225.420 79.447,225.202 79.802,225.097 79.704 C 224.992 79.607,224.962 79.755,225.030 80.034 C 225.099 80.312,225.057 80.540,224.938 80.540 C 224.818 80.540,224.790 80.652,224.875 80.790 C 224.960 80.928,224.930 81.105,224.809 81.184 C 224.688 81.263,224.356 82.036,224.072 82.902 C 223.788 83.768,223.464 84.537,223.352 84.610 C 223.240 84.683,223.117 84.987,223.078 85.285 C 223.040 85.583,222.876 86.130,222.715 86.502 C 222.554 86.873,222.410 87.227,222.395 87.289 C 222.145 88.312,221.969 88.749,221.697 89.022 C 221.516 89.202,221.426 89.443,221.496 89.557 C 221.566 89.671,221.466 89.764,221.273 89.764 C 221.080 89.764,220.922 89.612,220.922 89.426 C 220.922 89.241,220.824 89.089,220.704 89.089 C 220.585 89.089,220.545 88.937,220.616 88.751 C 220.687 88.566,220.623 88.414,220.472 88.414 C 220.310 88.414,220.258 88.262,220.344 88.038 C 220.423 87.832,220.398 87.604,220.288 87.532 C 220.179 87.460,219.824 86.397,219.501 85.170 C 219.178 83.943,218.805 82.872,218.673 82.790 C 218.541 82.708,218.497 82.472,218.577 82.265 C 218.656 82.059,218.630 81.890,218.519 81.890 C 218.408 81.890,218.072 80.979,217.773 79.865 C 217.474 78.751,217.152 77.840,217.058 77.840 C 216.964 77.840,216.945 77.688,217.017 77.503 C 217.088 77.317,217.034 77.165,216.897 77.165 C 216.760 77.165,216.646 76.988,216.645 76.772 C 216.643 76.555,216.495 75.973,216.317 75.478 C 215.818 74.094,215.866 73.755,216.535 73.923 C 216.859 74.004,217.098 73.967,217.098 73.836 C 217.098 73.711,217.604 73.538,218.223 73.453 L 219.348 73.299 219.348 72.195 L 219.348 71.091 213.386 71.091 L 207.424 71.091 207.424 72.190 M251.519 72.195 L 251.519 73.299 252.643 73.453 C 253.262 73.538,253.768 73.711,253.768 73.836 C 253.768 73.961,253.920 74.006,254.106 73.934 C 254.586 73.750,255.110 73.999,254.976 74.349 C 254.914 74.512,255.047 74.832,255.272 75.061 C 255.497 75.291,255.874 75.858,256.110 76.322 C 256.346 76.786,256.629 77.165,256.738 77.165 C 256.848 77.165,256.921 77.292,256.901 77.447 C 256.829 78.005,256.922 78.314,257.125 78.189 C 257.238 78.119,257.451 78.423,257.597 78.866 C 257.743 79.309,257.983 79.718,258.130 79.774 C 258.278 79.831,258.412 80.070,258.430 80.306 C 258.448 80.542,258.646 80.928,258.871 81.164 C 259.365 81.684,260.164 83.061,260.108 83.296 C 260.086 83.389,260.172 83.465,260.300 83.465 C 260.429 83.465,260.729 83.920,260.967 84.477 C 261.206 85.034,261.512 85.489,261.648 85.489 C 261.783 85.489,261.831 85.591,261.755 85.714 C 261.678 85.838,261.731 85.939,261.873 85.939 C 262.014 85.939,262.087 86.066,262.035 86.220 C 261.983 86.375,262.101 86.620,262.297 86.764 C 262.595 86.983,262.666 87.685,262.725 90.984 C 262.804 95.351,262.692 95.772,261.539 95.483 C 261.214 95.401,260.967 95.436,260.967 95.563 C 260.967 95.686,260.512 95.855,259.955 95.939 L 258.943 96.091 258.943 97.202 L 258.943 98.313 265.242 98.313 L 271.541 98.313 271.541 97.202 L 271.541 96.091 270.529 95.939 C 269.972 95.855,269.516 95.685,269.516 95.561 C 269.516 95.437,269.263 95.384,268.954 95.443 C 268.645 95.502,268.391 95.467,268.391 95.364 C 268.391 95.261,268.265 95.226,268.110 95.285 C 267.667 95.456,267.838 87.651,268.298 86.665 C 268.488 86.260,268.738 85.988,268.854 86.060 C 269.040 86.174,269.171 85.704,269.093 85.208 C 269.078 85.115,269.171 85.039,269.299 85.039 C 269.427 85.039,269.728 84.584,269.966 84.027 C 270.205 83.470,270.511 83.015,270.646 83.015 C 270.782 83.015,270.831 82.915,270.755 82.793 C 270.680 82.670,270.826 82.348,271.080 82.075 C 271.333 81.803,271.541 81.447,271.541 81.285 C 271.541 81.123,271.642 80.990,271.766 80.990 C 271.890 80.990,271.991 80.838,271.991 80.652 C 271.991 80.467,272.098 80.315,272.229 80.315 C 272.360 80.315,272.405 80.214,272.328 80.090 C 272.252 79.966,272.280 79.865,272.391 79.865 C 272.502 79.865,272.886 79.284,273.246 78.573 C 273.605 77.863,274.077 77.104,274.295 76.886 C 274.513 76.668,274.691 76.339,274.691 76.153 C 274.691 75.967,274.772 75.816,274.870 75.816 C 274.969 75.816,275.177 75.466,275.331 75.039 C 275.522 74.511,275.716 74.303,275.939 74.388 C 276.118 74.457,276.265 74.391,276.265 74.241 C 276.265 74.090,276.417 74.026,276.603 74.097 C 276.789 74.168,276.940 74.132,276.940 74.016 C 276.940 73.900,277.092 73.863,277.278 73.934 C 277.463 74.006,277.615 73.956,277.615 73.825 C 277.615 73.694,277.970 73.520,278.403 73.438 C 279.175 73.294,279.190 73.270,279.190 72.191 L 279.190 71.091 273.666 71.091 L 268.142 71.091 268.210 72.152 C 268.275 73.153,268.324 73.226,269.066 73.432 C 269.499 73.552,269.904 73.707,269.966 73.777 C 270.028 73.846,270.180 73.911,270.304 73.920 C 271.393 74.002,272.753 75.589,271.735 75.590 C 271.655 75.590,271.376 76.046,271.115 76.603 C 270.853 77.160,270.538 77.615,270.415 77.615 C 270.292 77.615,270.209 77.691,270.232 77.784 C 270.288 78.017,269.490 79.394,269.002 79.908 C 268.781 80.141,268.660 80.429,268.734 80.548 C 268.808 80.667,268.764 80.765,268.637 80.765 C 268.509 80.765,268.124 81.347,267.781 82.058 C 266.836 84.016,266.314 84.406,266.049 83.352 C 265.972 83.043,265.803 82.790,265.674 82.790 C 265.546 82.790,265.503 82.688,265.579 82.565 C 265.656 82.441,265.611 82.340,265.480 82.340 C 265.349 82.340,265.242 82.207,265.242 82.045 C 265.242 81.882,265.057 81.551,264.831 81.309 C 264.605 81.066,264.460 80.750,264.508 80.605 C 264.556 80.461,264.404 80.152,264.170 79.918 C 263.936 79.684,263.516 79.020,263.236 78.442 C 262.956 77.863,262.638 77.390,262.529 77.390 C 262.420 77.390,262.386 77.249,262.452 77.076 C 262.518 76.903,262.374 76.574,262.131 76.345 C 261.888 76.116,261.532 75.548,261.340 75.084 C 261.148 74.620,260.878 74.241,260.741 74.241 C 260.603 74.241,260.556 74.135,260.636 74.007 C 260.715 73.878,260.974 73.834,261.211 73.909 C 261.448 73.985,261.642 73.950,261.642 73.831 C 261.642 73.713,262.098 73.549,262.655 73.465 L 263.667 73.313 263.667 72.202 L 263.667 71.091 257.593 71.091 L 251.519 71.091 251.519 72.195 M284.858 72.160 L 284.927 73.228 285.939 73.436 C 286.496 73.550,287.017 73.741,287.096 73.860 C 287.176 73.979,287.505 74.010,287.827 73.929 L 288.414 73.782 288.414 84.342 C 288.414 95.952,288.439 95.652,287.494 95.463 C 287.116 95.387,286.839 95.428,286.839 95.559 C 286.839 95.685,286.384 95.855,285.827 95.939 L 284.814 96.091 284.814 97.202 L 284.814 98.313 296.063 98.313 L 307.312 98.313 307.312 97.750 C 307.312 97.441,307.424 97.188,307.562 97.188 C 307.725 97.188,307.761 96.917,307.664 96.400 C 307.564 95.869,307.601 95.613,307.776 95.613 C 307.952 95.613,307.989 95.357,307.889 94.826 C 307.794 94.319,307.828 94.038,307.985 94.038 C 308.120 94.038,308.223 93.660,308.215 93.195 C 308.207 92.731,308.265 92.022,308.344 91.620 L 308.488 90.889 307.330 90.889 C 306.509 90.889,306.135 90.987,306.043 91.226 C 305.972 91.412,305.782 91.564,305.622 91.564 C 305.462 91.564,305.228 91.859,305.102 92.221 C 304.976 92.582,304.659 93.092,304.397 93.354 C 304.135 93.615,303.974 93.917,304.040 94.023 C 304.106 94.129,304.008 94.274,303.823 94.345 C 303.638 94.416,303.487 94.618,303.487 94.795 C 303.487 95.327,302.956 95.388,298.294 95.388 L 293.813 95.388 293.813 90.439 L 293.813 85.489 296.197 85.489 C 298.391 85.489,298.589 85.525,298.697 85.939 C 298.762 86.187,298.905 86.389,299.014 86.389 C 299.123 86.389,299.213 86.494,299.213 86.621 C 299.213 86.749,299.380 87.230,299.585 87.690 C 299.790 88.150,299.941 88.602,299.922 88.695 C 299.881 88.897,301.053 88.920,301.556 88.727 C 301.864 88.609,301.912 87.999,301.912 84.228 L 301.912 79.865 300.945 79.865 C 300.045 79.865,299.958 79.919,299.694 80.650 C 299.538 81.082,299.258 81.587,299.073 81.773 C 298.887 81.958,298.720 82.308,298.702 82.550 C 298.658 83.127,298.014 83.271,295.699 83.220 L 293.813 83.178 293.813 78.597 L 293.813 74.016 297.695 74.016 L 301.576 74.016 302.194 74.670 C 302.534 75.031,302.812 75.435,302.812 75.570 C 302.812 75.705,302.913 75.816,303.037 75.816 C 303.161 75.816,303.262 75.971,303.262 76.160 C 303.262 76.350,303.408 76.560,303.585 76.629 C 303.763 76.697,303.854 76.896,303.786 77.071 C 303.712 77.265,303.806 77.390,304.025 77.390 C 304.224 77.390,304.387 77.492,304.387 77.615 C 304.387 78.129,306.352 77.867,306.495 77.334 C 306.703 76.556,306.662 75.633,306.411 75.478 C 306.277 75.395,306.243 74.857,306.326 74.145 C 306.414 73.400,306.377 72.896,306.229 72.805 C 306.093 72.721,306.046 72.322,306.118 71.874 L 306.246 71.091 295.518 71.091 L 284.790 71.091 284.858 72.160 M314.736 72.184 L 314.736 73.289 315.973 73.444 C 316.654 73.529,317.210 73.703,317.210 73.831 C 317.210 73.965,317.440 74.007,317.749 73.929 C 318.563 73.725,318.560 73.691,318.560 84.736 C 318.560 95.679,318.553 95.746,317.465 95.461 C 317.201 95.392,316.985 95.436,316.985 95.558 C 316.985 95.680,316.479 95.847,315.861 95.929 L 314.736 96.078 314.736 97.196 L 314.736 98.313 321.035 98.313 L 327.334 98.313 327.334 97.202 L 327.334 96.091 326.322 95.939 C 325.765 95.855,325.309 95.685,325.309 95.561 C 325.309 95.437,325.056 95.384,324.747 95.443 C 324.438 95.502,324.184 95.457,324.184 95.344 C 324.184 95.230,324.083 95.199,323.960 95.276 C 323.812 95.367,323.735 93.824,323.735 90.813 C 323.735 86.825,323.782 86.194,324.090 86.076 C 324.587 85.885,325.309 85.905,325.309 86.109 C 325.309 86.203,325.600 86.408,325.955 86.565 C 326.310 86.722,326.816 87.076,327.078 87.351 C 328.250 88.581,328.627 89.071,328.498 89.200 C 328.422 89.276,328.508 89.430,328.690 89.543 C 328.872 89.655,329.021 89.856,329.021 89.989 C 329.021 90.122,329.123 90.302,329.246 90.391 C 329.370 90.479,329.664 90.931,329.900 91.395 C 330.136 91.859,330.426 92.238,330.543 92.238 C 330.661 92.238,330.704 92.375,330.640 92.543 C 330.576 92.710,330.717 93.013,330.953 93.216 C 331.190 93.418,331.384 93.737,331.384 93.924 C 331.384 94.110,331.485 94.263,331.609 94.263 C 331.732 94.263,331.834 94.418,331.834 94.608 C 331.834 94.797,331.979 95.008,332.157 95.076 C 332.335 95.145,332.423 95.350,332.353 95.533 C 332.273 95.740,332.389 95.908,332.661 95.979 C 332.901 96.042,333.286 96.444,333.518 96.874 C 333.764 97.331,334.061 97.608,334.232 97.542 C 334.394 97.480,334.633 97.628,334.763 97.871 C 335.088 98.479,341.140 98.558,341.371 97.957 C 341.753 96.959,341.524 96.102,340.832 95.951 C 340.461 95.869,340.157 95.703,340.157 95.582 C 340.157 95.461,340.059 95.423,339.938 95.497 C 339.817 95.572,339.386 95.333,338.981 94.965 C 338.577 94.598,338.036 94.112,337.780 93.887 C 337.524 93.661,337.248 93.299,337.168 93.082 C 337.088 92.866,336.912 92.688,336.777 92.688 C 336.642 92.688,336.590 92.594,336.661 92.479 C 336.732 92.364,336.535 91.995,336.224 91.659 C 335.913 91.323,335.658 90.957,335.658 90.846 C 335.658 90.736,335.459 90.431,335.216 90.170 C 334.973 89.909,334.823 89.616,334.883 89.519 C 334.943 89.421,334.852 89.259,334.681 89.159 C 334.509 89.059,334.201 88.647,333.995 88.245 C 333.790 87.843,333.526 87.514,333.410 87.514 C 333.293 87.514,333.250 87.378,333.314 87.211 C 333.430 86.908,332.082 85.714,331.624 85.714 C 331.256 85.714,331.339 85.039,331.721 84.920 C 331.907 84.862,332.236 84.750,332.452 84.671 C 332.669 84.592,333.032 84.507,333.260 84.482 C 333.488 84.457,333.765 84.294,333.875 84.119 C 333.986 83.945,334.078 83.882,334.080 83.980 C 334.084 84.173,334.457 83.902,335.448 82.986 C 335.800 82.661,336.157 82.458,336.241 82.536 C 336.326 82.614,336.347 82.525,336.288 82.340 C 336.229 82.154,336.319 81.900,336.488 81.776 C 337.569 80.979,337.685 76.075,336.647 75.037 C 336.470 74.860,336.351 74.633,336.383 74.534 C 336.488 74.204,334.793 72.708,333.982 72.414 C 333.543 72.256,333.183 72.034,333.183 71.922 C 333.183 71.810,333.038 71.774,332.860 71.842 C 332.683 71.910,332.505 71.869,332.466 71.751 C 332.330 71.344,330.344 71.224,322.553 71.152 L 314.736 71.080 314.736 72.184 M330.390 74.587 C 332.099 75.865,332.558 78.643,331.413 80.787 C 330.703 82.115,328.896 83.573,328.189 83.388 C 327.966 83.329,327.784 83.377,327.784 83.494 C 327.784 83.617,326.904 83.679,325.703 83.642 L 323.622 83.577 323.561 79.084 C 323.527 76.613,323.540 74.487,323.589 74.360 C 323.772 73.888,329.720 74.086,330.390 74.587 M188.967 79.875 C 189.351 80.871,189.605 81.782,189.532 81.900 C 189.459 82.018,189.499 82.115,189.621 82.115 C 189.840 82.115,190.461 83.648,190.372 83.971 C 190.347 84.064,190.411 84.139,190.516 84.139 C 190.620 84.139,190.829 84.555,190.982 85.063 C 191.134 85.571,191.312 86.127,191.379 86.300 C 191.479 86.561,190.898 86.614,187.973 86.614 L 184.447 86.614 184.598 86.108 C 184.895 85.113,187.484 78.622,187.693 78.346 C 188.083 77.833,188.263 78.050,188.967 79.875 M50.365 81.131 C 48.806 82.132,48.931 78.764,48.931 119.685 L 48.931 156.468 49.438 157.282 C 49.821 157.899,50.190 158.166,50.956 158.380 L 51.969 158.664 51.969 177.619 L 51.969 196.574 51.350 196.969 C 51.010 197.187,50.579 197.528,50.394 197.726 C 49.986 198.163,49.875 200.225,50.260 200.225 C 50.402 200.225,50.692 200.427,50.904 200.675 C 51.453 201.316,53.267 201.304,53.965 200.653 C 55.133 199.565,54.993 197.469,53.723 197.026 L 53.091 196.806 53.148 177.537 C 53.182 166.428,53.290 158.300,53.406 158.343 C 53.516 158.385,53.668 158.317,53.745 158.192 C 53.822 158.068,54.036 157.933,54.219 157.892 C 55.373 157.636,55.327 159.197,55.335 119.824 C 55.343 81.816,55.352 82.149,54.392 81.281 C 53.767 80.716,51.163 80.618,50.365 81.131 M68.022 81.164 C 67.756 81.377,67.471 81.780,67.388 82.058 C 67.304 82.337,67.145 82.565,67.034 82.565 C 66.922 82.565,66.889 82.717,66.960 82.902 C 67.031 83.088,66.978 83.240,66.841 83.240 C 66.660 83.240,66.592 93.160,66.592 119.573 C 66.592 144.994,66.663 155.906,66.830 155.906 C 66.961 155.906,66.999 156.018,66.914 156.156 C 66.829 156.293,66.848 156.470,66.957 156.549 C 67.065 156.628,67.324 156.997,67.533 157.368 C 67.911 158.042,68.157 158.240,68.898 158.469 C 69.268 158.584,69.291 159.517,69.291 173.907 L 69.291 189.223 68.765 189.718 C 66.791 191.578,67.499 194.151,69.984 194.151 C 70.590 194.151,71.979 193.409,71.985 193.082 C 71.989 192.927,72.070 192.801,72.166 192.801 C 73.028 192.801,72.004 189.906,71.134 189.884 C 70.967 189.880,70.910 189.762,71.002 189.613 C 71.112 189.436,71.042 189.397,70.791 189.494 C 70.444 189.627,70.416 188.501,70.416 174.121 C 70.416 160.479,70.457 158.605,70.754 158.605 C 70.939 158.605,71.091 158.499,71.091 158.370 C 71.091 158.241,71.218 158.161,71.372 158.191 C 71.527 158.222,72.008 157.909,72.441 157.496 L 73.228 156.745 73.228 119.617 C 73.228 91.047,73.166 82.469,72.960 82.400 C 72.812 82.351,72.745 82.169,72.812 81.997 C 73.201 80.982,69.126 80.273,68.022 81.164 M85.803 81.193 C 85.288 81.507,85.037 81.888,84.847 82.641 C 84.504 84.004,84.475 155.809,84.818 156.020 C 84.944 156.098,84.989 156.256,84.918 156.371 C 84.728 156.677,86.209 158.371,86.670 158.376 C 87.040 158.380,87.064 159.087,87.064 170.041 L 87.064 181.701 86.502 182.002 C 86.192 182.168,85.939 182.438,85.939 182.603 C 85.939 182.767,85.832 182.902,85.701 182.902 C 85.570 182.902,85.525 183.003,85.602 183.127 C 85.678 183.251,85.634 183.352,85.503 183.352 C 85.172 183.352,85.203 184.421,85.546 184.840 C 85.905 185.280,86.486 185.861,86.926 186.220 C 87.337 186.556,88.729 186.605,88.526 186.277 C 88.450 186.153,88.521 186.052,88.684 186.052 C 89.644 186.052,90.693 183.906,90.048 183.261 C 89.957 183.170,89.881 182.925,89.879 182.718 C 89.878 182.509,89.549 182.196,89.145 182.018 L 88.414 181.696 88.414 170.155 L 88.414 158.614 89.033 158.459 C 89.663 158.302,90.928 157.145,90.709 156.926 C 90.643 156.860,90.718 156.805,90.875 156.805 C 91.035 156.805,91.106 156.659,91.035 156.475 C 90.965 156.294,91.005 156.085,91.123 156.012 C 91.379 155.854,91.428 83.404,91.173 83.149 C 91.082 83.058,90.996 82.863,90.982 82.718 C 90.968 82.572,90.941 82.300,90.921 82.115 C 90.792 80.899,87.312 80.272,85.803 81.193 M158.493 123.219 C 157.874 123.263,157.216 123.361,157.030 123.438 C 156.845 123.516,156.516 123.557,156.299 123.530 C 156.083 123.503,155.906 123.575,155.906 123.689 C 155.906 123.804,155.652 123.849,155.343 123.790 C 155.001 123.724,154.781 123.786,154.781 123.947 C 154.781 124.092,154.668 124.141,154.531 124.056 C 154.393 123.971,154.216 123.994,154.137 124.107 C 154.058 124.220,153.258 124.554,152.359 124.850 C 151.460 125.146,150.404 125.674,150.012 126.023 C 149.621 126.373,149.170 126.659,149.011 126.659 C 148.852 126.659,148.612 126.864,148.478 127.115 C 148.344 127.366,148.154 127.522,148.055 127.461 C 147.843 127.330,145.557 129.654,145.557 130.002 C 145.557 130.134,145.351 130.353,145.101 130.487 C 144.850 130.621,144.704 130.828,144.777 130.947 C 144.851 131.065,144.753 131.222,144.560 131.296 C 144.367 131.370,144.266 131.521,144.334 131.632 C 144.402 131.743,144.356 131.834,144.231 131.834 C 144.012 131.834,143.082 133.691,143.082 134.128 C 143.082 134.245,142.927 134.496,142.737 134.685 C 142.539 134.884,142.450 135.212,142.527 135.457 C 142.602 135.691,142.575 135.883,142.469 135.883 C 141.486 135.883,141.239 147.336,142.209 147.936 C 142.322 148.006,142.360 148.152,142.292 148.260 C 142.129 148.524,142.636 150.506,142.866 150.506 C 142.965 150.506,143.216 151.038,143.424 151.687 C 143.631 152.337,143.973 153.020,144.184 153.206 C 144.394 153.391,144.641 153.695,144.733 153.881 C 145.194 154.814,145.565 155.283,146.692 156.354 C 148.632 158.198,148.727 158.271,149.063 158.202 C 149.238 158.165,149.381 158.225,149.381 158.335 C 149.381 158.445,149.759 158.727,150.222 158.963 C 150.684 159.199,151.183 159.505,151.331 159.642 C 151.674 159.961,155.217 160.855,156.136 160.855 C 156.543 160.855,156.774 160.948,156.693 161.080 C 156.603 161.226,157.628 161.305,159.604 161.305 C 161.488 161.305,162.655 161.219,162.655 161.080 C 162.655 160.956,163.022 160.855,163.470 160.855 C 164.597 160.855,168.279 159.967,168.279 159.696 C 168.279 159.573,168.491 159.542,168.757 159.626 C 169.023 159.711,169.180 159.688,169.110 159.575 C 169.041 159.464,169.737 159.085,170.656 158.734 C 171.576 158.383,172.328 158.002,172.328 157.887 C 172.328 157.773,172.430 157.741,172.553 157.818 C 172.677 157.894,172.778 157.861,172.778 157.745 C 172.778 157.628,172.981 157.480,173.228 157.415 C 173.655 157.304,173.678 157.108,173.678 153.677 L 173.678 150.056 172.666 150.056 C 171.916 150.056,171.654 150.144,171.654 150.394 C 171.654 150.579,171.562 150.731,171.451 150.731 C 171.257 150.731,170.688 151.948,170.662 152.418 C 170.656 152.542,170.319 152.961,169.914 153.349 C 169.510 153.737,169.179 154.223,169.179 154.429 C 169.179 154.643,168.848 154.942,168.406 155.126 C 167.982 155.304,167.497 155.645,167.329 155.885 C 167.161 156.125,166.597 156.492,166.076 156.700 C 165.555 156.909,165.129 157.160,165.129 157.259 C 165.129 157.357,164.942 157.389,164.713 157.329 C 164.484 157.269,164.112 157.405,163.885 157.632 C 163.345 158.172,157.149 158.261,156.822 157.733 C 156.717 157.562,156.518 157.492,156.381 157.577 C 156.243 157.662,156.130 157.637,156.130 157.521 C 156.130 157.405,155.636 157.098,155.032 156.838 C 154.427 156.578,153.874 156.213,153.803 156.027 C 153.731 155.840,153.528 155.744,153.352 155.811 C 153.151 155.888,152.790 155.594,152.387 155.025 C 152.033 154.525,151.606 154.113,151.438 154.111 C 151.270 154.108,151.184 153.972,151.247 153.808 C 151.310 153.645,151.169 153.391,150.934 153.244 C 150.699 153.097,150.506 152.850,150.506 152.696 C 150.506 152.541,150.297 152.284,150.041 152.124 C 149.786 151.964,149.617 151.713,149.666 151.566 C 149.715 151.418,149.629 151.172,149.475 151.018 C 149.321 150.863,149.012 150.027,148.788 149.159 C 148.565 148.292,148.317 147.582,148.238 147.582 C 148.159 147.582,148.142 147.328,148.201 147.019 C 148.267 146.677,148.205 146.457,148.044 146.457 C 147.857 146.457,147.824 146.157,147.931 145.444 C 148.033 144.760,148.001 144.432,147.832 144.432 C 147.664 144.432,147.582 143.655,147.582 142.070 C 147.582 140.456,147.663 139.708,147.837 139.708 C 148.011 139.708,148.048 139.382,147.954 138.695 C 147.863 138.030,147.899 137.683,148.060 137.683 C 148.208 137.683,148.250 137.464,148.168 137.134 C 148.092 136.832,148.138 136.518,148.271 136.436 C 148.404 136.355,148.463 136.158,148.402 136.000 C 148.341 135.842,148.372 135.625,148.470 135.517 C 148.568 135.409,148.827 134.738,149.046 134.027 C 149.264 133.316,149.547 132.733,149.675 132.733 C 149.802 132.733,149.845 132.672,149.770 132.597 C 149.694 132.522,149.880 132.194,150.182 131.868 C 150.484 131.542,150.731 131.152,150.731 131.000 C 150.731 130.849,150.936 130.615,151.187 130.480 C 151.438 130.346,151.588 130.147,151.521 130.037 C 151.453 129.928,151.779 129.559,152.246 129.218 C 152.712 128.876,153.224 128.439,153.384 128.247 C 153.544 128.054,153.754 127.897,153.850 127.897 C 153.947 127.897,154.200 127.722,154.413 127.509 C 154.626 127.296,155.201 127.001,155.691 126.855 C 156.180 126.708,156.580 126.517,156.580 126.430 C 156.580 126.343,156.834 126.320,157.143 126.379 C 157.482 126.444,157.705 126.383,157.705 126.225 C 157.705 126.048,157.960 126.012,158.493 126.112 C 159.009 126.208,159.280 126.173,159.280 126.009 C 159.280 125.854,159.790 125.759,160.630 125.759 C 161.443 125.759,161.980 125.855,161.980 126.001 C 161.980 126.134,162.258 126.221,162.598 126.193 C 162.939 126.166,163.504 126.260,163.855 126.403 C 164.205 126.546,164.585 126.605,164.698 126.535 C 164.812 126.465,164.904 126.504,164.904 126.622 C 164.904 126.739,165.157 126.899,165.467 126.977 C 165.776 127.054,166.029 127.278,166.029 127.475 C 166.029 127.700,166.154 127.784,166.367 127.703 C 166.552 127.631,166.704 127.670,166.704 127.788 C 166.704 127.907,167.109 128.259,167.604 128.571 C 168.099 128.884,168.504 129.283,168.504 129.458 C 168.504 129.633,168.740 129.962,169.028 130.188 C 169.316 130.415,169.510 130.726,169.459 130.880 C 169.408 131.033,169.473 131.159,169.604 131.159 C 169.735 131.159,170.011 131.488,170.217 131.890 C 170.423 132.292,170.653 132.672,170.729 132.733 C 170.804 132.795,170.876 132.972,170.889 133.127 C 170.901 133.282,170.926 133.560,170.945 133.746 C 170.969 133.990,171.255 134.083,171.981 134.083 L 172.982 134.083 173.049 130.395 L 173.116 126.707 172.047 126.323 C 171.460 126.112,170.979 125.842,170.979 125.723 C 170.979 125.605,170.877 125.570,170.754 125.647 C 170.630 125.723,170.529 125.668,170.529 125.524 C 170.529 125.379,170.377 125.319,170.191 125.391 C 170.006 125.462,169.854 125.433,169.854 125.327 C 169.854 125.221,169.196 124.956,168.391 124.738 C 167.587 124.521,166.929 124.266,166.929 124.172 C 166.929 124.078,166.727 124.055,166.479 124.119 C 166.210 124.190,166.029 124.126,166.029 123.962 C 166.029 123.797,165.878 123.744,165.654 123.831 C 165.447 123.910,165.219 123.881,165.147 123.766 C 165.004 123.535,161.366 123.037,160.292 123.101 C 159.921 123.123,159.111 123.176,158.493 123.219 M193.026 133.324 C 192.717 133.383,192.312 133.492,192.126 133.567 C 191.940 133.643,191.662 133.684,191.507 133.659 C 191.353 133.634,191.226 133.726,191.226 133.864 C 191.226 134.007,191.044 134.056,190.800 133.978 C 190.565 133.904,190.236 133.979,190.069 134.146 C 189.901 134.313,189.194 134.719,188.497 135.048 C 187.800 135.377,187.170 135.801,187.097 135.990 C 187.025 136.178,186.820 136.333,186.641 136.333 C 186.264 136.333,185.249 137.473,185.040 138.132 C 184.961 138.380,184.755 138.583,184.581 138.583 C 184.394 138.583,184.318 138.719,184.396 138.920 C 184.467 139.106,184.412 139.258,184.274 139.258 C 184.136 139.258,183.861 139.663,183.663 140.157 C 183.465 140.652,183.202 141.057,183.079 141.057 C 182.955 141.057,182.910 141.203,182.978 141.380 C 183.046 141.558,182.985 141.742,182.842 141.790 C 182.700 141.837,182.572 142.127,182.559 142.434 C 182.545 142.741,182.458 143.116,182.365 143.266 C 181.752 144.257,182.090 151.911,182.776 152.598 C 182.927 152.749,183.009 152.998,182.958 153.152 C 182.907 153.305,182.958 153.431,183.072 153.431 C 183.187 153.431,183.418 153.848,183.586 154.359 C 183.755 154.869,184.176 155.570,184.522 155.916 C 184.868 156.262,185.152 156.614,185.152 156.696 C 185.152 157.029,185.961 157.848,186.208 157.766 C 186.353 157.718,186.576 157.873,186.704 158.112 C 186.831 158.351,187.294 158.716,187.731 158.924 C 188.169 159.131,188.526 159.394,188.526 159.508 C 188.526 159.746,192.011 160.855,192.756 160.855 C 193.028 160.855,193.251 160.933,193.251 161.028 C 193.251 161.220,198.696 161.265,198.875 161.074 C 198.937 161.009,199.595 160.831,200.337 160.680 C 201.080 160.529,201.721 160.303,201.763 160.179 C 201.804 160.054,201.929 160.008,202.039 160.076 C 202.242 160.202,203.165 159.803,203.375 159.500 C 203.436 159.411,203.968 159.120,204.556 158.853 C 205.143 158.587,205.624 158.278,205.624 158.167 C 205.624 157.900,206.950 156.580,207.217 156.580 C 207.332 156.580,207.647 156.074,207.917 155.456 C 208.187 154.837,208.497 154.331,208.604 154.331 C 208.712 154.331,208.738 154.229,208.661 154.106 C 208.585 153.982,208.626 153.881,208.754 153.881 C 208.881 153.881,208.926 153.729,208.855 153.543 C 208.784 153.358,208.849 153.206,208.999 153.206 C 209.149 153.206,209.214 153.054,209.142 152.868 C 209.071 152.683,209.097 152.531,209.200 152.531 C 209.465 152.531,209.899 150.204,209.899 148.781 C 209.899 148.121,210.000 147.582,210.124 147.582 C 210.247 147.582,210.349 147.430,210.349 147.244 C 210.349 147.058,210.263 146.907,210.157 146.907 C 210.052 146.907,209.906 146.061,209.833 145.027 C 209.696 143.088,208.652 139.392,208.302 139.609 C 208.198 139.673,208.049 139.476,207.973 139.171 C 207.896 138.865,207.691 138.560,207.516 138.494 C 207.342 138.427,207.199 138.223,207.199 138.041 C 207.199 137.653,205.636 136.113,205.239 136.110 C 205.088 136.109,204.852 135.897,204.714 135.639 C 204.576 135.381,204.407 135.226,204.339 135.294 C 204.270 135.362,203.961 135.219,203.652 134.976 C 203.342 134.732,202.951 134.533,202.782 134.533 C 202.613 134.533,202.475 134.435,202.475 134.315 C 202.475 134.195,202.323 134.156,202.137 134.227 C 201.951 134.298,201.800 134.234,201.800 134.083 C 201.800 133.933,201.648 133.868,201.462 133.940 C 201.277 134.011,201.125 133.959,201.125 133.825 C 201.125 133.691,200.927 133.632,200.686 133.696 C 200.444 133.759,200.210 133.701,200.166 133.568 C 200.083 133.319,194.130 133.116,193.026 133.324 M217.257 133.549 C 216.784 134.022,217.098 135.658,217.660 135.658 C 217.970 135.658,218.223 135.770,218.223 135.907 C 218.223 136.061,218.439 136.103,218.785 136.016 C 219.138 135.927,219.348 135.970,219.348 136.130 C 219.348 136.281,219.577 136.342,219.910 136.278 C 220.219 136.219,220.472 136.258,220.472 136.364 C 220.472 136.471,220.599 136.533,220.754 136.502 C 221.122 136.428,221.285 157.156,220.919 157.597 C 220.791 157.751,219.879 158.003,218.892 158.156 L 217.098 158.435 217.098 159.557 L 217.098 160.678 224.803 160.570 C 232.226 160.467,235.321 160.208,235.321 159.693 C 235.321 159.575,235.433 159.548,235.571 159.633 C 235.708 159.718,235.885 159.693,235.964 159.578 C 236.043 159.462,236.766 159.132,237.570 158.844 C 238.694 158.442,239.358 158.004,240.438 156.954 C 241.212 156.202,241.992 155.504,242.173 155.402 C 242.353 155.301,242.444 155.070,242.374 154.887 C 242.304 154.705,242.359 154.556,242.497 154.556 C 242.635 154.556,242.910 154.151,243.108 153.656 C 243.306 153.161,243.570 152.756,243.693 152.756 C 243.817 152.756,243.859 152.604,243.788 152.418 C 243.717 152.233,243.754 152.081,243.870 152.081 C 243.985 152.081,244.022 151.929,243.951 151.744 C 243.880 151.558,243.940 151.406,244.085 151.406 C 244.229 151.406,244.319 151.229,244.283 151.012 C 244.247 150.796,244.312 150.469,244.426 150.286 C 244.541 150.103,244.634 148.633,244.634 147.019 C 244.634 145.405,244.541 143.935,244.426 143.752 C 244.312 143.569,244.247 143.242,244.283 143.026 C 244.319 142.809,244.243 142.632,244.116 142.632 C 243.988 142.632,243.942 142.480,244.013 142.295 C 244.084 142.109,244.020 141.957,243.870 141.957 C 243.719 141.957,243.655 141.806,243.726 141.620 C 243.797 141.434,243.778 141.282,243.683 141.282 C 243.588 141.282,243.382 140.928,243.225 140.495 C 243.069 140.062,242.849 139.708,242.737 139.708 C 242.625 139.708,242.592 139.556,242.663 139.370 C 242.739 139.174,242.665 139.029,242.488 139.024 C 242.320 139.020,241.898 138.567,241.550 138.018 C 240.966 137.097,240.314 136.566,239.314 136.200 C 239.097 136.120,238.920 135.915,238.920 135.744 C 238.920 135.478,238.432 135.315,238.156 135.489 C 238.107 135.520,237.880 135.377,237.650 135.171 C 237.421 134.965,236.853 134.726,236.389 134.640 C 235.925 134.554,235.546 134.386,235.546 134.268 C 235.546 134.150,235.343 134.117,235.096 134.196 C 234.819 134.284,234.646 134.236,234.646 134.072 C 234.646 133.909,234.427 133.848,234.083 133.913 C 233.774 133.972,233.521 133.929,233.521 133.817 C 233.521 133.704,233.091 133.605,232.565 133.596 C 223.813 133.442,217.383 133.423,217.257 133.549 M252.025 133.556 C 251.336 133.837,251.689 135.658,252.432 135.658 C 252.895 135.658,253.067 135.743,252.959 135.918 C 252.844 136.104,253.001 136.138,253.508 136.036 C 253.958 135.946,254.218 135.984,254.218 136.140 C 254.218 136.280,254.459 136.339,254.781 136.278 C 255.090 136.219,255.343 136.264,255.343 136.377 C 255.343 136.491,255.445 136.521,255.570 136.444 C 255.722 136.350,255.778 139.862,255.739 147.059 L 255.681 157.814 253.712 158.140 L 251.744 158.465 251.744 159.548 L 251.744 160.630 263.233 160.630 L 274.723 160.630 274.657 160.124 C 274.621 159.845,274.651 159.516,274.724 159.393 C 274.796 159.269,274.984 158.029,275.140 156.637 C 275.297 155.245,275.513 154.106,275.621 154.106 C 275.728 154.106,275.816 153.903,275.816 153.656 C 275.816 152.732,273.257 153.017,272.793 153.993 C 272.588 154.426,272.317 154.781,272.192 154.781 C 272.067 154.781,272.020 154.871,272.089 154.982 C 272.157 155.093,272.064 155.241,271.881 155.311 C 271.698 155.381,271.603 155.581,271.670 155.755 C 271.737 155.930,271.634 156.133,271.442 156.207 C 271.249 156.281,271.091 156.478,271.091 156.645 C 271.091 157.734,270.214 157.930,265.353 157.930 L 260.742 157.930 260.742 152.994 L 260.742 148.059 263.311 147.989 L 265.880 147.919 266.132 148.763 C 266.271 149.227,266.469 149.606,266.573 149.606 C 266.676 149.606,266.760 149.854,266.760 150.157 C 266.760 150.902,267.317 151.406,268.142 151.406 L 268.824 151.406 268.889 146.794 C 268.948 142.581,268.882 141.796,268.516 142.387 C 268.381 142.607,267.821 142.587,267.589 142.354 C 267.360 142.126,266.817 142.427,266.817 142.783 C 266.817 142.964,266.602 143.611,266.339 144.222 L 265.861 145.332 263.302 145.332 L 260.742 145.332 260.742 140.842 L 260.742 136.352 264.905 136.286 C 268.120 136.235,269.067 136.284,269.067 136.502 C 269.066 136.656,269.158 136.783,269.269 136.783 C 269.381 136.783,269.578 137.087,269.708 137.458 C 269.837 137.829,270.055 138.133,270.193 138.133 C 270.330 138.133,270.387 138.223,270.318 138.334 C 270.250 138.445,270.345 138.594,270.530 138.665 C 270.715 138.735,270.866 138.949,270.866 139.138 C 270.866 139.328,270.967 139.483,271.091 139.483 C 271.215 139.483,271.316 139.634,271.316 139.820 C 271.316 140.079,271.604 140.157,272.553 140.157 C 273.992 140.157,273.891 140.568,273.493 136.333 L 273.228 133.521 262.767 133.481 C 257.013 133.459,252.179 133.493,252.025 133.556 M199.121 136.381 C 203.159 138.251,204.582 142.021,204.301 150.102 C 204.198 153.083,201.537 157.089,199.223 157.749 C 198.722 157.892,198.211 158.084,198.088 158.175 C 197.191 158.836,193.312 158.123,191.863 157.030 C 190.443 155.960,188.486 153.396,188.828 153.055 C 188.898 152.985,188.817 152.790,188.649 152.622 C 187.813 151.785,187.518 145.801,188.175 142.987 C 189.512 137.255,194.504 134.243,199.121 136.381 M233.240 137.124 C 233.765 137.345,234.196 137.609,234.196 137.710 C 234.196 137.811,234.348 137.835,234.533 137.764 C 234.747 137.682,234.871 137.767,234.871 137.996 C 234.871 138.195,235.015 138.358,235.192 138.358 C 235.368 138.358,235.712 138.611,235.955 138.920 C 236.199 139.229,236.487 139.483,236.595 139.483 C 236.704 139.483,236.984 139.837,237.217 140.270 C 237.450 140.703,237.732 141.057,237.844 141.057 C 237.956 141.057,237.984 141.159,237.908 141.282 C 237.831 141.406,237.887 141.507,238.031 141.507 C 238.175 141.507,238.235 141.659,238.164 141.845 C 238.093 142.030,238.138 142.182,238.266 142.182 C 238.393 142.182,238.427 142.295,238.342 142.432 C 238.257 142.570,238.306 142.756,238.451 142.845 C 239.205 143.311,239.229 150.937,238.479 151.401 C 238.356 151.476,238.229 151.787,238.195 152.091 C 238.129 152.678,237.984 152.921,237.172 153.804 C 236.892 154.110,236.714 154.445,236.778 154.548 C 236.842 154.652,236.541 154.946,236.108 155.201 C 235.675 155.456,235.321 155.767,235.321 155.891 C 235.321 156.015,235.182 156.063,235.012 155.998 C 234.843 155.933,234.648 156.024,234.581 156.200 C 234.513 156.376,233.994 156.657,233.427 156.824 C 232.860 156.992,232.396 157.198,232.396 157.283 C 232.396 157.369,232.193 157.385,231.946 157.321 C 231.699 157.256,231.496 157.291,231.496 157.398 C 231.496 157.505,230.282 157.593,228.797 157.593 L 226.097 157.593 226.097 147.050 L 226.097 136.507 229.190 136.615 C 231.459 136.694,232.538 136.829,233.240 137.124 M106.187 174.765 C 106.187 174.868,106.430 175.082,106.728 175.242 C 107.445 175.625,107.135 176.688,106.213 177.010 C 105.053 177.414,104.416 176.022,105.343 175.106 C 105.876 174.579,106.187 174.453,106.187 174.765 M88.808 183.279 C 89.252 183.700,89.147 184.655,88.626 184.934 C 87.487 185.543,86.223 184.503,86.798 183.429 C 87.054 182.951,88.358 182.853,88.808 183.279 M70.905 190.924 C 71.795 191.729,71.061 193.130,69.825 192.986 C 69.423 192.940,69.072 192.697,68.862 192.321 C 68.168 191.079,69.825 189.946,70.905 190.924 M53.318 198.200 C 53.860 198.742,53.881 199.064,53.418 199.725 C 52.775 200.643,51.069 200.136,51.069 199.027 C 51.069 197.883,52.482 197.364,53.318 198.200 M35.096 206.524 C 35.637 207.066,35.658 207.388,35.195 208.049 C 34.581 208.926,32.846 208.427,32.846 207.373 C 32.846 206.209,34.251 205.679,35.096 206.524 " stroke="none" fill="#04323a" fill-rule="evenodd"></path><path id="path1" d="M8.378 18.823 C 8.045 18.956,7.550 19.801,7.810 19.790 C 7.907 19.787,8.168 19.533,8.391 19.228 C 8.613 18.923,8.765 18.681,8.728 18.690 C 8.691 18.700,8.534 18.760,8.378 18.823 M132.508 30.146 C 132.508 36.295,132.587 39.595,132.733 39.595 C 132.880 39.595,132.958 36.295,132.958 30.146 C 132.958 23.997,132.880 20.697,132.733 20.697 C 132.587 20.697,132.508 23.997,132.508 30.146 M70.022 24.690 L 125.872 24.747 125.808 30.146 L 125.744 35.545 77.551 35.602 L 29.359 35.660 77.728 35.659 L 126.097 35.658 126.097 30.146 L 126.097 24.634 70.135 24.634 L 14.173 24.633 70.022 24.690 M17.379 35.714 C 19.328 35.751,22.517 35.751,24.466 35.714 C 26.415 35.676,24.820 35.646,20.922 35.646 C 17.025 35.646,15.430 35.676,17.379 35.714 M7.428 40.214 C 7.435 40.583,7.860 41.033,8.031 40.851 C 8.130 40.745,8.084 40.613,7.929 40.557 C 7.773 40.502,7.703 40.364,7.773 40.251 C 7.843 40.138,7.793 40.045,7.662 40.045 C 7.531 40.045,7.426 40.121,7.428 40.214 M13.048 42.230 C 19.555 42.388,25.422 42.392,25.422 42.238 C 25.422 42.146,22.056 42.092,17.942 42.118 C 13.827 42.145,11.625 42.195,13.048 42.230 M69.906 42.238 L 107.979 42.296 108.043 48.088 L 108.107 53.881 108.159 47.975 L 108.211 42.070 70.022 42.125 L 31.834 42.181 69.906 42.238 M114.647 42.426 C 114.408 43.049,114.491 55.979,114.736 56.130 C 114.884 56.222,114.961 53.881,114.961 49.276 L 114.961 42.283 122.251 42.345 C 126.261 42.379,129.494 42.331,129.437 42.238 C 129.203 41.861,114.794 42.043,114.647 42.426 M141.114 61.341 C 140.778 61.477,140.725 63.442,141.057 63.442 C 141.181 63.442,141.282 62.984,141.282 62.424 L 141.282 61.405 148.707 61.468 C 152.790 61.502,156.131 61.454,156.131 61.361 C 156.130 61.176,141.570 61.157,141.114 61.341 M151.331 64.267 C 151.078 64.520,151.152 95.613,151.406 95.613 C 151.554 95.613,151.631 90.214,151.631 79.865 C 151.631 71.204,151.597 64.117,151.556 64.117 C 151.515 64.117,151.414 64.184,151.331 64.267 M31.046 111.910 C 31.046 141.142,31.121 155.456,31.274 155.456 C 31.583 155.456,31.575 68.692,31.265 68.500 C 31.123 68.413,31.046 83.680,31.046 111.910 M355.962 70.796 C 356.178 70.853,356.533 70.853,356.749 70.796 C 356.966 70.740,356.789 70.693,356.355 70.693 C 355.922 70.693,355.745 70.740,355.962 70.796 M357.762 70.796 C 357.978 70.853,358.332 70.853,358.549 70.796 C 358.765 70.740,358.588 70.693,358.155 70.693 C 357.722 70.693,357.545 70.740,357.762 70.796 M233.296 72.229 C 233.296 72.931,233.382 73.314,233.521 73.228 C 233.645 73.152,233.746 72.640,233.746 72.090 C 233.746 71.541,233.645 71.091,233.521 71.091 C 233.397 71.091,233.296 71.603,233.296 72.229 M284.616 72.160 C 284.601 72.809,284.670 73.341,284.769 73.341 C 284.868 73.341,284.913 72.961,284.869 72.497 C 284.731 71.050,284.643 70.933,284.616 72.160 M247.530 72.216 C 247.530 72.773,247.574 73.001,247.628 72.722 C 247.681 72.444,247.681 71.988,247.628 71.710 C 247.574 71.431,247.530 71.659,247.530 72.216 M361.755 71.766 C 361.755 71.890,361.957 71.991,362.205 71.991 C 362.452 71.991,362.655 71.890,362.655 71.766 C 362.655 71.642,362.452 71.541,362.205 71.541 C 361.957 71.541,361.755 71.642,361.755 71.766 M37.905 114.173 C 37.905 137.064,37.932 146.395,37.964 134.909 C 37.996 123.423,37.996 104.694,37.964 93.289 C 37.932 81.885,37.905 91.282,37.905 114.173 M230.024 74.031 C 229.943 74.163,229.930 74.325,229.996 74.391 C 230.157 74.552,230.596 74.268,230.596 74.002 C 230.596 73.715,230.208 73.734,230.024 74.031 M254.441 74.126 C 254.594 74.310,254.820 74.399,254.943 74.323 C 255.078 74.239,255.046 74.109,254.861 73.991 C 254.376 73.684,254.138 73.760,254.441 74.126 M317.885 74.016 C 317.885 74.139,317.987 74.241,318.110 74.241 C 318.256 74.241,318.354 77.932,318.389 84.758 L 318.443 95.276 318.508 85.039 C 318.543 79.409,318.517 74.575,318.450 74.297 C 318.328 73.798,317.885 73.577,317.885 74.016 M354.919 74.142 C 354.845 74.336,354.692 74.438,354.581 74.369 C 354.469 74.300,354.319 74.397,354.247 74.585 C 354.143 74.855,354.201 74.880,354.523 74.708 C 355.053 74.424,355.578 73.791,355.282 73.791 C 355.157 73.791,354.993 73.949,354.919 74.142 M323.660 74.166 C 323.452 74.374,323.470 83.413,323.678 83.542 C 323.771 83.600,323.847 81.480,323.847 78.831 C 323.847 76.183,323.839 74.016,323.828 74.016 C 323.818 74.016,323.742 74.083,323.660 74.166 M329.809 74.458 C 329.809 74.586,329.927 74.691,330.072 74.691 C 330.217 74.691,330.544 74.868,330.800 75.084 C 331.244 75.461,331.250 75.461,330.948 75.072 C 330.533 74.536,329.809 74.146,329.809 74.458 M306.187 74.889 C 306.187 75.137,306.288 75.402,306.412 75.478 C 306.535 75.555,306.637 75.415,306.637 75.167 C 306.637 74.920,306.535 74.655,306.412 74.578 C 306.288 74.502,306.187 74.642,306.187 74.889 M349.438 74.816 C 349.106 75.176,349.079 75.366,349.357 75.366 C 349.549 75.366,349.909 74.689,349.780 74.569 C 349.746 74.537,349.592 74.648,349.438 74.816 M331.606 76.705 C 331.723 77.115,331.888 77.514,331.971 77.590 C 332.198 77.798,331.833 76.410,331.597 76.168 C 331.478 76.047,331.482 76.274,331.606 76.705 M353.356 76.415 C 353.119 76.652,353.181 77.840,353.431 77.840 C 353.555 77.840,353.656 77.486,353.656 77.053 C 353.656 76.244,353.615 76.157,353.356 76.415 M187.698 78.346 C 187.310 78.869,186.960 79.865,187.164 79.865 C 187.275 79.865,187.432 79.562,187.514 79.191 C 187.595 78.821,187.831 78.419,188.038 78.298 C 188.245 78.178,188.300 78.076,188.160 78.072 C 188.021 78.068,187.813 78.192,187.698 78.346 M363.646 79.040 C 363.719 79.266,363.780 79.494,363.780 79.546 C 363.780 79.598,364.311 79.638,364.961 79.637 C 366.179 79.633,366.950 79.351,366.611 79.034 C 366.504 78.934,366.381 78.954,366.336 79.078 C 366.227 79.379,363.944 79.211,363.702 78.884 C 363.586 78.727,363.564 78.788,363.646 79.040 M331.631 79.775 C 331.325 80.882,331.483 81.039,331.834 79.978 C 331.982 79.528,332.050 79.107,331.985 79.041 C 331.920 78.976,331.760 79.306,331.631 79.775 M188.874 80.146 C 188.958 80.425,189.120 80.751,189.233 80.872 C 189.346 80.993,189.325 80.765,189.185 80.366 C 188.901 79.549,188.637 79.363,188.874 80.146 M51.294 80.540 C 51.294 80.664,51.699 80.765,52.193 80.765 C 52.688 80.765,53.093 80.664,53.093 80.540 C 53.093 80.416,52.688 80.315,52.193 80.315 C 51.699 80.315,51.294 80.416,51.294 80.540 M69.179 80.540 C 69.094 80.678,69.443 80.765,70.079 80.765 C 70.714 80.765,71.064 80.678,70.979 80.540 C 70.902 80.416,70.497 80.315,70.079 80.315 C 69.660 80.315,69.255 80.416,69.179 80.540 M86.952 80.540 C 86.867 80.677,87.212 80.765,87.838 80.765 C 88.402 80.765,88.864 80.664,88.864 80.540 C 88.864 80.416,88.465 80.315,87.977 80.315 C 87.490 80.315,87.028 80.416,86.952 80.540 M348.935 80.934 C 348.941 81.242,349.355 81.766,349.487 81.634 C 349.664 81.457,349.382 80.765,349.132 80.765 C 349.022 80.765,348.933 80.841,348.935 80.934 M49.605 81.441 C 49.011 82.097,49.292 82.184,49.914 81.537 C 50.204 81.236,50.345 80.990,50.227 80.990 C 50.110 80.990,49.830 81.193,49.605 81.441 M330.415 81.903 C 330.316 82.282,330.352 82.318,330.614 82.100 C 330.972 81.803,331.038 81.440,330.735 81.440 C 330.626 81.440,330.482 81.648,330.415 81.903 M185.640 83.228 C 185.508 83.606,185.448 83.915,185.507 83.915 C 185.658 83.915,186.083 82.746,185.972 82.634 C 185.921 82.583,185.771 82.851,185.640 83.228 M328.939 82.932 C 328.522 83.114,328.235 83.315,328.299 83.380 C 328.424 83.504,329.809 82.854,329.809 82.671 C 329.809 82.544,329.872 82.525,328.939 82.932 M293.908 83.042 C 293.861 83.119,294.807 83.182,296.011 83.181 C 298.252 83.180,297.971 83.077,295.422 82.965 C 294.637 82.930,293.956 82.965,293.908 83.042 M266.817 83.240 C 266.817 83.363,266.665 83.465,266.479 83.465 C 266.294 83.465,266.142 83.566,266.142 83.690 C 266.142 84.017,266.573 83.965,266.945 83.593 C 267.322 83.216,267.356 83.015,267.042 83.015 C 266.918 83.015,266.817 83.116,266.817 83.240 M261.417 85.687 C 261.417 85.795,261.569 86.010,261.755 86.164 C 261.988 86.358,262.092 86.366,262.092 86.192 C 262.092 86.053,261.985 85.939,261.854 85.939 C 261.723 85.939,261.678 85.838,261.755 85.714 C 261.831 85.591,261.787 85.489,261.656 85.489 C 261.525 85.489,261.417 85.578,261.417 85.687 M324.184 86.026 C 324.184 86.073,324.438 86.160,324.747 86.219 C 325.056 86.278,325.309 86.240,325.309 86.133 C 325.309 86.026,325.056 85.939,324.747 85.939 C 324.438 85.939,324.184 85.978,324.184 86.026 M326.553 87.097 C 326.848 87.612,327.394 88.189,327.587 88.189 C 327.927 88.189,327.525 87.544,326.950 87.167 C 326.556 86.909,326.433 86.887,326.553 87.097 M262.635 91.339 C 262.635 93.504,262.668 94.390,262.710 93.307 C 262.751 92.224,262.751 90.453,262.710 89.370 C 262.668 88.287,262.635 89.173,262.635 91.339 M360.906 89.581 C 360.955 89.728,361.116 89.888,361.263 89.937 C 361.427 89.992,361.477 89.889,361.393 89.670 C 361.236 89.261,360.771 89.176,360.906 89.581 M169.629 92.576 C 169.629 92.762,169.730 92.913,169.854 92.913 C 169.978 92.913,170.079 92.762,170.079 92.576 C 170.079 92.390,169.978 92.238,169.854 92.238 C 169.730 92.238,169.629 92.390,169.629 92.576 M360.630 94.826 C 360.474 95.014,360.449 95.163,360.575 95.163 C 360.699 95.163,360.926 95.011,361.080 94.826 C 361.236 94.637,361.260 94.488,361.135 94.488 C 361.011 94.488,360.784 94.640,360.630 94.826 M194.184 95.089 C 193.768 95.540,194.043 95.753,194.479 95.317 C 194.672 95.124,194.752 94.920,194.659 94.864 C 194.565 94.807,194.351 94.908,194.184 95.089 M141.114 95.987 C 140.778 96.123,140.725 98.088,141.057 98.088 C 141.181 98.088,141.282 97.641,141.282 97.094 C 141.282 96.510,141.398 96.054,141.564 95.987 C 141.718 95.925,141.744 95.874,141.620 95.874 C 141.496 95.874,141.268 95.925,141.114 95.987 M271.608 97.188 C 271.608 97.868,271.651 98.147,271.702 97.807 C 271.754 97.466,271.754 96.909,271.702 96.569 C 271.651 96.229,271.608 96.507,271.608 97.188 M284.657 97.188 C 284.657 97.868,284.699 98.147,284.751 97.807 C 284.802 97.466,284.802 96.909,284.751 96.569 C 284.699 96.229,284.657 96.507,284.657 97.188 M341.489 97.075 C 341.361 98.201,341.398 98.498,341.633 98.262 C 341.702 98.193,341.727 97.644,341.687 97.043 L 341.616 95.951 341.489 97.075 M348.541 98.024 C 348.883 98.076,349.389 98.075,349.666 98.021 C 349.942 97.968,349.663 97.925,349.044 97.927 C 348.425 97.929,348.199 97.972,348.541 98.024 M159.280 125.984 C 159.280 126.108,159.483 126.209,159.730 126.209 C 159.978 126.209,160.180 126.108,160.180 125.984 C 160.180 125.861,159.978 125.759,159.730 125.759 C 159.483 125.759,159.280 125.861,159.280 125.984 M154.837 127.159 C 154.558 127.293,154.331 127.491,154.331 127.599 C 154.331 127.754,155.018 127.420,155.662 126.952 C 155.886 126.789,155.298 126.936,154.837 127.159 M167.829 128.968 C 168.138 129.274,168.427 129.495,168.470 129.457 C 168.621 129.326,168.250 128.909,167.760 128.661 C 167.309 128.432,167.315 128.458,167.829 128.968 M151.745 129.582 C 151.520 129.831,151.441 130.034,151.569 130.034 C 151.852 130.034,152.413 129.391,152.262 129.240 C 152.202 129.180,151.969 129.334,151.745 129.582 M195.672 133.117 C 195.952 133.171,196.357 133.169,196.572 133.113 C 196.787 133.057,196.558 133.013,196.063 133.015 C 195.568 133.018,195.392 133.064,195.672 133.117 M231.046 133.495 C 231.046 133.694,231.956 133.799,232.072 133.612 C 232.141 133.500,231.938 133.408,231.622 133.408 C 231.305 133.408,231.046 133.447,231.046 133.495 M173.021 133.802 C 173.010 133.977,172.664 134.083,172.103 134.083 C 171.609 134.083,171.204 134.184,171.204 134.308 C 171.204 134.584,172.548 134.601,172.975 134.331 C 173.144 134.223,173.228 133.997,173.161 133.828 C 173.075 133.610,173.034 133.603,173.021 133.802 M189.209 134.472 C 188.914 134.804,188.922 134.827,189.283 134.688 C 189.506 134.603,189.730 134.533,189.782 134.533 C 189.834 134.533,189.876 134.432,189.876 134.308 C 189.876 133.977,189.585 134.049,189.209 134.472 M204.776 135.700 C 204.888 136.036,205.399 136.222,205.399 135.926 C 205.399 135.805,205.239 135.645,205.043 135.569 C 204.824 135.485,204.721 135.536,204.776 135.700 M195.051 135.883 C 195.495 136.170,197.010 136.170,197.188 135.883 C 197.275 135.743,196.835 135.659,196.020 135.661 C 195.093 135.664,194.811 135.728,195.051 135.883 M217.548 135.883 C 217.548 136.007,217.700 136.108,217.885 136.108 C 218.071 136.108,218.223 136.007,218.223 135.883 C 218.223 135.759,218.071 135.658,217.885 135.658 C 217.700 135.658,217.548 135.759,217.548 135.883 M220.697 146.875 C 220.697 155.126,220.636 157.465,220.416 157.543 C 220.262 157.598,220.208 157.723,220.298 157.819 C 220.388 157.915,220.616 157.866,220.804 157.710 C 221.219 157.365,221.334 136.700,220.922 136.445 C 220.774 136.354,220.697 139.886,220.697 146.875 M255.622 146.769 C 255.572 156.515,255.538 157.341,255.174 157.617 C 254.800 157.901,254.801 157.916,255.181 157.923 C 255.804 157.934,255.801 157.986,255.737 146.794 L 255.676 136.220 255.622 146.769 M260.742 140.832 C 260.742 143.682,260.825 145.332,260.967 145.332 C 261.110 145.332,261.192 143.682,261.192 140.832 C 261.192 137.983,261.110 136.333,260.967 136.333 C 260.825 136.333,260.742 137.983,260.742 140.832 M191.038 137.829 C 190.337 138.527,189.966 138.961,190.214 138.792 C 190.769 138.412,192.617 136.558,192.440 136.558 C 192.369 136.558,191.738 137.130,191.038 137.829 M226.201 147.132 C 226.201 153.009,226.230 155.413,226.265 152.475 C 226.301 149.536,226.301 144.727,226.265 141.789 C 226.230 138.850,226.201 141.254,226.201 147.132 M200.675 137.630 C 200.675 137.869,201.158 138.358,201.395 138.358 C 201.744 138.358,201.569 137.921,201.125 137.683 C 200.877 137.550,200.675 137.527,200.675 137.630 M147.807 138.020 C 147.807 138.206,147.908 138.358,148.031 138.358 C 148.155 138.358,148.256 138.206,148.256 138.020 C 148.256 137.835,148.155 137.683,148.031 137.683 C 147.908 137.683,147.807 137.835,147.807 138.020 M236.497 139.750 C 236.546 139.897,236.706 140.057,236.853 140.106 C 237.018 140.161,237.068 140.058,236.984 139.839 C 236.827 139.430,236.362 139.345,236.497 139.750 M147.582 140.157 C 147.582 140.405,147.683 140.607,147.807 140.607 C 147.930 140.607,148.031 140.405,148.031 140.157 C 148.031 139.910,147.930 139.708,147.807 139.708 C 147.683 139.708,147.582 139.910,147.582 140.157 M267.592 142.387 C 267.731 142.613,268.289 142.584,268.535 142.339 C 268.621 142.253,268.415 142.182,268.078 142.182 C 267.741 142.182,267.522 142.274,267.592 142.387 M268.841 146.920 C 268.841 149.871,268.919 151.385,269.066 151.294 C 269.204 151.209,269.291 149.454,269.291 146.781 C 269.291 144.015,269.209 142.407,269.066 142.407 C 268.924 142.407,268.841 144.061,268.841 146.920 M203.828 143.101 C 203.830 143.400,203.931 143.796,204.053 143.982 C 204.208 144.219,204.231 144.086,204.129 143.532 C 203.951 142.562,203.823 142.379,203.828 143.101 M147.732 143.682 C 147.508 143.906,147.550 144.432,147.793 144.432 C 147.909 144.432,147.988 144.229,147.970 143.982 C 147.931 143.474,147.935 143.478,147.732 143.682 M204.092 145.332 C 204.098 145.641,204.180 146.198,204.274 146.569 L 204.446 147.244 204.457 146.457 C 204.463 146.024,204.381 145.467,204.274 145.219 C 204.099 144.811,204.082 144.821,204.092 145.332 M209.899 146.232 C 209.899 146.603,210.000 146.907,210.124 146.907 C 210.247 146.907,210.349 146.603,210.349 146.232 C 210.349 145.861,210.247 145.557,210.124 145.557 C 210.000 145.557,209.899 145.861,209.899 146.232 M204.309 147.919 C 204.287 148.290,204.212 148.847,204.143 149.156 C 204.036 149.640,204.054 149.663,204.272 149.321 C 204.412 149.103,204.487 148.546,204.438 148.084 C 204.362 147.359,204.345 147.336,204.309 147.919 M209.899 148.369 C 209.899 148.802,210.000 149.156,210.124 149.156 C 210.247 149.156,210.349 148.802,210.349 148.369 C 210.349 147.936,210.247 147.582,210.124 147.582 C 210.000 147.582,209.899 147.936,209.899 148.369 M260.742 152.981 C 260.742 156.130,260.824 157.930,260.967 157.930 C 261.111 157.930,261.192 156.130,261.192 152.981 C 261.192 149.831,261.111 148.031,260.967 148.031 C 260.824 148.031,260.742 149.831,260.742 152.981 M244.597 148.931 C 244.597 149.364,244.643 149.542,244.700 149.325 C 244.756 149.109,244.756 148.754,244.700 148.538 C 244.643 148.321,244.597 148.498,244.597 148.931 M172.272 149.990 C 172.551 150.044,173.006 150.044,173.285 149.990 C 173.563 149.936,173.335 149.893,172.778 149.893 C 172.222 149.893,171.994 149.936,172.272 149.990 M203.937 150.956 C 203.852 151.345,203.829 151.710,203.886 151.767 C 203.943 151.825,204.055 151.548,204.134 151.153 C 204.213 150.758,204.236 150.393,204.185 150.342 C 204.134 150.291,204.022 150.567,203.937 150.956 M149.606 151.576 C 149.606 151.700,149.758 151.927,149.944 152.081 C 150.132 152.237,150.281 152.262,150.281 152.136 C 150.281 152.012,150.129 151.785,149.944 151.631 C 149.756 151.475,149.606 151.450,149.606 151.576 M243.213 153.375 L 242.934 153.993 243.402 153.496 C 243.904 152.964,243.982 152.756,243.681 152.756 C 243.577 152.756,243.366 153.034,243.213 153.375 M168.645 154.698 C 168.225 155.274,168.226 155.275,168.701 155.020 C 168.964 154.880,169.179 154.617,169.179 154.435 C 169.179 154.000,169.140 154.019,168.645 154.698 M208.235 154.687 C 208.151 154.906,208.202 155.009,208.366 154.954 C 208.702 154.842,208.887 154.331,208.592 154.331 C 208.471 154.331,208.311 154.491,208.235 154.687 M190.084 155.423 C 190.474 156.151,191.025 156.497,190.706 155.813 C 190.559 155.497,190.310 155.188,190.152 155.127 C 189.940 155.045,189.922 155.121,190.084 155.423 M152.815 155.611 C 153.024 155.820,153.271 155.916,153.363 155.824 C 153.455 155.731,153.381 155.562,153.199 155.447 C 152.652 155.100,152.408 155.204,152.815 155.611 M201.837 155.564 C 201.549 155.723,201.163 156.143,200.980 156.498 C 200.677 157.086,200.728 157.064,201.561 156.254 C 202.063 155.764,202.475 155.334,202.475 155.297 C 202.475 155.213,202.470 155.215,201.837 155.564 M240.816 156.612 C 240.317 157.144,240.271 157.255,240.626 157.072 C 241.169 156.791,241.732 156.167,241.579 156.015 C 241.522 155.957,241.178 156.226,240.816 156.612 M37.035 157.186 C 36.678 157.604,36.440 158.000,36.506 158.066 C 36.571 158.131,36.902 157.821,37.241 157.376 C 38.036 156.335,37.881 156.193,37.035 157.186 M206.468 157.136 C 205.892 157.928,205.987 158.047,206.637 157.347 C 207.235 156.701,207.300 156.576,207.030 156.587 C 206.938 156.591,206.684 156.838,206.468 157.136 M85.187 157.483 C 85.373 157.855,85.626 158.098,85.749 158.021 C 85.879 157.941,85.760 157.656,85.467 157.344 C 84.813 156.648,84.779 156.665,85.187 157.483 M31.946 157.332 C 31.946 157.532,32.904 158.380,33.129 158.380 C 33.332 158.380,33.044 158.064,32.339 157.509 C 32.123 157.339,31.946 157.259,31.946 157.332 M72.261 157.525 C 71.936 157.851,71.910 158.155,72.208 158.155 C 72.327 158.155,72.533 157.953,72.666 157.705 C 72.931 157.210,72.686 157.101,72.261 157.525 M53.993 157.930 C 53.815 158.041,53.744 158.205,53.835 158.297 C 53.926 158.388,54.119 158.345,54.263 158.200 C 54.603 157.860,54.413 157.671,53.993 157.930 M186.094 157.944 C 186.148 158.107,186.325 158.284,186.488 158.338 C 186.656 158.394,186.741 158.310,186.684 158.141 C 186.630 157.979,186.453 157.802,186.291 157.747 C 186.122 157.691,186.038 157.776,186.094 157.944 M34.754 181.890 C 34.754 194.758,34.781 199.989,34.814 193.515 C 34.848 187.040,34.848 176.512,34.814 170.118 C 34.781 163.724,34.754 169.021,34.754 181.890 M51.519 177.741 C 51.519 190.441,51.594 196.830,51.744 196.738 C 52.054 196.546,52.054 158.605,51.744 158.605 C 51.595 158.605,51.519 165.134,51.519 177.741 M70.416 174.142 C 70.416 184.442,70.492 189.631,70.641 189.539 C 70.788 189.448,70.866 184.025,70.866 174.002 C 70.866 163.888,70.789 158.605,70.641 158.605 C 70.493 158.605,70.416 163.934,70.416 174.142 M203.606 159.271 C 203.424 159.386,203.343 159.549,203.427 159.632 C 203.510 159.715,203.742 159.620,203.942 159.419 C 204.338 159.024,204.138 158.935,203.606 159.271 M156.085 161.125 C 156.295 161.335,156.415 161.335,156.625 161.125 C 156.835 160.915,156.775 160.855,156.355 160.855 C 155.936 160.855,155.876 160.915,156.085 161.125 M162.655 161.080 C 162.655 161.204,162.908 161.305,163.217 161.305 C 163.526 161.305,163.780 161.204,163.780 161.080 C 163.780 160.956,163.526 160.855,163.217 160.855 C 162.908 160.855,162.655 160.956,162.655 161.080 M192.576 161.080 C 192.576 161.204,192.728 161.305,192.913 161.305 C 193.099 161.305,193.251 161.204,193.251 161.080 C 193.251 160.956,193.099 160.855,192.913 160.855 C 192.728 160.855,192.576 160.956,192.576 161.080 M195.163 161.305 C 195.330 161.575,196.559 161.575,197.188 161.305 C 197.511 161.166,197.269 161.107,196.331 161.096 C 195.513 161.086,195.076 161.164,195.163 161.305 M88.189 183.031 C 88.189 183.270,88.884 183.857,89.014 183.727 C 89.085 183.656,88.986 183.442,88.794 183.250 C 88.437 182.893,88.189 182.803,88.189 183.031 M85.264 184.892 C 85.264 184.997,85.475 185.273,85.733 185.506 C 86.201 185.930,86.201 185.929,85.922 185.316 C 85.657 184.734,85.264 184.481,85.264 184.892 M89.314 185.714 C 89.158 185.903,89.133 186.052,89.259 186.052 C 89.382 186.052,89.610 185.900,89.764 185.714 C 89.920 185.526,89.944 185.377,89.819 185.377 C 89.695 185.377,89.468 185.529,89.314 185.714 M69.066 190.889 C 68.873 191.122,68.864 191.226,69.039 191.226 C 69.178 191.226,69.291 191.132,69.291 191.017 C 69.291 190.902,69.519 190.764,69.798 190.710 C 70.282 190.617,70.284 190.611,69.825 190.582 C 69.562 190.565,69.220 190.703,69.066 190.889 M72.216 191.663 C 72.216 192.041,72.317 192.351,72.441 192.351 C 72.565 192.351,72.666 192.104,72.666 191.802 C 72.666 191.500,72.565 191.190,72.441 191.114 C 72.310 191.032,72.216 191.261,72.216 191.663 M70.791 192.407 C 70.564 192.644,70.422 192.881,70.474 192.934 C 70.526 192.986,70.753 192.825,70.979 192.576 C 71.507 191.992,71.336 191.838,70.791 192.407 M70.992 193.820 C 70.752 194.002,70.656 194.151,70.780 194.151 C 70.904 194.151,71.202 194.002,71.442 193.820 C 71.682 193.639,71.777 193.490,71.654 193.490 C 71.530 193.490,71.232 193.639,70.992 193.820 M50.731 197.119 C 50.263 197.384,49.913 197.795,50.043 197.925 C 50.085 197.966,50.398 197.741,50.739 197.425 C 51.417 196.797,51.416 196.731,50.731 197.119 M53.254 198.489 C 53.319 198.829,53.461 199.162,53.570 199.229 C 53.883 199.422,53.801 198.781,53.452 198.304 C 53.157 197.900,53.144 197.912,53.254 198.489 M49.719 198.988 C 49.719 199.297,49.820 199.550,49.944 199.550 C 50.067 199.550,50.169 199.297,50.169 198.988 C 50.169 198.678,50.067 198.425,49.944 198.425 C 49.820 198.425,49.719 198.678,49.719 198.988 M54.686 199.564 C 54.676 199.757,54.462 200.137,54.209 200.408 C 53.957 200.678,53.854 200.900,53.979 200.900 C 54.316 200.900,54.954 199.836,54.820 199.501 C 54.740 199.302,54.698 199.321,54.686 199.564 M53.093 199.800 C 53.093 199.951,52.791 200.014,52.322 199.959 C 51.897 199.910,51.600 199.949,51.660 200.047 C 51.850 200.354,53.025 200.241,53.318 199.888 C 53.512 199.654,53.520 199.550,53.346 199.550 C 53.207 199.550,53.093 199.662,53.093 199.800 M33.200 206.506 C 32.974 206.756,32.852 207.158,32.910 207.462 L 33.010 207.987 33.040 207.464 C 33.078 206.817,33.505 206.372,34.215 206.238 C 34.753 206.136,34.753 206.135,34.174 206.105 C 33.852 206.088,33.416 206.268,33.200 206.506 M31.496 207.778 C 31.496 207.972,31.668 208.301,31.877 208.509 C 32.234 208.862,32.248 208.860,32.102 208.474 C 32.016 208.248,31.946 207.919,31.946 207.743 C 31.946 207.568,31.845 207.424,31.721 207.424 C 31.597 207.424,31.496 207.583,31.496 207.778 M33.580 209.610 C 33.922 209.662,34.428 209.661,34.705 209.607 C 34.982 209.554,34.702 209.511,34.083 209.513 C 33.465 209.515,33.238 209.559,33.580 209.610 " stroke="none" fill="#5d7e82" fill-rule="evenodd"></path><path id="path2" d="M14.130 24.916 C 14.092 25.008,14.114 27.463,14.179 30.371 L 14.298 35.658 14.348 30.315 L 14.398 24.973 70.247 24.916 L 126.097 24.858 70.148 24.803 C 39.377 24.772,14.168 24.823,14.130 24.916 M31.946 47.793 C 31.946 51.327,32.027 53.318,32.171 53.318 C 32.315 53.318,32.396 51.373,32.396 47.932 C 32.396 44.584,32.311 42.494,32.171 42.407 C 32.023 42.316,31.946 44.167,31.946 47.793 M330.378 75.190 C 330.622 75.526,330.906 75.805,331.009 75.808 C 331.349 75.821,331.031 75.298,330.478 74.935 L 329.934 74.578 330.378 75.190 M331.670 78.290 C 331.670 78.847,331.714 79.075,331.767 78.796 C 331.821 78.518,331.821 78.062,331.767 77.784 C 331.714 77.506,331.670 77.733,331.670 78.290 M187.763 78.646 C 187.552 79.197,187.598 79.251,187.964 78.885 C 188.346 78.502,188.395 78.290,188.101 78.290 C 187.990 78.290,187.838 78.450,187.763 78.646 M324.573 83.402 C 324.973 83.452,325.681 83.452,326.148 83.404 C 326.615 83.355,326.288 83.314,325.422 83.313 C 324.556 83.312,324.174 83.352,324.573 83.402 M194.488 136.108 C 194.412 136.232,194.558 136.333,194.812 136.333 C 195.067 136.333,195.276 136.232,195.276 136.108 C 195.276 135.984,195.130 135.883,194.951 135.883 C 194.773 135.883,194.565 135.984,194.488 136.108 M197.075 136.108 C 197.075 136.232,197.227 136.333,197.413 136.333 C 197.598 136.333,197.750 136.232,197.750 136.108 C 197.750 135.984,197.598 135.883,197.413 135.883 C 197.227 135.883,197.075 135.984,197.075 136.108 M193.363 136.483 C 192.968 136.800,192.963 136.826,193.325 136.701 C 193.552 136.622,193.831 136.558,193.944 136.558 C 194.058 136.558,194.151 136.457,194.151 136.333 C 194.151 136.014,193.885 136.065,193.363 136.483 M202.509 140.256 C 202.654 140.573,202.860 140.832,202.969 140.832 C 203.199 140.832,202.802 140.022,202.472 139.818 C 202.343 139.739,202.359 139.926,202.509 140.256 M188.076 143.870 C 188.076 144.055,188.178 144.207,188.301 144.207 C 188.425 144.207,188.526 144.055,188.526 143.870 C 188.526 143.684,188.425 143.532,188.301 143.532 C 188.178 143.532,188.076 143.684,188.076 143.870 M187.908 146.119 C 187.911 146.614,187.957 146.790,188.011 146.510 C 188.064 146.230,188.062 145.826,188.006 145.610 C 187.950 145.395,187.906 145.624,187.908 146.119 M187.908 148.144 C 187.911 148.639,187.957 148.815,188.011 148.535 C 188.064 148.255,188.062 147.850,188.006 147.635 C 187.950 147.420,187.906 147.649,187.908 148.144 M188.076 150.394 C 188.076 150.579,188.178 150.731,188.301 150.731 C 188.425 150.731,188.526 150.579,188.526 150.394 C 188.526 150.208,188.425 150.056,188.301 150.056 C 188.178 150.056,188.076 150.208,188.076 150.394 M192.543 157.260 C 192.834 157.504,193.163 157.647,193.274 157.578 C 193.385 157.510,193.476 157.561,193.476 157.692 C 193.476 157.823,193.577 157.930,193.701 157.930 C 194.248 157.930,193.844 157.517,192.970 157.183 L 192.013 156.817 192.543 157.260 M69.516 190.863 C 69.516 190.911,69.815 190.994,70.179 191.047 C 70.544 191.101,70.791 191.062,70.728 190.960 C 70.617 190.780,69.516 190.692,69.516 190.863 M51.320 198.904 C 51.305 199.229,51.445 199.621,51.631 199.775 C 51.992 200.075,52.105 199.783,51.765 199.426 C 51.654 199.309,51.514 199.010,51.454 198.763 C 51.369 198.408,51.340 198.438,51.320 198.904 M52.902 199.461 C 52.492 199.925,52.756 200.145,53.195 199.705 C 53.387 199.514,53.543 199.299,53.543 199.229 C 53.543 198.992,53.209 199.113,52.902 199.461 M34.871 207.405 C 34.871 207.642,34.744 207.882,34.589 207.937 C 34.435 207.992,34.379 208.114,34.466 208.207 C 34.678 208.435,35.321 207.773,35.321 207.328 C 35.321 207.133,35.219 206.974,35.096 206.974 C 34.972 206.974,34.871 207.168,34.871 207.405 " stroke="none" fill="#bbcbd2" fill-rule="evenodd"></path><path id="path3" d="M14.045 30.371 C 14.045 33.279,14.077 34.469,14.116 33.015 C 14.155 31.561,14.155 29.182,14.116 27.728 C 14.077 26.274,14.045 27.463,14.045 30.371 M32.171 53.543 C 32.171 53.692,44.957 53.768,70.079 53.768 C 95.201 53.768,107.987 53.692,107.987 53.543 C 107.987 53.394,95.201 53.318,70.079 53.318 C 44.957 53.318,32.171 53.394,32.171 53.543 M323.840 78.853 L 323.847 83.577 325.254 83.644 C 326.028 83.681,326.808 83.629,326.988 83.528 C 327.171 83.425,326.575 83.382,325.642 83.429 L 323.969 83.513 323.901 78.821 L 323.833 74.128 323.840 78.853 M295.338 82.955 C 295.867 83.002,296.677 83.002,297.138 82.953 C 297.598 82.905,297.165 82.866,296.175 82.867 C 295.186 82.868,294.809 82.907,295.338 82.955 M348.425 98.247 C 348.704 98.300,349.159 98.300,349.438 98.247 C 349.716 98.193,349.488 98.149,348.931 98.149 C 348.375 98.149,348.147 98.193,348.425 98.247 M190.755 155.866 C 190.892 156.121,191.114 156.399,191.250 156.483 C 191.426 156.592,191.425 156.503,191.247 156.170 C 191.111 155.915,190.888 155.637,190.752 155.553 C 190.576 155.444,190.577 155.533,190.755 155.866 M69.391 192.670 C 69.883 193.071,70.416 193.139,70.416 192.801 C 70.416 192.677,70.273 192.576,70.097 192.576 C 69.922 192.576,69.593 192.517,69.366 192.445 C 68.989 192.325,68.991 192.344,69.391 192.670 " stroke="none" fill="#749494" fill-rule="evenodd"></path><path id="path4" d="M14.244 42.463 C 16.324 42.500,19.665 42.500,21.668 42.463 C 23.671 42.426,21.969 42.395,17.885 42.395 C 13.802 42.395,12.163 42.426,14.244 42.463 M51.237 42.463 C 61.662 42.496,78.720 42.496,89.145 42.463 C 99.570 42.431,91.040 42.405,70.191 42.405 C 49.342 42.405,40.813 42.431,51.237 42.463 M118.504 42.463 C 120.515 42.500,123.805 42.500,125.816 42.463 C 127.826 42.426,126.181 42.395,122.160 42.395 C 118.138 42.395,116.493 42.426,118.504 42.463 M207.256 71.879 C 207.258 72.373,207.304 72.549,207.358 72.270 C 207.412 71.990,207.410 71.585,207.354 71.370 C 207.297 71.155,207.253 71.384,207.256 71.879 M236.788 72.111 C 236.857 73.254,237.120 73.366,237.120 72.253 C 237.120 71.738,237.035 71.316,236.930 71.316 C 236.825 71.316,236.761 71.674,236.788 72.111 M247.755 72.216 C 247.755 72.773,247.799 73.001,247.853 72.722 C 247.906 72.444,247.906 71.988,247.853 71.710 C 247.799 71.431,247.755 71.659,247.755 72.216 M327.395 96.963 C 327.395 97.520,327.439 97.747,327.493 97.469 C 327.546 97.191,327.546 96.735,327.493 96.457 C 327.439 96.178,327.395 96.406,327.395 96.963 M173.153 127.259 C 172.917 127.495,172.985 133.482,173.228 133.858 C 173.374 134.084,173.448 133.023,173.450 130.652 C 173.452 128.704,173.420 127.109,173.378 127.109 C 173.337 127.109,173.236 127.177,173.153 127.259 " stroke="none" fill="#6c8c94" fill-rule="evenodd"></path></g></svg>