<svg id="svg" version="1.1" xmlns="http://www.w3.org/2000/svg" xmlns:xlink="http://www.w3.org/1999/xlink" width="400" height="109.0909090909091" viewBox="0, 0, 400,109.0909090909091"><g id="svgg"><path id="path0" d="M3.670 2.623 C 3.335 2.755,3.000 3.104,3.000 3.321 C 3.000 3.420,2.925 3.500,2.833 3.500 C 2.726 3.500,2.667 5.472,2.667 9.083 C 2.667 12.694,2.726 14.667,2.833 14.667 C 2.925 14.667,3.000 14.747,3.000 14.845 C 3.000 15.515,3.412 15.582,7.883 15.633 C 11.286 15.672,12.255 15.732,12.437 15.913 C 12.620 16.097,12.667 17.009,12.667 20.451 C 12.667 24.710,12.671 24.763,13.042 25.088 C 13.623 25.597,60.379 25.692,60.852 25.185 C 61.015 25.010,61.240 24.837,61.352 24.799 C 61.507 24.748,61.547 23.712,61.518 20.488 C 61.497 18.154,61.530 16.114,61.591 15.956 C 61.693 15.692,62.072 15.666,65.893 15.664 C 70.542 15.662,70.794 15.632,70.937 15.063 C 70.991 14.845,71.103 14.667,71.185 14.667 C 71.269 14.667,71.333 12.242,71.333 9.083 C 71.333 5.925,71.269 3.500,71.185 3.500 C 71.103 3.500,70.991 3.321,70.937 3.103 C 70.881 2.882,70.670 2.662,70.460 2.606 C 69.978 2.476,4.000 2.494,3.670 2.623 M67.500 9.167 L 67.500 12.167 37.083 12.167 L 6.667 12.167 6.667 9.167 L 6.667 6.167 37.083 6.167 L 67.500 6.167 67.500 9.167 M57.595 15.905 C 57.782 16.092,57.833 16.733,57.833 18.905 L 57.833 21.667 37.000 21.667 L 16.167 21.667 16.167 18.910 C 16.167 16.941,16.226 16.085,16.375 15.916 C 16.689 15.559,57.238 15.548,57.595 15.905 M16.854 28.616 C 16.536 28.744,16.000 29.299,16.000 29.500 C 16.000 29.592,15.925 29.667,15.833 29.667 C 15.723 29.667,15.667 37.833,15.667 53.833 C 15.667 69.833,15.723 78.000,15.833 78.000 C 15.925 78.000,16.000 78.074,16.000 78.165 C 16.000 78.418,16.548 79.000,16.787 79.000 C 16.958 79.000,17.000 81.480,17.000 91.571 L 17.000 104.141 16.500 104.641 C 16.002 105.139,15.767 106.333,16.167 106.333 C 16.258 106.333,16.333 106.440,16.333 106.570 C 16.333 106.700,16.564 106.858,16.846 106.920 C 17.550 107.074,18.500 106.877,18.500 106.576 C 18.500 106.442,18.575 106.333,18.667 106.333 C 19.067 106.333,18.832 105.139,18.333 104.641 L 17.833 104.141 17.833 91.834 C 17.833 78.845,17.826 79.000,18.409 79.000 C 18.869 79.000,19.333 78.512,19.333 78.029 C 19.333 77.830,19.408 77.667,19.500 77.667 C 19.610 77.667,19.667 70.000,19.667 55.000 L 19.667 32.333 37.082 32.333 L 54.497 32.333 54.540 55.292 C 54.588 80.640,54.518 79.000,55.549 79.000 C 56.288 79.000,56.333 79.254,56.333 83.405 C 56.333 86.786,56.298 87.333,56.083 87.333 C 55.632 87.333,55.167 87.969,55.167 88.583 C 55.167 88.904,55.242 89.167,55.333 89.167 C 55.425 89.167,55.500 89.279,55.500 89.417 C 55.500 89.554,55.612 89.667,55.750 89.667 C 55.887 89.667,56.000 89.742,56.000 89.833 C 56.000 89.925,56.300 90.000,56.667 90.000 C 57.033 90.000,57.333 89.925,57.333 89.833 C 57.333 89.742,57.437 89.667,57.564 89.667 C 57.822 89.667,57.994 89.169,57.998 88.412 C 58.000 87.930,57.539 87.333,57.165 87.333 C 57.061 87.333,57.000 85.807,57.000 83.185 L 57.000 79.036 57.414 78.932 C 57.670 78.868,57.868 78.670,57.932 78.414 C 57.989 78.186,58.103 78.000,58.185 78.000 C 58.271 78.000,58.333 67.869,58.333 53.821 L 58.333 29.641 57.805 29.112 L 57.276 28.583 37.180 28.554 C 26.127 28.538,16.980 28.566,16.854 28.616 M26.031 36.953 C 25.831 37.202,25.667 37.502,25.667 37.620 C 25.667 37.737,25.592 37.833,25.500 37.833 C 25.390 37.833,25.333 44.639,25.333 57.917 C 25.333 69.566,25.396 78.000,25.482 78.000 C 25.564 78.000,25.676 78.183,25.732 78.406 C 25.788 78.629,26.003 78.864,26.209 78.928 C 26.831 79.122,26.828 79.078,26.831 89.591 L 26.833 99.766 26.340 100.174 C 25.851 100.580,25.604 101.667,26.000 101.667 C 26.092 101.667,26.167 101.770,26.167 101.897 C 26.167 102.366,27.970 102.506,28.405 102.071 C 28.798 101.679,28.753 100.404,28.333 100.045 C 27.914 99.685,27.795 79.000,28.213 79.000 C 28.330 79.000,28.574 78.831,28.755 78.625 C 29.204 78.113,29.280 37.776,28.833 37.286 C 28.696 37.135,28.487 36.896,28.368 36.756 C 27.974 36.286,26.465 36.413,26.031 36.953 M36.042 36.618 C 35.817 36.661,35.627 36.852,35.566 37.095 C 35.510 37.318,35.397 37.500,35.315 37.500 C 35.229 37.500,35.167 46.037,35.167 57.833 C 35.167 70.298,35.227 78.167,35.322 78.167 C 35.408 78.167,35.525 78.316,35.583 78.500 C 35.641 78.683,35.871 78.878,36.094 78.934 L 36.500 79.036 36.500 87.338 C 36.500 96.016,36.491 96.167,35.982 96.167 C 35.579 96.167,35.516 97.873,35.905 98.262 C 36.667 99.024,38.333 98.325,38.333 97.243 C 38.333 96.693,38.260 96.537,37.708 95.923 C 37.548 95.743,37.500 93.789,37.500 87.358 L 37.500 79.026 38.000 78.917 C 38.344 78.841,38.500 78.707,38.500 78.487 C 38.500 78.311,38.575 78.167,38.667 78.167 C 38.777 78.167,38.833 71.278,38.833 57.833 C 38.833 46.037,38.771 37.500,38.685 37.500 C 38.603 37.500,38.491 37.321,38.437 37.103 C 38.299 36.557,37.353 36.365,36.042 36.618 M45.417 37.045 L 44.917 37.583 44.917 57.944 L 44.917 78.305 45.317 78.653 C 45.537 78.844,45.811 79.000,45.924 79.000 C 46.303 79.000,46.333 79.492,46.333 85.680 C 46.333 90.563,46.289 91.833,46.120 91.833 C 45.395 91.833,45.067 93.400,45.667 94.000 C 46.019 94.352,47.333 94.484,47.333 94.167 C 47.333 94.075,47.477 94.000,47.653 94.000 C 48.367 94.000,48.290 92.079,47.570 91.898 L 47.167 91.797 47.167 85.662 C 47.167 79.290,47.188 79.000,47.647 79.000 C 48.638 79.000,48.579 80.273,48.627 57.946 L 48.671 37.642 48.132 37.071 C 47.361 36.254,46.162 36.242,45.417 37.045 M300.667 36.833 C 300.667 36.926,300.222 37.000,299.667 37.000 C 299.117 37.000,298.667 37.066,298.667 37.147 C 298.667 37.228,298.179 37.347,297.583 37.411 C 296.987 37.474,296.500 37.586,296.500 37.659 C 296.500 37.731,296.200 37.839,295.833 37.897 C 295.467 37.956,295.167 38.071,295.167 38.154 C 295.167 38.237,294.867 38.355,294.500 38.417 C 294.133 38.479,293.833 38.598,293.833 38.681 C 293.833 38.765,293.718 38.833,293.578 38.833 C 293.438 38.833,293.280 38.946,293.227 39.083 C 293.174 39.221,293.027 39.333,292.899 39.333 C 292.771 39.333,292.667 39.403,292.667 39.489 C 292.667 39.574,292.498 39.697,292.292 39.762 C 292.085 39.827,291.751 40.057,291.550 40.273 C 291.348 40.490,291.110 40.667,291.021 40.667 C 290.821 40.667,289.833 41.639,289.833 41.835 C 289.833 41.913,289.683 42.025,289.500 42.083 C 289.317 42.142,289.167 42.297,289.167 42.430 C 289.167 42.562,289.017 42.798,288.833 42.955 C 288.650 43.112,288.500 43.337,288.500 43.454 C 288.500 43.571,288.426 43.667,288.337 43.667 C 288.247 43.667,288.126 43.854,288.068 44.083 C 288.011 44.313,287.903 44.500,287.829 44.500 C 287.754 44.500,287.644 44.725,287.583 45.000 C 287.523 45.275,287.404 45.500,287.320 45.500 C 287.236 45.500,287.167 45.612,287.167 45.750 C 287.167 45.887,287.099 46.000,287.016 46.000 C 286.933 46.000,286.813 46.375,286.750 46.833 C 286.687 47.292,286.572 47.667,286.494 47.667 C 286.417 47.667,286.302 48.192,286.239 48.833 C 286.175 49.475,286.058 50.000,285.978 50.000 C 285.899 50.000,285.833 51.387,285.833 53.083 C 285.833 54.779,285.899 56.167,285.978 56.167 C 286.058 56.167,286.175 56.692,286.239 57.333 C 286.302 57.975,286.414 58.500,286.488 58.500 C 286.562 58.500,286.665 58.817,286.717 59.205 C 286.769 59.592,286.892 59.936,286.989 59.969 C 287.087 60.001,287.167 60.172,287.167 60.347 C 287.167 60.523,287.233 60.667,287.315 60.667 C 287.396 60.667,287.512 60.929,287.572 61.250 C 287.633 61.571,287.752 61.833,287.838 61.833 C 287.923 61.833,288.041 62.021,288.098 62.250 C 288.156 62.479,288.265 62.667,288.340 62.667 C 288.416 62.667,288.529 62.828,288.592 63.026 C 288.654 63.224,288.903 63.559,289.144 63.772 C 289.386 63.985,289.639 64.217,289.707 64.288 C 291.000 65.638,291.399 66.000,291.596 66.000 C 291.727 66.000,291.833 66.074,291.833 66.163 C 291.833 66.253,292.018 66.373,292.244 66.430 C 292.470 66.487,292.698 66.670,292.752 66.838 C 292.805 67.006,293.070 67.192,293.341 67.252 C 293.612 67.311,293.833 67.422,293.833 67.499 C 293.833 67.575,294.133 67.688,294.500 67.750 C 294.867 67.812,295.167 67.924,295.167 67.999 C 295.167 68.074,295.560 68.189,296.042 68.255 C 296.523 68.320,296.970 68.458,297.036 68.562 C 297.207 68.833,305.632 68.826,305.800 68.554 C 305.866 68.447,306.388 68.306,306.960 68.241 C 307.532 68.177,308.000 68.062,308.000 67.986 C 308.000 67.910,308.262 67.799,308.583 67.739 C 308.904 67.679,309.167 67.564,309.167 67.483 C 309.167 67.403,309.467 67.289,309.833 67.231 C 310.200 67.172,310.500 67.059,310.500 66.979 C 310.500 66.899,310.612 66.833,310.750 66.833 C 310.887 66.833,311.000 66.760,311.000 66.670 C 311.000 66.580,311.188 66.459,311.417 66.402 C 311.646 66.344,311.833 66.236,311.833 66.162 C 311.833 66.087,312.058 65.977,312.333 65.917 L 312.833 65.807 312.833 62.570 L 312.833 59.333 311.938 59.333 L 311.043 59.333 310.936 60.000 C 310.877 60.367,310.761 60.667,310.678 60.667 C 310.595 60.667,310.478 60.885,310.420 61.153 C 310.361 61.420,310.205 61.680,310.073 61.731 C 309.941 61.781,309.833 61.975,309.833 62.161 C 309.833 62.348,309.762 62.500,309.676 62.500 C 309.589 62.500,309.149 62.875,308.698 63.333 C 308.247 63.792,307.809 64.167,307.726 64.167 C 307.642 64.167,307.467 64.314,307.338 64.494 C 307.208 64.674,306.891 64.867,306.634 64.924 C 306.377 64.980,306.167 65.090,306.167 65.167 C 306.167 65.244,305.923 65.360,305.625 65.424 C 305.327 65.489,305.040 65.610,304.986 65.694 C 304.933 65.777,304.239 65.891,303.445 65.948 C 302.650 66.004,302.000 66.113,302.000 66.191 C 302.000 66.269,301.813 66.333,301.583 66.333 C 301.354 66.333,301.167 66.269,301.167 66.191 C 301.167 66.112,300.593 66.005,299.892 65.952 C 299.190 65.899,298.572 65.785,298.517 65.699 C 298.462 65.612,298.173 65.489,297.875 65.424 C 297.577 65.360,297.333 65.243,297.333 65.165 C 297.333 65.086,297.165 64.969,296.958 64.904 C 296.752 64.839,296.462 64.646,296.314 64.476 C 296.166 64.306,295.986 64.167,295.914 64.167 C 295.842 64.167,295.529 63.904,295.217 63.583 C 294.906 63.262,294.584 63.000,294.503 63.000 C 294.422 63.000,294.303 62.831,294.238 62.625 C 294.173 62.419,293.946 62.088,293.734 61.889 C 293.521 61.691,293.298 61.335,293.239 61.098 C 293.179 60.861,293.064 60.667,292.982 60.667 C 292.900 60.667,292.833 60.584,292.833 60.484 C 292.833 60.241,292.303 59.109,292.135 58.991 C 292.062 58.940,291.953 58.528,291.892 58.074 C 291.832 57.621,291.700 57.196,291.599 57.131 C 291.342 56.963,291.344 48.534,291.602 48.369 C 291.704 48.304,291.840 47.894,291.904 47.458 C 291.968 47.023,292.091 46.667,292.177 46.667 C 292.263 46.667,292.333 46.479,292.333 46.250 C 292.333 46.021,292.402 45.833,292.487 45.833 C 292.571 45.833,292.690 45.608,292.750 45.333 C 292.810 45.058,292.929 44.833,293.013 44.833 C 293.098 44.833,293.167 44.681,293.167 44.495 C 293.167 44.309,293.279 44.113,293.417 44.060 C 293.554 44.008,293.667 43.866,293.667 43.745 C 293.667 43.624,293.901 43.304,294.187 43.033 C 294.831 42.421,294.921 42.331,295.533 41.687 C 295.804 41.401,296.132 41.167,296.263 41.167 C 296.393 41.167,296.500 41.093,296.500 41.003 C 296.500 40.913,296.688 40.793,296.917 40.735 C 297.146 40.678,297.333 40.570,297.333 40.495 C 297.333 40.421,297.558 40.310,297.833 40.250 C 298.108 40.190,298.333 40.071,298.333 39.987 C 298.333 39.902,298.552 39.833,298.819 39.833 C 299.087 39.833,299.337 39.740,299.375 39.625 C 299.426 39.471,300.070 39.417,301.833 39.417 C 303.596 39.417,304.240 39.471,304.292 39.625 C 304.330 39.740,304.580 39.833,304.847 39.833 C 305.115 39.833,305.333 39.902,305.333 39.987 C 305.333 40.071,305.558 40.190,305.833 40.250 C 306.108 40.310,306.333 40.424,306.333 40.502 C 306.333 40.580,306.502 40.697,306.708 40.762 C 307.168 40.907,309.167 42.942,309.167 43.266 C 309.167 43.395,309.242 43.500,309.333 43.500 C 309.425 43.500,309.500 43.604,309.500 43.732 C 309.500 43.860,309.612 44.008,309.750 44.060 C 309.887 44.113,310.000 44.309,310.000 44.495 C 310.000 44.681,310.069 44.833,310.153 44.833 C 310.238 44.833,310.359 45.073,310.424 45.366 C 310.594 46.141,310.871 46.333,311.821 46.333 L 312.667 46.333 312.667 43.101 C 312.667 39.645,312.672 39.667,311.820 39.667 C 311.644 39.667,311.500 39.592,311.500 39.500 C 311.500 39.408,311.387 39.333,311.250 39.333 C 311.112 39.333,311.000 39.264,311.000 39.180 C 311.000 39.096,310.775 38.977,310.500 38.917 C 310.225 38.856,310.000 38.739,310.000 38.655 C 310.000 38.572,309.700 38.456,309.333 38.397 C 308.967 38.339,308.667 38.230,308.667 38.156 C 308.667 38.081,308.329 37.970,307.917 37.908 C 307.504 37.846,307.167 37.735,307.167 37.661 C 307.167 37.587,306.679 37.474,306.083 37.411 C 305.487 37.347,305.000 37.228,305.000 37.147 C 305.000 37.066,304.587 37.000,304.083 37.000 C 303.579 37.000,303.167 36.925,303.167 36.833 C 303.167 36.737,302.639 36.667,301.917 36.667 C 301.194 36.667,300.667 36.737,300.667 36.833 M76.708 37.444 C 76.578 37.496,76.500 37.861,76.500 38.413 C 76.500 39.403,76.605 39.500,77.680 39.500 C 78.039 39.500,78.333 39.575,78.333 39.667 C 78.333 39.758,78.671 39.833,79.083 39.833 C 79.496 39.833,79.833 39.908,79.833 40.000 C 79.833 40.092,79.946 40.167,80.083 40.167 C 80.303 40.167,80.333 41.701,80.333 52.977 L 80.333 65.787 79.458 65.892 C 78.977 65.950,78.340 65.998,78.042 65.999 C 77.744 65.999,77.500 66.075,77.500 66.167 C 77.500 66.258,77.275 66.333,77.000 66.333 L 76.500 66.333 76.500 67.333 L 76.500 68.333 88.310 68.333 L 100.120 68.333 100.225 67.458 C 100.283 66.977,100.331 66.340,100.332 66.042 C 100.333 65.744,100.399 65.500,100.480 65.500 C 100.561 65.500,100.680 64.862,100.745 64.083 C 100.810 63.304,100.932 62.667,101.015 62.667 C 101.098 62.667,101.167 62.367,101.167 62.000 C 101.167 61.633,101.246 61.333,101.342 61.333 C 101.449 61.333,101.498 60.991,101.467 60.458 L 101.417 59.583 100.292 59.534 C 99.273 59.489,99.167 59.515,99.167 59.808 C 99.167 59.986,99.054 60.174,98.917 60.227 C 98.779 60.280,98.667 60.421,98.667 60.541 C 98.667 60.661,98.517 60.868,98.333 61.000 C 98.150 61.132,98.000 61.339,98.000 61.459 C 98.000 61.579,97.888 61.720,97.750 61.773 C 97.612 61.826,97.500 61.994,97.500 62.147 C 97.500 62.301,97.350 62.554,97.167 62.711 C 96.983 62.868,96.833 63.102,96.833 63.231 C 96.833 63.359,96.721 63.508,96.583 63.560 C 96.446 63.613,96.333 63.755,96.333 63.875 C 96.333 63.995,96.183 64.201,96.000 64.333 C 95.817 64.465,95.667 64.664,95.667 64.775 C 95.667 64.886,95.569 65.075,95.449 65.196 C 95.329 65.318,95.182 65.548,95.121 65.708 C 95.019 65.977,94.627 66.000,90.172 66.000 L 85.333 66.000 85.333 53.083 C 85.333 41.713,85.363 40.167,85.583 40.167 C 85.721 40.167,85.833 40.092,85.833 40.000 C 85.833 39.908,86.246 39.833,86.750 39.833 C 87.254 39.833,87.667 39.758,87.667 39.667 C 87.667 39.575,87.961 39.500,88.320 39.500 C 89.394 39.500,89.500 39.403,89.500 38.417 C 89.500 37.767,89.431 37.509,89.236 37.434 C 88.922 37.314,77.009 37.323,76.708 37.444 M257.833 45.145 C 257.833 45.225,257.226 45.326,256.485 45.369 C 255.743 45.412,255.086 45.528,255.025 45.627 C 254.963 45.726,254.703 45.860,254.445 45.924 C 254.187 45.989,253.889 46.183,253.782 46.354 C 253.674 46.526,253.498 46.667,253.389 46.667 C 253.132 46.667,252.167 47.634,252.167 47.893 C 252.167 48.003,252.019 48.199,251.839 48.329 C 251.660 48.459,251.463 48.794,251.402 49.074 C 251.341 49.354,251.207 49.637,251.104 49.702 C 250.848 49.865,250.847 53.634,251.103 53.798 C 251.205 53.863,251.342 54.088,251.407 54.298 C 251.545 54.738,253.368 56.667,253.646 56.667 C 253.749 56.667,253.833 56.740,253.833 56.830 C 253.833 56.920,254.021 57.041,254.250 57.098 C 254.479 57.156,254.667 57.262,254.667 57.333 C 254.667 57.405,254.854 57.511,255.083 57.568 C 255.313 57.626,255.500 57.747,255.500 57.837 C 255.500 57.926,255.612 58.000,255.750 58.000 C 255.887 58.000,256.000 58.065,256.000 58.145 C 256.000 58.225,256.300 58.339,256.667 58.397 C 257.033 58.456,257.333 58.572,257.333 58.655 C 257.333 58.739,257.558 58.856,257.833 58.917 C 258.108 58.977,258.333 59.090,258.333 59.167 C 258.333 59.244,258.558 59.356,258.833 59.417 C 259.108 59.477,259.333 59.587,259.333 59.662 C 259.333 59.736,259.521 59.844,259.750 59.902 C 259.979 59.959,260.167 60.080,260.167 60.170 C 260.167 60.260,260.247 60.333,260.346 60.333 C 260.646 60.333,261.476 61.262,261.593 61.729 C 261.653 61.970,261.770 62.167,261.851 62.167 C 261.933 62.167,262.000 62.617,262.000 63.167 C 262.000 63.717,261.934 64.167,261.854 64.167 C 261.774 64.167,261.664 64.389,261.609 64.661 C 261.483 65.295,261.006 65.769,260.350 65.913 C 260.066 65.975,259.833 66.096,259.833 66.180 C 259.833 66.264,259.683 66.333,259.500 66.333 C 259.317 66.333,259.167 66.408,259.167 66.500 C 259.167 66.592,258.792 66.667,258.333 66.667 C 257.875 66.667,257.500 66.592,257.500 66.500 C 257.500 66.408,257.350 66.333,257.167 66.333 C 256.983 66.333,256.833 66.268,256.833 66.188 C 256.833 66.107,256.615 65.998,256.349 65.945 C 255.763 65.828,253.884 64.008,253.734 63.414 C 253.677 63.186,253.573 63.000,253.503 63.000 C 253.433 63.000,253.328 62.700,253.269 62.333 C 253.211 61.967,253.089 61.667,252.998 61.667 C 252.907 61.667,252.833 61.442,252.833 61.167 L 252.833 60.667 251.583 60.667 L 250.333 60.667 250.333 64.521 L 250.333 68.375 251.782 68.299 C 252.678 68.252,253.256 68.149,253.296 68.028 C 253.371 67.803,254.500 67.759,254.500 67.982 C 254.500 68.064,254.705 68.182,254.957 68.245 C 255.208 68.308,255.468 68.448,255.534 68.555 C 255.698 68.820,261.460 68.831,261.631 68.566 C 261.696 68.464,262.031 68.330,262.375 68.266 C 262.719 68.203,263.000 68.080,263.000 67.992 C 263.000 67.905,263.107 67.833,263.237 67.833 C 263.368 67.833,263.686 67.609,263.946 67.336 C 265.138 66.076,265.333 65.843,265.333 65.677 C 265.333 65.580,265.400 65.500,265.482 65.500 C 265.564 65.500,265.682 65.295,265.745 65.043 C 265.808 64.792,265.946 64.534,266.051 64.469 C 266.306 64.311,266.316 60.031,266.061 59.866 C 265.962 59.802,265.830 59.473,265.768 59.134 C 265.694 58.732,265.542 58.483,265.328 58.415 C 265.147 58.358,265.000 58.209,265.000 58.084 C 265.000 57.765,263.992 56.737,263.542 56.595 C 263.335 56.531,263.167 56.414,263.167 56.335 C 263.167 56.257,262.948 56.145,262.681 56.086 C 262.413 56.028,262.153 55.872,262.102 55.740 C 262.052 55.608,261.821 55.500,261.589 55.500 C 261.357 55.500,261.167 55.425,261.167 55.333 C 261.167 55.242,261.054 55.167,260.917 55.167 C 260.779 55.167,260.667 55.093,260.667 55.002 C 260.667 54.911,260.367 54.789,260.000 54.731 C 259.633 54.672,259.333 54.565,259.333 54.492 C 259.333 54.419,259.108 54.310,258.833 54.250 C 258.558 54.190,258.333 54.077,258.333 54.000 C 258.333 53.923,258.108 53.810,257.833 53.750 C 257.558 53.690,257.333 53.579,257.333 53.505 C 257.333 53.430,257.146 53.322,256.917 53.265 C 256.688 53.207,256.500 53.087,256.500 52.997 C 256.500 52.907,256.426 52.833,256.335 52.833 C 256.089 52.833,255.500 52.288,255.500 52.060 C 255.500 51.951,255.413 51.832,255.307 51.797 C 255.034 51.706,255.021 49.632,255.293 49.541 C 255.407 49.503,255.500 49.378,255.500 49.262 C 255.500 48.938,256.228 48.167,256.533 48.167 C 256.683 48.167,256.837 48.073,256.875 47.958 C 256.971 47.671,259.694 47.666,259.790 47.953 C 259.827 48.065,260.115 48.204,260.429 48.263 C 260.743 48.322,261.000 48.431,261.000 48.505 C 261.000 48.580,261.334 48.974,261.741 49.382 C 262.149 49.789,262.532 50.320,262.593 50.562 C 262.653 50.803,262.770 51.000,262.851 51.000 C 262.933 51.000,263.000 51.112,263.000 51.250 C 263.000 51.387,263.067 51.500,263.149 51.500 C 263.230 51.500,263.347 51.697,263.407 51.937 C 263.586 52.651,263.896 52.833,264.929 52.833 L 265.882 52.833 265.763 50.375 C 265.698 49.023,265.575 47.892,265.489 47.861 C 265.403 47.831,265.333 47.394,265.333 46.891 C 265.333 46.320,265.244 45.887,265.095 45.738 C 264.801 45.444,263.389 45.416,263.293 45.703 C 263.203 45.973,261.343 45.952,261.174 45.679 C 261.105 45.566,260.489 45.436,259.775 45.382 C 259.074 45.329,258.500 45.221,258.500 45.143 C 258.500 45.064,258.350 45.000,258.167 45.000 C 257.983 45.000,257.833 45.065,257.833 45.145 M331.000 45.144 C 331.000 45.223,330.279 45.326,329.399 45.372 C 328.518 45.418,327.749 45.531,327.690 45.624 C 327.631 45.717,327.265 45.846,326.875 45.911 C 326.485 45.976,326.167 46.098,326.167 46.181 C 326.167 46.265,326.054 46.333,325.917 46.333 C 325.779 46.333,325.667 46.408,325.667 46.500 C 325.667 46.592,325.514 46.667,325.328 46.667 C 325.142 46.667,324.949 46.772,324.899 46.902 C 324.850 47.031,324.627 47.182,324.405 47.238 C 324.182 47.294,324.000 47.413,324.000 47.503 C 324.000 47.593,323.919 47.667,323.820 47.667 C 323.582 47.667,322.000 49.244,322.000 49.482 C 322.000 49.584,321.930 49.667,321.845 49.667 C 321.759 49.667,321.637 49.832,321.573 50.034 C 321.508 50.236,321.353 50.504,321.228 50.629 C 321.103 50.755,321.000 50.964,321.000 51.095 C 321.000 51.226,320.925 51.333,320.833 51.333 C 320.742 51.333,320.667 51.446,320.667 51.583 C 320.667 51.721,320.598 51.833,320.515 51.833 C 320.431 51.833,320.309 52.152,320.244 52.542 C 320.179 52.931,320.041 53.304,319.938 53.369 C 319.674 53.536,319.674 60.964,319.937 61.131 C 320.040 61.197,320.178 61.494,320.242 61.792 C 320.307 62.090,320.429 62.333,320.513 62.333 C 320.598 62.333,320.667 62.521,320.667 62.750 C 320.667 62.979,320.740 63.167,320.830 63.167 C 320.920 63.167,321.041 63.354,321.098 63.583 C 321.156 63.813,321.270 64.000,321.351 64.000 C 321.433 64.000,321.500 64.107,321.500 64.237 C 321.500 64.438,321.976 64.957,323.347 66.251 C 323.493 66.388,323.681 66.500,323.766 66.500 C 323.851 66.500,324.062 66.688,324.234 66.917 C 324.406 67.146,324.649 67.333,324.773 67.333 C 324.898 67.333,325.000 67.400,325.000 67.481 C 325.000 67.563,325.262 67.679,325.583 67.739 C 325.904 67.799,326.167 67.913,326.167 67.993 C 326.167 68.072,326.485 68.191,326.875 68.256 C 327.265 68.321,327.637 68.459,327.702 68.562 C 327.872 68.830,335.299 68.826,335.465 68.557 C 335.530 68.451,335.865 68.311,336.209 68.247 C 336.552 68.182,336.833 68.069,336.833 67.995 C 336.833 67.921,337.058 67.810,337.333 67.750 C 337.608 67.690,337.833 67.571,337.833 67.487 C 337.833 67.402,337.948 67.333,338.089 67.333 C 338.229 67.333,338.387 67.221,338.440 67.083 C 338.492 66.946,338.670 66.833,338.833 66.833 C 338.997 66.833,339.174 66.721,339.227 66.583 C 339.280 66.446,339.404 66.333,339.503 66.333 C 339.702 66.333,340.833 65.285,340.833 65.101 C 340.833 65.037,341.021 64.797,341.250 64.568 C 341.479 64.339,341.667 64.042,341.667 63.909 C 341.667 63.776,341.736 63.667,341.820 63.667 C 341.904 63.667,342.023 63.442,342.083 63.167 C 342.144 62.892,342.253 62.667,342.325 62.667 C 342.398 62.667,342.508 62.350,342.570 61.963 C 342.632 61.576,342.754 61.216,342.841 61.162 C 342.928 61.108,343.048 60.375,343.108 59.532 C 343.168 58.689,343.280 58.000,343.358 58.000 C 343.436 58.000,343.500 57.663,343.500 57.250 C 343.500 56.837,343.436 56.500,343.358 56.500 C 343.280 56.500,343.172 55.776,343.120 54.892 C 343.067 54.008,342.951 53.239,342.862 53.184 C 342.772 53.129,342.646 52.727,342.581 52.292 C 342.516 51.856,342.402 51.500,342.328 51.500 C 342.254 51.500,342.144 51.275,342.083 51.000 C 342.023 50.725,341.906 50.500,341.823 50.500 C 341.741 50.500,341.627 50.315,341.570 50.089 C 341.513 49.863,341.328 49.635,341.159 49.581 C 340.989 49.527,340.803 49.333,340.745 49.150 C 340.629 48.785,339.760 47.833,339.543 47.833 C 339.468 47.833,339.279 47.683,339.122 47.500 C 338.965 47.317,338.723 47.167,338.585 47.167 C 338.447 47.167,338.333 47.093,338.333 47.003 C 338.333 46.913,338.146 46.793,337.917 46.735 C 337.688 46.678,337.500 46.564,337.500 46.482 C 337.500 46.400,337.387 46.333,337.250 46.333 C 337.112 46.333,337.000 46.268,337.000 46.188 C 337.000 46.108,336.683 45.992,336.297 45.930 C 335.910 45.868,335.548 45.744,335.492 45.654 C 335.436 45.563,334.628 45.443,333.695 45.386 C 332.763 45.329,332.000 45.219,332.000 45.141 C 332.000 45.064,331.775 45.000,331.500 45.000 C 331.225 45.000,331.000 45.065,331.000 45.144 M115.500 45.750 C 115.500 45.887,115.432 46.000,115.348 46.000 C 115.264 46.000,115.145 46.300,115.083 46.667 C 115.021 47.033,114.903 47.333,114.821 47.333 C 114.738 47.333,114.623 47.633,114.564 48.000 C 114.505 48.367,114.392 48.667,114.312 48.667 C 114.232 48.667,114.167 48.779,114.167 48.917 C 114.167 49.054,114.101 49.167,114.021 49.167 C 113.941 49.167,113.828 49.467,113.769 49.833 C 113.711 50.200,113.598 50.500,113.519 50.500 C 113.440 50.500,113.328 50.800,113.269 51.167 C 113.211 51.533,113.095 51.833,113.013 51.833 C 112.930 51.833,112.812 52.133,112.750 52.500 C 112.688 52.867,112.577 53.167,112.504 53.167 C 112.430 53.167,112.321 53.429,112.261 53.750 C 112.201 54.071,112.080 54.333,111.992 54.333 C 111.905 54.333,111.833 54.521,111.833 54.750 C 111.833 54.979,111.759 55.167,111.669 55.167 C 111.578 55.167,111.456 55.467,111.397 55.833 C 111.339 56.200,111.231 56.500,111.159 56.500 C 111.086 56.500,110.977 56.725,110.917 57.000 C 110.856 57.275,110.747 57.500,110.675 57.500 C 110.602 57.500,110.495 57.800,110.436 58.167 C 110.377 58.533,110.262 58.833,110.179 58.833 C 110.097 58.833,109.979 59.133,109.917 59.500 C 109.855 59.867,109.736 60.167,109.652 60.167 C 109.568 60.167,109.500 60.317,109.500 60.500 C 109.500 60.683,109.426 60.833,109.335 60.833 C 109.245 60.833,109.123 61.133,109.064 61.500 C 109.005 61.867,108.893 62.167,108.814 62.167 C 108.735 62.167,108.623 62.467,108.564 62.833 C 108.505 63.200,108.393 63.500,108.314 63.500 C 108.235 63.500,108.123 63.800,108.064 64.167 C 108.005 64.533,107.901 64.833,107.831 64.833 C 107.762 64.833,107.666 64.983,107.618 65.167 C 107.559 65.392,107.391 65.500,107.099 65.500 C 106.861 65.500,106.667 65.565,106.667 65.645 C 106.667 65.725,106.367 65.839,106.000 65.897 C 105.633 65.956,105.333 66.078,105.333 66.169 C 105.333 66.259,105.146 66.333,104.917 66.333 C 104.519 66.333,104.500 66.378,104.500 67.333 L 104.500 68.333 109.167 68.333 L 113.833 68.333 113.833 67.333 C 113.833 66.444,113.796 66.333,113.500 66.333 C 113.317 66.333,113.167 66.264,113.167 66.179 C 113.167 66.094,112.754 65.972,112.250 65.909 C 111.746 65.846,111.333 65.729,111.333 65.647 C 111.333 65.566,111.146 65.500,110.917 65.500 C 110.657 65.500,110.500 65.406,110.500 65.250 C 110.500 65.112,110.574 65.000,110.665 65.000 C 110.755 65.000,110.877 64.700,110.936 64.333 C 110.995 63.967,111.101 63.667,111.173 63.667 C 111.245 63.667,111.355 63.367,111.417 63.000 C 111.479 62.633,111.589 62.333,111.663 62.333 C 111.736 62.333,111.845 62.071,111.906 61.750 L 112.015 61.167 115.856 61.167 C 119.558 61.167,119.701 61.179,119.785 61.500 C 119.833 61.683,119.929 61.833,119.998 61.833 C 120.067 61.833,120.172 62.133,120.231 62.500 C 120.289 62.867,120.411 63.167,120.502 63.167 C 120.593 63.167,120.667 63.354,120.667 63.583 C 120.667 63.813,120.741 64.000,120.831 64.000 C 120.922 64.000,121.044 64.300,121.103 64.667 C 121.161 65.033,121.275 65.333,121.355 65.333 C 121.435 65.333,121.500 65.437,121.500 65.564 C 121.500 65.817,121.005 65.994,120.292 65.998 C 120.040 65.999,119.833 66.075,119.833 66.167 C 119.833 66.258,119.618 66.333,119.355 66.333 C 118.896 66.333,118.475 67.701,118.778 68.208 C 118.819 68.277,121.174 68.333,124.010 68.333 L 129.167 68.333 129.167 67.597 C 129.167 66.604,129.038 66.333,128.566 66.333 C 128.346 66.333,128.167 66.268,128.167 66.189 C 128.167 66.109,127.869 66.004,127.505 65.955 C 126.694 65.846,126.342 65.518,126.218 64.752 C 126.166 64.430,126.061 64.167,125.986 64.167 C 125.910 64.167,125.799 63.904,125.739 63.583 C 125.679 63.262,125.563 63.000,125.481 63.000 C 125.400 63.000,125.333 62.887,125.333 62.750 C 125.333 62.612,125.268 62.500,125.188 62.500 C 125.108 62.500,124.995 62.200,124.936 61.833 C 124.877 61.467,124.762 61.167,124.680 61.167 C 124.598 61.167,124.480 60.792,124.417 60.333 C 124.354 59.875,124.240 59.500,124.164 59.500 C 124.088 59.500,123.977 59.275,123.917 59.000 C 123.856 58.725,123.738 58.500,123.653 58.500 C 123.569 58.500,123.500 58.350,123.500 58.167 C 123.500 57.983,123.435 57.833,123.355 57.833 C 123.275 57.833,123.161 57.533,123.103 57.167 C 123.044 56.800,122.932 56.500,122.853 56.500 C 122.774 56.500,122.661 56.200,122.603 55.833 C 122.544 55.467,122.432 55.167,122.353 55.167 C 122.274 55.167,122.161 54.867,122.103 54.500 C 122.044 54.133,121.922 53.833,121.831 53.833 C 121.741 53.833,121.666 53.702,121.666 53.542 C 121.665 53.381,121.553 53.035,121.416 52.773 C 121.279 52.510,121.167 52.191,121.167 52.064 C 121.167 51.937,121.101 51.833,121.021 51.833 C 120.941 51.833,120.828 51.533,120.769 51.167 C 120.711 50.800,120.590 50.500,120.500 50.500 C 120.410 50.500,120.289 50.200,120.231 49.833 C 120.172 49.467,120.065 49.167,119.993 49.167 C 119.921 49.167,119.812 48.867,119.750 48.500 C 119.688 48.133,119.577 47.833,119.504 47.833 C 119.430 47.833,119.321 47.571,119.261 47.250 C 119.201 46.929,119.080 46.667,118.992 46.667 C 118.905 46.667,118.833 46.511,118.833 46.321 C 118.833 45.665,118.451 45.500,116.929 45.500 C 115.770 45.500,115.500 45.547,115.500 45.750 M132.169 46.375 C 132.173 47.516,132.259 47.623,133.295 47.761 C 133.774 47.824,134.167 47.933,134.167 48.003 C 134.167 48.073,134.347 48.176,134.568 48.231 C 134.902 48.315,134.988 48.470,135.083 49.166 C 135.146 49.625,135.261 50.000,135.339 50.000 C 135.416 50.000,135.530 50.337,135.592 50.750 C 135.654 51.163,135.771 51.500,135.852 51.500 C 135.934 51.500,136.000 51.688,136.000 51.917 C 136.000 52.146,136.070 52.333,136.156 52.333 C 136.243 52.333,136.364 52.671,136.425 53.083 C 136.487 53.496,136.596 53.833,136.667 53.833 C 136.738 53.833,136.846 54.171,136.908 54.583 C 136.970 54.996,137.084 55.333,137.161 55.333 C 137.239 55.333,137.354 55.708,137.417 56.167 C 137.480 56.625,137.595 57.000,137.672 57.000 C 137.750 57.000,137.864 57.337,137.925 57.750 C 137.987 58.163,138.104 58.500,138.186 58.500 C 138.267 58.500,138.333 58.688,138.333 58.917 C 138.333 59.146,138.404 59.333,138.490 59.333 C 138.576 59.333,138.697 59.671,138.759 60.083 C 138.821 60.496,138.929 60.833,139.000 60.833 C 139.071 60.833,139.179 61.171,139.241 61.583 C 139.303 61.996,139.419 62.333,139.498 62.333 C 139.578 62.333,139.694 62.746,139.757 63.250 C 139.820 63.754,139.932 64.167,140.005 64.167 C 140.078 64.167,140.188 64.467,140.250 64.833 C 140.312 65.200,140.431 65.500,140.515 65.500 C 140.598 65.500,140.667 65.725,140.667 66.000 C 140.667 66.275,140.733 66.500,140.814 66.500 C 140.896 66.500,141.016 66.856,141.081 67.292 C 141.231 68.297,141.289 68.328,143.042 68.331 C 144.390 68.333,144.500 68.308,144.500 68.000 C 144.500 67.817,144.568 67.667,144.651 67.667 C 144.734 67.667,144.854 67.292,144.917 66.833 C 144.980 66.375,145.099 66.000,145.182 66.000 C 145.265 66.000,145.333 65.850,145.333 65.667 C 145.333 65.483,145.401 65.333,145.484 65.333 C 145.567 65.333,145.687 64.958,145.750 64.500 C 145.813 64.042,145.928 63.667,146.005 63.667 C 146.083 63.667,146.197 63.329,146.259 62.917 C 146.321 62.504,146.429 62.167,146.500 62.167 C 146.571 62.167,146.679 61.829,146.741 61.417 C 146.803 61.004,146.917 60.667,146.995 60.667 C 147.072 60.667,147.187 60.292,147.250 59.833 C 147.313 59.375,147.433 59.000,147.516 59.000 C 147.599 59.000,147.667 58.854,147.667 58.677 C 147.667 58.499,147.733 58.312,147.814 58.262 C 147.896 58.211,148.012 57.907,148.072 57.585 C 148.132 57.263,148.245 57.000,148.322 57.000 C 148.399 57.000,148.513 56.587,148.576 56.083 C 148.711 55.006,148.952 54.892,149.103 55.833 C 149.161 56.200,149.275 56.500,149.355 56.500 C 149.435 56.500,149.500 56.650,149.500 56.833 C 149.500 57.017,149.568 57.167,149.651 57.167 C 149.734 57.167,149.854 57.542,149.917 58.000 C 149.980 58.458,150.095 58.833,150.172 58.833 C 150.250 58.833,150.364 59.171,150.425 59.583 C 150.487 59.996,150.596 60.333,150.667 60.333 C 150.738 60.333,150.846 60.671,150.908 61.083 C 150.970 61.496,151.084 61.833,151.161 61.833 C 151.239 61.833,151.354 62.208,151.417 62.667 C 151.480 63.125,151.599 63.500,151.682 63.500 C 151.765 63.500,151.833 63.650,151.833 63.833 C 151.833 64.017,151.901 64.167,151.984 64.167 C 152.067 64.167,152.187 64.542,152.250 65.000 C 152.313 65.458,152.428 65.833,152.505 65.833 C 152.583 65.833,152.697 66.171,152.759 66.583 C 152.821 66.996,152.933 67.333,153.008 67.333 C 153.083 67.333,153.168 67.540,153.197 67.792 C 153.261 68.348,156.167 68.640,156.167 68.090 C 156.167 67.949,156.242 67.833,156.333 67.833 C 156.425 67.833,156.500 67.729,156.500 67.602 C 156.500 67.475,156.612 67.157,156.749 66.894 C 156.886 66.631,156.998 66.285,156.999 66.125 C 157.000 65.965,157.068 65.833,157.151 65.833 C 157.234 65.833,157.354 65.458,157.417 65.000 C 157.480 64.542,157.596 64.167,157.675 64.167 C 157.754 64.167,157.867 63.904,157.928 63.583 C 157.988 63.262,158.097 63.000,158.170 63.000 C 158.242 63.000,158.354 62.625,158.417 62.167 C 158.480 61.708,158.599 61.333,158.682 61.333 C 158.765 61.333,158.833 61.221,158.833 61.083 C 158.833 60.946,158.900 60.833,158.981 60.833 C 159.062 60.833,159.179 60.496,159.241 60.083 C 159.303 59.671,159.423 59.333,159.508 59.333 C 159.593 59.333,159.711 59.033,159.769 58.667 C 159.828 58.300,159.932 58.000,160.000 58.000 C 160.068 58.000,160.172 57.700,160.231 57.333 C 160.289 56.967,160.407 56.667,160.492 56.667 C 160.577 56.667,160.697 56.329,160.759 55.917 C 160.821 55.504,160.938 55.167,161.019 55.167 C 161.100 55.167,161.167 54.979,161.167 54.750 C 161.167 54.521,161.241 54.333,161.331 54.333 C 161.422 54.333,161.544 54.033,161.603 53.667 C 161.661 53.300,161.770 53.000,161.844 53.000 C 161.919 53.000,162.030 52.663,162.092 52.250 C 162.154 51.837,162.270 51.500,162.350 51.500 C 162.430 51.500,162.544 51.200,162.603 50.833 C 162.661 50.467,162.765 50.167,162.834 50.167 C 162.902 50.167,163.004 49.940,163.059 49.662 C 163.188 49.017,163.850 48.355,164.496 48.226 C 164.773 48.170,165.000 48.068,165.000 47.998 C 165.000 47.928,165.262 47.821,165.583 47.761 L 166.167 47.652 166.167 46.576 L 166.167 45.500 161.583 45.500 L 157.000 45.500 157.000 46.568 L 157.000 47.635 157.833 47.750 C 158.292 47.813,158.667 47.930,158.667 48.010 C 158.667 48.090,159.050 48.206,159.518 48.268 L 160.369 48.381 160.274 48.969 C 160.221 49.292,160.108 49.600,160.022 49.653 C 159.936 49.706,159.813 50.106,159.747 50.542 C 159.682 50.977,159.567 51.333,159.491 51.333 C 159.416 51.333,159.303 51.671,159.241 52.083 C 159.179 52.496,159.063 52.833,158.983 52.833 C 158.903 52.833,158.789 53.133,158.731 53.500 C 158.672 53.867,158.559 54.167,158.479 54.167 C 158.399 54.167,158.333 54.312,158.333 54.490 C 158.333 54.668,158.267 54.855,158.186 54.905 C 158.104 54.955,157.988 55.260,157.928 55.581 C 157.868 55.903,157.754 56.167,157.675 56.167 C 157.596 56.167,157.480 56.542,157.417 57.000 C 157.354 57.458,157.239 57.833,157.161 57.833 C 157.084 57.833,156.970 58.171,156.908 58.583 C 156.846 58.996,156.730 59.333,156.650 59.333 C 156.570 59.333,156.456 59.633,156.397 60.000 C 156.339 60.367,156.225 60.667,156.145 60.667 C 156.065 60.667,156.000 60.779,156.000 60.917 C 156.000 61.369,155.660 61.177,155.558 60.667 C 155.503 60.392,155.403 60.167,155.336 60.167 C 155.268 60.167,155.167 59.773,155.110 59.293 C 155.053 58.812,154.930 58.393,154.836 58.362 C 154.743 58.331,154.667 58.124,154.667 57.903 C 154.667 57.681,154.600 57.500,154.519 57.500 C 154.438 57.500,154.321 57.163,154.259 56.750 C 154.197 56.337,154.083 56.000,154.005 56.000 C 153.928 56.000,153.813 55.625,153.750 55.167 C 153.687 54.708,153.572 54.333,153.495 54.333 C 153.417 54.333,153.303 53.996,153.241 53.583 C 153.179 53.171,153.071 52.833,153.000 52.833 C 152.929 52.833,152.821 52.496,152.759 52.083 C 152.697 51.671,152.576 51.333,152.490 51.333 C 152.404 51.333,152.333 51.146,152.333 50.917 C 152.333 50.688,152.267 50.500,152.186 50.500 C 152.104 50.500,151.987 50.163,151.925 49.750 C 151.864 49.337,151.743 49.000,151.656 49.000 C 151.570 49.000,151.500 48.813,151.500 48.583 C 151.500 48.324,151.594 48.167,151.750 48.167 C 151.887 48.167,152.000 48.100,152.000 48.019 C 152.000 47.938,152.487 47.820,153.083 47.756 L 154.167 47.640 154.167 46.570 L 154.167 45.500 149.250 45.500 L 144.333 45.500 144.336 46.375 C 144.339 47.499,144.422 47.610,145.375 47.753 C 145.810 47.818,146.167 47.929,146.167 47.999 C 146.167 48.070,146.317 48.167,146.500 48.215 C 146.725 48.274,146.833 48.442,146.833 48.734 C 146.833 48.972,146.908 49.167,147.000 49.167 C 147.092 49.167,147.167 49.348,147.167 49.569 C 147.167 49.791,147.249 50.000,147.350 50.033 C 147.605 50.118,147.614 52.212,147.361 52.296 C 147.254 52.332,147.167 52.542,147.167 52.764 C 147.167 52.985,147.100 53.167,147.019 53.167 C 146.937 53.167,146.821 53.429,146.761 53.750 C 146.701 54.071,146.587 54.333,146.508 54.333 C 146.429 54.333,146.313 54.708,146.250 55.167 C 146.187 55.625,146.071 56.000,145.992 56.000 C 145.913 56.000,145.799 56.262,145.739 56.583 C 145.679 56.904,145.563 57.167,145.481 57.167 C 145.400 57.167,145.333 57.354,145.333 57.583 C 145.333 57.813,145.268 58.000,145.188 58.000 C 145.108 58.000,144.995 58.300,144.936 58.667 C 144.877 59.033,144.765 59.333,144.686 59.333 C 144.607 59.333,144.495 59.633,144.436 60.000 C 144.377 60.367,144.261 60.667,144.177 60.667 C 144.093 60.667,143.990 60.798,143.948 60.958 C 143.876 61.236,143.871 61.236,143.853 60.958 C 143.842 60.798,143.758 60.667,143.667 60.667 C 143.575 60.667,143.500 60.479,143.500 60.250 C 143.500 60.021,143.434 59.833,143.352 59.833 C 143.271 59.833,143.154 59.496,143.092 59.083 C 143.030 58.671,142.916 58.333,142.839 58.333 C 142.761 58.333,142.646 57.958,142.583 57.500 C 142.520 57.042,142.405 56.667,142.328 56.667 C 142.250 56.667,142.136 56.329,142.075 55.917 C 142.013 55.504,141.906 55.167,141.836 55.167 C 141.767 55.167,141.668 54.850,141.616 54.462 C 141.564 54.074,141.442 53.731,141.344 53.698 C 141.247 53.666,141.167 53.383,141.167 53.069 C 141.167 52.756,141.096 52.500,141.010 52.500 C 140.924 52.500,140.803 52.163,140.741 51.750 C 140.679 51.337,140.572 51.000,140.502 51.000 C 140.433 51.000,140.325 50.683,140.263 50.297 C 140.202 49.910,140.090 49.554,140.016 49.505 C 139.727 49.316,139.635 48.167,139.909 48.167 C 140.051 48.167,140.167 48.102,140.167 48.023 C 140.167 47.944,140.579 47.837,141.083 47.785 C 142.254 47.664,142.500 47.415,142.500 46.345 L 142.500 45.500 137.333 45.500 L 132.167 45.500 132.169 46.375 M169.167 46.345 C 169.167 47.389,169.378 47.617,170.480 47.763 C 170.949 47.825,171.333 47.937,171.333 48.010 C 171.333 48.084,171.540 48.168,171.792 48.197 C 172.120 48.235,172.265 48.356,172.303 48.625 C 172.333 48.831,172.420 49.000,172.498 49.000 C 172.576 49.000,172.688 49.219,172.747 49.486 C 172.806 49.753,172.962 50.014,173.094 50.064 C 173.225 50.115,173.333 50.271,173.333 50.411 C 173.333 50.552,173.408 50.667,173.500 50.667 C 173.592 50.667,173.667 50.819,173.667 51.005 C 173.667 51.191,173.779 51.387,173.917 51.440 C 174.054 51.492,174.167 51.640,174.167 51.768 C 174.167 51.896,174.234 52.000,174.315 52.000 C 174.397 52.000,174.511 52.188,174.568 52.417 C 174.626 52.646,174.741 52.833,174.823 52.833 C 174.906 52.833,175.023 53.058,175.083 53.333 C 175.144 53.608,175.261 53.833,175.343 53.833 C 175.426 53.833,175.541 54.021,175.598 54.250 C 175.656 54.479,175.770 54.667,175.851 54.667 C 175.933 54.667,176.000 54.779,176.000 54.917 C 176.000 55.054,176.067 55.167,176.149 55.167 C 176.230 55.167,176.344 55.354,176.402 55.583 C 176.459 55.813,176.574 56.000,176.657 56.000 C 176.739 56.000,176.855 56.219,176.914 56.486 C 176.972 56.753,177.128 57.014,177.260 57.064 C 177.392 57.115,177.500 57.271,177.500 57.411 C 177.500 57.552,177.575 57.667,177.667 57.667 C 177.758 57.667,177.833 57.819,177.833 58.005 C 177.833 58.191,177.946 58.387,178.083 58.440 C 178.221 58.492,178.333 58.640,178.333 58.768 C 178.333 58.896,178.408 59.000,178.500 59.000 C 178.606 59.000,178.667 60.243,178.667 62.396 L 178.667 65.792 178.146 65.896 C 177.859 65.953,177.447 66.000,177.229 66.000 C 177.011 66.000,176.833 66.075,176.833 66.167 C 176.833 66.258,176.533 66.333,176.167 66.333 L 175.500 66.333 175.500 67.333 L 175.500 68.333 180.917 68.333 L 186.333 68.333 186.333 67.333 L 186.333 66.333 185.833 66.333 C 185.558 66.333,185.333 66.258,185.333 66.167 C 185.333 66.075,185.127 65.999,184.875 65.998 C 184.623 65.997,184.135 65.950,183.792 65.893 L 183.167 65.790 183.167 62.562 C 183.167 60.521,183.228 59.333,183.333 59.333 C 183.425 59.333,183.500 59.221,183.500 59.083 C 183.500 58.946,183.567 58.833,183.649 58.833 C 183.730 58.833,183.844 58.646,183.902 58.417 C 183.959 58.188,184.074 58.000,184.157 58.000 C 184.239 58.000,184.356 57.775,184.417 57.500 C 184.477 57.225,184.587 57.000,184.662 57.000 C 184.736 57.000,184.844 56.813,184.902 56.583 C 184.959 56.354,185.080 56.167,185.170 56.167 C 185.260 56.167,185.333 56.054,185.333 55.917 C 185.333 55.779,185.407 55.667,185.497 55.667 C 185.587 55.667,185.707 55.479,185.765 55.250 C 185.822 55.021,185.936 54.833,186.018 54.833 C 186.100 54.833,186.167 54.718,186.167 54.578 C 186.167 54.438,186.277 54.280,186.412 54.229 C 186.547 54.177,186.705 53.884,186.762 53.579 C 186.819 53.273,186.971 52.983,187.100 52.933 C 187.228 52.884,187.333 52.729,187.333 52.589 C 187.333 52.448,187.408 52.333,187.500 52.333 C 187.592 52.333,187.667 52.221,187.667 52.083 C 187.667 51.946,187.740 51.833,187.830 51.833 C 187.920 51.833,188.041 51.646,188.098 51.417 C 188.156 51.188,188.270 51.000,188.351 51.000 C 188.433 51.000,188.500 50.893,188.500 50.762 C 188.500 50.631,188.603 50.421,188.728 50.296 C 188.853 50.170,189.010 49.899,189.075 49.692 C 189.272 49.073,190.131 48.318,190.755 48.217 C 191.073 48.165,191.333 48.059,191.333 47.980 C 191.333 47.902,191.633 47.789,192.000 47.731 L 192.667 47.624 192.667 46.562 L 192.667 45.500 188.101 45.500 C 183.061 45.500,183.333 45.438,183.333 46.583 C 183.333 47.450,183.484 47.660,184.185 47.772 C 184.542 47.829,184.833 47.933,184.833 48.002 C 184.833 48.071,185.246 48.180,185.750 48.243 C 186.494 48.336,187.090 48.667,186.513 48.667 C 186.429 48.667,186.310 48.892,186.250 49.167 C 186.190 49.442,186.073 49.667,185.990 49.667 C 185.907 49.667,185.793 49.854,185.735 50.083 C 185.678 50.313,185.564 50.500,185.482 50.500 C 185.400 50.500,185.333 50.612,185.333 50.750 C 185.333 50.887,185.260 51.000,185.170 51.000 C 185.080 51.000,184.959 51.188,184.902 51.417 C 184.844 51.646,184.730 51.833,184.649 51.833 C 184.567 51.833,184.500 51.948,184.500 52.089 C 184.500 52.229,184.395 52.384,184.266 52.433 C 184.138 52.483,183.986 52.773,183.929 53.079 C 183.871 53.384,183.714 53.677,183.579 53.729 C 183.444 53.780,183.333 53.938,183.333 54.078 C 183.333 54.218,183.267 54.333,183.186 54.333 C 183.105 54.333,182.995 54.465,182.941 54.625 C 182.557 55.768,181.755 56.328,181.568 55.583 C 181.511 55.354,181.397 55.167,181.315 55.167 C 181.234 55.167,181.167 55.054,181.167 54.917 C 181.167 54.779,181.093 54.667,181.003 54.667 C 180.913 54.667,180.793 54.479,180.735 54.250 C 180.678 54.021,180.570 53.833,180.495 53.833 C 180.421 53.833,180.310 53.608,180.250 53.333 C 180.190 53.058,180.079 52.833,180.005 52.833 C 179.930 52.833,179.822 52.646,179.765 52.417 C 179.707 52.188,179.593 52.000,179.510 52.000 C 179.427 52.000,179.310 51.775,179.250 51.500 C 179.190 51.225,179.071 51.000,178.987 51.000 C 178.902 51.000,178.833 50.887,178.833 50.750 C 178.833 50.612,178.760 50.500,178.670 50.500 C 178.580 50.500,178.459 50.313,178.402 50.083 C 178.344 49.854,178.236 49.667,178.162 49.667 C 178.087 49.667,177.978 49.448,177.920 49.181 C 177.861 48.913,177.705 48.653,177.573 48.602 C 177.257 48.481,177.265 48.167,177.583 48.167 C 177.721 48.167,177.833 48.101,177.833 48.021 C 177.833 47.942,178.226 47.824,178.705 47.761 C 179.741 47.623,179.827 47.516,179.831 46.375 L 179.833 45.500 174.500 45.500 L 169.167 45.500 169.167 46.345 M197.000 46.345 C 197.000 47.402,197.200 47.605,198.389 47.754 C 198.909 47.819,199.333 47.938,199.333 48.019 C 199.333 48.100,199.521 48.167,199.750 48.167 L 200.167 48.167 200.167 56.981 L 200.167 65.794 199.792 65.895 C 199.585 65.950,199.173 65.996,198.875 65.998 C 198.577 65.999,198.333 66.075,198.333 66.167 C 198.333 66.258,198.140 66.333,197.905 66.333 C 197.273 66.333,197.000 66.706,197.000 67.571 L 197.000 68.333 206.486 68.333 C 217.316 68.333,216.500 68.423,216.500 67.232 C 216.500 66.738,216.569 66.333,216.653 66.333 C 216.738 66.333,216.860 65.583,216.925 64.667 C 216.990 63.750,217.108 63.000,217.188 63.000 C 217.268 63.000,217.333 62.813,217.333 62.583 C 217.333 62.182,217.294 62.167,216.252 62.167 C 215.155 62.167,214.500 62.461,214.500 62.954 C 214.500 63.071,214.425 63.167,214.333 63.167 C 214.242 63.167,214.167 63.279,214.167 63.417 C 214.167 63.554,214.093 63.667,214.003 63.667 C 213.913 63.667,213.793 63.854,213.735 64.083 C 213.678 64.313,213.569 64.500,213.493 64.500 C 213.418 64.500,213.304 64.662,213.242 64.859 C 212.897 65.947,212.627 66.010,208.597 65.961 L 204.917 65.917 204.870 62.167 C 204.808 57.222,204.620 57.667,206.765 57.667 C 208.727 57.667,208.882 57.737,209.065 58.713 C 209.129 59.054,209.253 59.333,209.341 59.333 C 209.428 59.333,209.500 59.446,209.500 59.583 C 209.500 59.721,209.567 59.833,209.649 59.833 C 209.730 59.833,209.844 60.021,209.902 60.250 C 209.994 60.617,210.096 60.667,210.753 60.667 L 211.500 60.667 211.500 56.917 L 211.500 53.167 210.667 53.167 C 210.037 53.167,209.833 53.228,209.833 53.417 C 209.833 53.554,209.758 53.667,209.667 53.667 C 209.575 53.667,209.500 53.779,209.500 53.917 C 209.500 54.054,209.433 54.167,209.351 54.167 C 209.270 54.167,209.153 54.363,209.093 54.603 C 208.889 55.416,208.664 55.500,206.679 55.500 L 204.833 55.500 204.833 51.930 C 204.833 47.327,204.420 47.833,208.181 47.833 L 211.327 47.833 211.424 48.218 C 211.477 48.430,211.703 48.740,211.927 48.908 C 212.150 49.076,212.333 49.315,212.333 49.440 C 212.333 49.565,212.407 49.667,212.497 49.667 C 212.587 49.667,212.706 49.849,212.762 50.071 C 212.818 50.294,212.969 50.516,213.098 50.566 C 213.228 50.616,213.333 50.809,213.333 50.995 C 213.333 51.303,213.438 51.333,214.511 51.333 L 215.689 51.333 215.571 49.125 C 215.506 47.910,215.389 46.892,215.310 46.861 C 215.231 46.831,215.167 46.512,215.167 46.153 L 215.167 45.500 206.083 45.500 L 197.000 45.500 197.000 46.345 M222.167 46.345 C 222.167 47.402,222.367 47.605,223.556 47.754 C 224.075 47.819,224.500 47.938,224.500 48.019 C 224.500 48.100,224.688 48.167,224.917 48.167 L 225.333 48.167 225.333 56.981 L 225.333 65.794 224.958 65.895 C 224.752 65.950,224.340 65.996,224.042 65.998 C 223.744 65.999,223.500 66.075,223.500 66.167 C 223.500 66.258,223.307 66.333,223.071 66.333 C 222.439 66.333,222.167 66.706,222.167 67.571 L 222.167 68.333 227.667 68.333 L 233.167 68.333 233.167 67.333 L 233.167 66.333 232.583 66.333 C 232.262 66.333,232.000 66.268,232.000 66.188 C 232.000 66.108,231.550 65.992,231.000 65.930 L 230.000 65.817 230.000 62.170 C 230.000 58.723,230.018 58.517,230.319 58.421 C 230.704 58.299,231.500 58.477,231.500 58.685 C 231.500 58.766,231.623 58.833,231.772 58.833 C 232.110 58.833,233.583 60.307,233.740 60.803 C 233.804 61.003,233.926 61.167,234.011 61.167 C 234.097 61.167,234.167 61.271,234.167 61.399 C 234.167 61.527,234.279 61.674,234.417 61.727 C 234.554 61.780,234.667 61.938,234.667 62.078 C 234.667 62.218,234.742 62.333,234.833 62.333 C 234.925 62.333,235.000 62.486,235.000 62.672 C 235.000 62.858,235.108 63.052,235.240 63.102 C 235.372 63.153,235.528 63.413,235.586 63.681 C 235.645 63.948,235.761 64.167,235.843 64.167 C 235.926 64.167,236.041 64.354,236.098 64.583 C 236.156 64.813,236.270 65.000,236.351 65.000 C 236.433 65.000,236.500 65.085,236.500 65.189 C 236.500 65.293,236.688 65.552,236.917 65.765 C 237.146 65.977,237.333 66.231,237.333 66.329 C 237.333 66.427,237.751 66.918,238.261 67.420 L 239.189 68.333 242.094 68.333 L 245.000 68.333 245.000 67.597 C 245.000 66.702,244.873 66.333,244.566 66.333 C 244.438 66.333,244.333 66.268,244.333 66.188 C 244.333 66.109,244.067 66.000,243.742 65.948 C 243.166 65.854,241.167 64.080,241.167 63.662 C 241.167 63.573,241.093 63.500,241.003 63.500 C 240.913 63.500,240.794 63.318,240.738 63.095 C 240.682 62.873,240.531 62.650,240.402 62.601 C 240.272 62.551,240.167 62.366,240.167 62.190 C 240.167 62.013,240.054 61.826,239.917 61.773 C 239.779 61.720,239.667 61.562,239.667 61.422 C 239.667 61.282,239.600 61.167,239.518 61.167 C 239.436 61.167,239.322 60.979,239.265 60.750 C 239.207 60.521,239.087 60.333,238.997 60.333 C 238.907 60.333,238.833 60.221,238.833 60.083 C 238.833 59.946,238.763 59.833,238.678 59.833 C 238.592 59.833,238.473 59.678,238.413 59.489 C 238.353 59.300,237.898 58.745,237.402 58.257 C 236.302 57.174,236.302 57.230,237.403 57.092 C 237.951 57.024,238.342 56.885,238.398 56.740 C 238.448 56.608,238.642 56.500,238.828 56.500 C 239.014 56.500,239.167 56.423,239.167 56.328 C 239.167 56.234,239.298 56.108,239.458 56.048 C 239.826 55.912,240.333 55.348,240.333 55.076 C 240.333 54.962,240.446 54.826,240.583 54.773 C 240.721 54.720,240.833 54.562,240.833 54.422 C 240.833 54.282,240.890 54.167,240.959 54.167 C 241.488 54.167,241.871 49.874,241.357 49.702 C 241.252 49.667,241.167 49.495,241.167 49.319 C 241.167 49.144,241.092 49.000,241.000 49.000 C 240.908 49.000,240.833 48.893,240.833 48.762 C 240.833 48.631,240.731 48.421,240.605 48.296 C 240.480 48.170,240.325 47.903,240.261 47.701 C 240.197 47.499,239.967 47.290,239.751 47.235 C 239.535 47.181,239.317 47.031,239.267 46.902 C 239.218 46.772,239.025 46.667,238.839 46.667 C 238.652 46.667,238.500 46.592,238.500 46.500 C 238.500 46.408,238.394 46.333,238.264 46.333 C 238.134 46.333,238.002 46.257,237.971 46.164 C 237.940 46.070,237.521 45.947,237.041 45.890 C 236.560 45.833,236.167 45.722,236.167 45.643 C 236.167 45.565,233.017 45.500,229.167 45.500 L 222.167 45.500 222.167 46.345 M349.101 45.764 C 348.962 46.127,348.979 47.209,349.128 47.441 C 349.195 47.546,349.756 47.686,350.375 47.752 C 350.994 47.818,351.500 47.933,351.500 48.008 C 351.500 48.082,351.669 48.167,351.875 48.197 L 352.250 48.250 352.290 56.833 C 352.334 66.313,352.395 65.802,351.196 65.944 C 350.721 66.000,350.333 66.111,350.333 66.190 C 350.333 66.269,350.079 66.333,349.768 66.333 C 349.114 66.333,349.000 66.524,349.000 67.611 L 349.000 68.361 356.173 68.306 C 361.265 68.266,363.380 68.195,363.465 68.062 C 363.530 67.958,363.977 67.820,364.458 67.755 C 364.940 67.689,365.333 67.577,365.333 67.506 C 365.333 67.434,365.633 67.328,366.000 67.269 C 366.367 67.211,366.667 67.089,366.667 66.998 C 366.667 66.907,366.779 66.833,366.917 66.833 C 367.054 66.833,367.167 66.766,367.167 66.685 C 367.167 66.603,367.354 66.489,367.583 66.432 C 367.813 66.374,368.000 66.253,368.000 66.163 C 368.000 66.074,368.083 66.000,368.185 66.000 C 368.422 66.000,370.500 63.917,370.500 63.679 C 370.500 63.581,370.574 63.500,370.663 63.500 C 370.753 63.500,370.874 63.313,370.932 63.083 C 370.989 62.854,371.097 62.667,371.171 62.667 C 371.246 62.667,371.356 62.442,371.417 62.167 C 371.477 61.892,371.590 61.667,371.668 61.667 C 371.746 61.667,371.861 61.254,371.924 60.750 C 371.987 60.246,372.105 59.833,372.186 59.833 C 372.267 59.833,372.333 59.308,372.333 58.667 C 372.333 58.000,372.405 57.500,372.500 57.500 C 372.592 57.500,372.667 57.275,372.667 57.000 C 372.667 56.725,372.592 56.500,372.500 56.500 C 372.405 56.500,372.333 56.000,372.333 55.333 C 372.333 54.692,372.267 54.167,372.186 54.167 C 372.105 54.167,371.987 53.754,371.924 53.250 C 371.861 52.746,371.746 52.333,371.668 52.333 C 371.590 52.333,371.477 52.108,371.417 51.833 C 371.356 51.558,371.244 51.333,371.167 51.333 C 371.090 51.333,370.975 51.097,370.911 50.808 C 370.848 50.519,370.617 50.117,370.398 49.914 C 370.179 49.711,370.000 49.494,370.000 49.431 C 370.000 49.238,369.131 48.500,368.904 48.500 C 368.786 48.500,368.643 48.354,368.586 48.175 C 368.529 47.997,368.322 47.799,368.124 47.737 C 367.927 47.674,367.663 47.520,367.538 47.395 C 367.412 47.269,367.202 47.167,367.071 47.167 C 366.940 47.167,366.833 47.095,366.833 47.008 C 366.833 46.920,366.571 46.799,366.250 46.739 C 365.929 46.679,365.667 46.563,365.667 46.481 C 365.667 46.400,365.479 46.333,365.250 46.333 C 365.021 46.333,364.833 46.263,364.833 46.177 C 364.833 46.091,364.308 45.968,363.667 45.905 C 363.025 45.842,362.500 45.725,362.500 45.645 C 362.500 45.350,349.215 45.467,349.101 45.764 M378.333 46.573 L 378.333 47.646 379.500 47.761 C 380.142 47.825,380.667 47.942,380.667 48.022 C 380.667 48.101,380.854 48.167,381.083 48.167 L 381.500 48.167 381.500 56.978 L 381.500 65.790 380.875 65.893 C 380.531 65.950,380.044 65.997,379.792 65.998 C 379.540 65.999,379.333 66.075,379.333 66.167 C 379.333 66.258,379.108 66.333,378.833 66.333 L 378.333 66.333 378.333 67.333 L 378.333 68.333 387.917 68.333 C 397.389 68.333,397.500 68.329,397.500 68.000 C 397.500 67.817,397.566 67.667,397.647 67.667 C 397.727 67.667,397.847 66.879,397.913 65.917 C 397.978 64.954,398.100 64.167,398.183 64.167 C 398.266 64.167,398.333 63.717,398.333 63.167 L 398.333 62.167 397.167 62.167 C 396.241 62.167,396.000 62.218,396.000 62.417 C 396.000 62.554,395.926 62.667,395.837 62.667 C 395.747 62.667,395.626 62.854,395.568 63.083 C 395.511 63.313,395.397 63.500,395.315 63.500 C 395.234 63.500,395.167 63.615,395.167 63.755 C 395.167 63.896,395.054 64.054,394.917 64.106 C 394.779 64.159,394.667 64.347,394.667 64.523 C 394.667 64.699,394.554 64.887,394.417 64.940 C 394.279 64.992,394.167 65.102,394.167 65.183 C 394.167 65.919,393.743 66.000,389.880 66.000 L 386.167 66.000 386.167 61.833 L 386.167 57.667 387.989 57.667 C 389.664 57.667,389.819 57.693,389.917 58.000 C 389.975 58.183,390.089 58.333,390.170 58.333 C 390.252 58.333,390.367 58.596,390.428 58.917 C 390.488 59.237,390.600 59.500,390.678 59.500 C 390.755 59.500,390.867 59.762,390.928 60.083 C 391.037 60.664,391.041 60.667,391.935 60.667 L 392.833 60.667 392.833 56.917 L 392.833 53.167 391.901 53.167 C 391.109 53.167,390.956 53.217,390.882 53.500 C 390.834 53.683,390.732 53.833,390.655 53.833 C 390.578 53.833,390.463 54.113,390.399 54.454 C 390.215 55.436,390.068 55.500,388.012 55.500 L 386.167 55.500 386.167 51.930 C 386.167 47.339,385.791 47.833,389.281 47.833 L 392.192 47.833 392.657 48.298 C 392.913 48.554,393.172 48.922,393.234 49.116 C 393.296 49.310,393.456 49.511,393.590 49.563 C 393.724 49.614,393.833 49.744,393.833 49.850 C 393.833 49.957,393.973 50.166,394.143 50.314 C 394.313 50.462,394.506 50.752,394.571 50.958 C 394.679 51.300,394.792 51.333,395.845 51.333 L 397.002 51.333 396.892 49.625 C 396.832 48.685,396.719 47.892,396.641 47.861 C 396.564 47.831,396.500 47.287,396.500 46.653 L 396.500 45.500 387.417 45.500 L 378.333 45.500 378.333 46.573 M333.305 47.998 C 333.336 48.091,333.537 48.167,333.752 48.167 C 333.967 48.167,334.255 48.279,334.393 48.417 C 334.530 48.554,334.679 48.667,334.722 48.667 C 334.891 48.667,336.500 50.313,336.500 50.485 C 336.500 50.585,336.574 50.667,336.663 50.667 C 336.753 50.667,336.874 50.854,336.932 51.083 C 336.989 51.313,337.100 51.500,337.177 51.500 C 337.255 51.500,337.370 51.781,337.433 52.125 C 337.496 52.469,337.614 52.793,337.694 52.845 C 337.775 52.898,337.887 53.442,337.944 54.054 C 338.001 54.666,338.112 55.167,338.191 55.167 C 338.269 55.167,338.333 55.992,338.333 57.000 C 338.333 58.008,338.269 58.833,338.191 58.833 C 338.113 58.833,338.002 59.447,337.944 60.197 C 337.886 60.947,337.769 61.604,337.683 61.657 C 337.597 61.710,337.475 61.959,337.412 62.210 C 337.349 62.461,337.238 62.667,337.167 62.667 C 337.095 62.667,336.987 62.863,336.927 63.102 C 336.793 63.635,335.218 65.243,334.657 65.418 C 334.433 65.488,334.205 65.616,334.149 65.702 C 334.093 65.788,333.737 65.900,333.357 65.951 C 332.977 66.002,332.667 66.109,332.667 66.189 C 332.667 66.268,332.179 66.333,331.583 66.333 C 330.987 66.333,330.500 66.268,330.500 66.189 C 330.500 66.109,330.189 66.002,329.809 65.951 C 329.429 65.900,329.073 65.788,329.018 65.702 C 328.962 65.616,328.748 65.492,328.542 65.428 C 328.335 65.364,328.167 65.249,328.167 65.174 C 328.167 65.098,327.984 64.990,327.761 64.934 C 327.538 64.878,327.310 64.690,327.255 64.515 C 327.199 64.340,327.044 64.155,326.910 64.104 C 326.776 64.053,326.667 63.896,326.667 63.755 C 326.667 63.615,326.593 63.500,326.503 63.500 C 326.413 63.500,326.293 63.313,326.235 63.083 C 326.178 62.854,326.070 62.667,325.995 62.667 C 325.921 62.667,325.810 62.442,325.750 62.167 C 325.690 61.892,325.571 61.667,325.487 61.667 C 325.402 61.667,325.333 61.485,325.333 61.264 C 325.333 61.042,325.253 60.834,325.156 60.802 C 325.055 60.768,324.936 60.036,324.881 59.121 C 324.828 58.230,324.720 57.500,324.642 57.500 C 324.564 57.500,324.500 57.313,324.500 57.083 C 324.500 56.854,324.564 56.667,324.641 56.667 C 324.719 56.667,324.832 55.860,324.892 54.875 C 324.952 53.890,325.076 53.058,325.168 53.028 C 325.259 52.997,325.333 52.828,325.333 52.653 C 325.333 52.477,325.402 52.333,325.487 52.333 C 325.571 52.333,325.690 52.108,325.750 51.833 C 325.810 51.558,325.929 51.333,326.013 51.333 C 326.098 51.333,326.167 51.181,326.167 50.995 C 326.167 50.809,326.279 50.613,326.417 50.560 C 326.554 50.508,326.667 50.366,326.667 50.245 C 326.667 49.970,327.622 49.000,327.893 49.000 C 328.003 49.000,328.201 48.850,328.333 48.667 C 328.465 48.484,328.819 48.289,329.120 48.232 C 329.420 48.176,329.667 48.068,329.667 47.993 C 329.667 47.653,333.191 47.658,333.305 47.998 M234.960 48.464 C 234.997 48.575,235.100 48.667,235.189 48.667 C 235.422 48.667,236.167 49.510,236.167 49.774 C 236.167 49.898,236.242 50.000,236.333 50.000 C 236.425 50.000,236.500 50.225,236.500 50.500 C 236.500 50.775,236.575 51.000,236.667 51.000 C 236.758 51.000,236.833 51.300,236.833 51.667 C 236.833 52.033,236.758 52.333,236.667 52.333 C 236.575 52.333,236.500 52.558,236.500 52.833 C 236.500 53.108,236.433 53.333,236.351 53.333 C 236.270 53.333,236.156 53.521,236.098 53.750 C 236.041 53.979,235.920 54.167,235.830 54.167 C 235.740 54.167,235.667 54.282,235.667 54.422 C 235.667 54.562,235.535 54.726,235.375 54.785 C 235.215 54.845,234.959 55.034,234.807 55.205 C 234.655 55.376,234.261 55.560,233.932 55.613 C 233.603 55.667,233.333 55.775,233.333 55.855 C 233.333 55.935,232.583 56.000,231.667 56.000 L 230.000 56.000 230.000 52.181 C 230.000 49.286,230.050 48.338,230.208 48.268 C 230.633 48.077,234.890 48.253,234.960 48.464 M361.971 48.497 C 362.002 48.590,362.167 48.667,362.337 48.667 C 362.508 48.667,362.688 48.733,362.739 48.815 C 362.789 48.896,363.025 49.012,363.263 49.072 C 363.500 49.131,363.866 49.365,364.075 49.590 C 364.284 49.816,364.542 50.000,364.649 50.000 C 364.756 50.000,364.886 50.110,364.937 50.244 C 364.989 50.378,365.174 50.533,365.349 50.588 C 365.524 50.644,365.667 50.817,365.667 50.974 C 365.667 51.131,365.817 51.388,366.000 51.545 C 366.183 51.702,366.333 51.943,366.333 52.082 C 366.333 52.220,366.402 52.333,366.485 52.333 C 366.569 52.333,366.688 52.633,366.750 53.000 C 366.812 53.367,366.931 53.667,367.015 53.667 C 367.098 53.667,367.167 53.892,367.167 54.167 C 367.167 54.442,367.242 54.667,367.333 54.667 C 367.437 54.667,367.500 55.583,367.500 57.083 C 367.500 58.583,367.437 59.500,367.333 59.500 C 367.242 59.500,367.167 59.688,367.167 59.917 C 367.167 60.146,367.100 60.333,367.019 60.333 C 366.938 60.333,366.821 60.671,366.759 61.083 C 366.697 61.496,366.581 61.833,366.501 61.833 C 366.421 61.833,366.303 61.998,366.239 62.200 C 366.115 62.591,364.246 64.500,363.987 64.500 C 363.903 64.500,363.833 64.572,363.833 64.659 C 363.833 64.747,363.571 64.867,363.250 64.928 C 362.929 64.988,362.667 65.101,362.667 65.179 C 362.667 65.258,362.292 65.372,361.833 65.432 C 361.375 65.493,361.000 65.608,361.000 65.688 C 361.000 65.768,360.100 65.833,359.000 65.833 L 357.000 65.833 357.000 56.974 L 357.000 48.115 359.457 48.221 C 360.882 48.282,361.938 48.398,361.971 48.497 M116.406 52.417 C 116.466 52.737,116.580 53.000,116.659 53.000 C 116.737 53.000,116.854 53.375,116.917 53.833 C 116.980 54.292,117.098 54.667,117.180 54.667 C 117.262 54.667,117.377 54.967,117.436 55.333 C 117.495 55.700,117.605 56.000,117.680 56.000 C 117.756 56.000,117.867 56.262,117.928 56.583 C 117.988 56.904,118.104 57.167,118.185 57.167 C 118.267 57.167,118.333 57.279,118.333 57.417 C 118.333 57.554,118.408 57.667,118.500 57.667 C 118.592 57.667,118.667 57.854,118.667 58.083 L 118.667 58.500 116.000 58.500 L 113.333 58.500 113.333 58.083 C 113.333 57.854,113.402 57.667,113.487 57.667 C 113.571 57.667,113.690 57.442,113.750 57.167 C 113.810 56.892,113.922 56.667,113.999 56.667 C 114.075 56.667,114.188 56.367,114.250 56.000 C 114.312 55.633,114.431 55.333,114.515 55.333 C 114.598 55.333,114.667 55.183,114.667 55.000 C 114.667 54.817,114.741 54.667,114.831 54.667 C 114.922 54.667,115.044 54.367,115.103 54.000 C 115.161 53.633,115.271 53.333,115.347 53.333 C 115.423 53.333,115.537 53.052,115.600 52.708 C 115.704 52.140,115.905 51.843,116.190 51.836 C 116.248 51.834,116.345 52.096,116.406 52.417 M57.386 88.275 C 57.446 88.335,57.304 88.560,57.070 88.777 C 56.616 89.198,56.167 89.025,56.167 88.429 C 56.167 88.163,57.150 88.039,57.386 88.275 M47.167 92.845 C 47.167 93.162,46.721 93.788,46.598 93.645 C 46.401 93.416,46.224 92.882,46.286 92.708 C 46.419 92.339,47.167 92.455,47.167 92.845 M37.399 96.930 C 37.608 97.477,37.506 97.667,37.000 97.667 C 36.556 97.667,36.500 97.611,36.500 97.167 C 36.500 96.605,37.203 96.420,37.399 96.930 M27.500 100.667 C 27.500 100.758,27.613 100.833,27.750 100.833 C 28.066 100.833,28.072 101.119,27.762 101.429 C 27.256 101.935,26.569 101.286,27.042 100.749 C 27.287 100.470,27.500 100.432,27.500 100.667 M17.903 105.442 C 18.057 105.842,17.476 106.357,17.202 106.064 C 17.091 105.945,17.000 105.694,17.000 105.507 C 17.000 105.082,17.744 105.028,17.903 105.442 " stroke="none" fill="#fcfcfc" fill-rule="evenodd"></path><path id="path1" d="" stroke="none" fill="#849ca4" fill-rule="evenodd"></path><path id="path2" d="" stroke="none" fill="#dc100d0" fill-rule="evenodd"></path><path id="path3" d="" stroke="none" fill="#dc100d0" fill-rule="evenodd"></path><path id="path4" d="" stroke="none" fill="#dc100d0" fill-rule="evenodd"></path></g></svg>